kaushan-script_regular.sfdir

StartChar: exclam
Encoding: 33 33 204
Width: 300
Flags: W
LayerCount: 2
Fore
SplineSet
143 188 m 0,0,1
 143 215 143 215 157.5 266.5 c 128,-1,2
 172 318 172 318 195 380.5 c 128,-1,3
 218 443 218 443 247 509.5 c 128,-1,4
 276 576 276 576 305.5 634 c 128,-1,5
 335 692 335 692 362 734.5 c 128,-1,6
 389 777 389 777 409 791 c 1,7,8
 425 788 425 788 443.5 776.5 c 128,-1,9
 462 765 462 765 478 750.5 c 128,-1,10
 494 736 494 736 506 720 c 128,-1,11
 518 704 518 704 520 692 c 1,12,13
 469 650 469 650 419 587.5 c 128,-1,14
 369 525 369 525 326.5 449 c 128,-1,15
 284 373 284 373 252 286.5 c 128,-1,16
 220 200 220 200 204 110 c 1,17,18
 192 113 192 113 180.5 117.5 c 128,-1,19
 169 122 169 122 161 130 c 128,-1,20
 153 138 153 138 148 152 c 128,-1,21
 143 166 143 166 143 188 c 0,0,1
121 -77 m 0,22,23
 109 -77 109 -77 98 -71.5 c 128,-1,24
 87 -66 87 -66 78.5 -58.5 c 128,-1,25
 70 -51 70 -51 65 -42.5 c 128,-1,26
 60 -34 60 -34 60 -29 c 0,27,28
 60 -17 60 -17 63 2 c 128,-1,29
 66 21 66 21 72 38.5 c 128,-1,30
 78 56 78 56 87 68.5 c 128,-1,31
 96 81 96 81 107 81 c 0,32,33
 135 81 135 81 163.5 61.5 c 128,-1,34
 192 42 192 42 206 18 c 1,35,36
 194 5 194 5 185 -11.5 c 128,-1,37
 176 -28 176 -28 167 -42.5 c 128,-1,38
 158 -57 158 -57 147 -67 c 128,-1,39
 136 -77 136 -77 121 -77 c 0,22,23
EndSplineSet
EndChar

StartChar: quotedbl
Encoding: 34 34 294
Width: 367
Flags: W
LayerCount: 2
Fore
SplineSet
245 507 m 1,0,1
 239 512 239 512 234 523 c 128,-1,2
 229 534 229 534 229 545 c 1,3,4
 241 580 241 580 251.5 625.5 c 128,-1,5
 262 671 262 671 262 727 c 0,6,7
 262 752 262 752 259.5 778 c 128,-1,8
 257 804 257 804 250 833 c 1,9,10
 298 830 298 830 337.5 812.5 c 128,-1,11
 377 795 377 795 390 770 c 1,12,13
 373 679 373 679 338 612 c 128,-1,14
 303 545 303 545 245 507 c 1,0,1
425 507 m 1,15,16
 419 512 419 512 414 523 c 128,-1,17
 409 534 409 534 409 545 c 1,18,19
 421 580 421 580 431.5 625.5 c 128,-1,20
 442 671 442 671 442 727 c 0,21,22
 442 752 442 752 439.5 778 c 128,-1,23
 437 804 437 804 430 833 c 1,24,25
 478 830 478 830 517.5 812.5 c 128,-1,26
 557 795 557 795 570 770 c 1,27,28
 553 679 553 679 518 612 c 128,-1,29
 483 545 483 545 425 507 c 1,15,16
EndSplineSet
EndChar

StartChar: numbersign
Encoding: 35 35 383
Width: 676
Flags: W
LayerCount: 2
Fore
SplineSet
250 344 m 0,0,1
 220 344 220 344 205.5 356.5 c 128,-1,2
 191 369 191 369 191 391 c 0,3,4
 191 407 191 407 198 425 c 1,5,6
 214 423 214 423 229 421 c 128,-1,7
 244 419 244 419 268 419 c 0,8,9
 288 419 288 419 312.5 419 c 128,-1,10
 337 419 337 419 363 421 c 1,11,12
 392 512 392 512 420.5 608 c 128,-1,13
 449 704 449 704 473 801 c 1,14,15
 497 801 497 801 522.5 788 c 128,-1,16
 548 775 548 775 563 743 c 1,17,18
 534 660 534 660 504.5 580.5 c 128,-1,19
 475 501 475 501 446 424 c 1,20,-1
 536 429 l 1,21,22
 565 519 565 519 592 612.5 c 128,-1,23
 619 706 619 706 643 801 c 1,24,25
 667 801 667 801 692.5 788 c 128,-1,26
 718 775 718 775 733 743 c 1,27,28
 704 663 704 663 676 586 c 128,-1,29
 648 509 648 509 620 434 c 1,30,31
 657 436 657 436 683 437.5 c 128,-1,32
 709 439 709 439 718 439 c 0,33,34
 737 439 737 439 750 424.5 c 128,-1,35
 763 410 763 410 765 368 c 1,36,37
 740 371 740 371 724 372 c 128,-1,38
 708 373 708 373 696 373 c 0,39,40
 675 373 675 373 649.5 372 c 128,-1,41
 624 371 624 371 595 369 c 1,42,43
 584 343 584 343 574.5 317.5 c 128,-1,44
 565 292 565 292 554 267 c 1,45,46
 587 269 587 269 610 270 c 128,-1,47
 633 271 633 271 641 271 c 0,48,49
 660 271 660 271 672.5 256.5 c 128,-1,50
 685 242 685 242 687 200 c 1,51,52
 663 203 663 203 647 204 c 128,-1,53
 631 205 631 205 619 205 c 0,54,55
 600 205 600 205 577 204 c 128,-1,56
 554 203 554 203 528 201 c 1,57,58
 479 83 479 83 434.5 -8.5 c 128,-1,59
 390 -100 390 -100 352 -155 c 1,60,61
 330 -143 330 -143 326 -112 c 1,62,63
 349 -70 349 -70 383 9.5 c 128,-1,64
 417 89 417 89 456 196 c 1,65,66
 430 194 430 194 404 192 c 128,-1,67
 378 190 378 190 352 188 c 1,68,69
 305 75 305 75 262 -13 c 128,-1,70
 219 -101 219 -101 182 -155 c 1,71,72
 160 -143 160 -143 156 -112 c 1,73,74
 178 -72 178 -72 210.5 4 c 128,-1,75
 243 80 243 80 281 182 c 1,76,77
 246 179 246 179 218 177.5 c 128,-1,78
 190 176 190 176 173 176 c 0,79,80
 143 176 143 176 128 188.5 c 128,-1,81
 113 201 113 201 113 223 c 0,82,83
 113 231 113 231 115 239 c 128,-1,84
 117 247 117 247 120 257 c 1,85,86
 137 255 137 255 152 253 c 128,-1,87
 167 251 167 251 191 251 c 256,88,89
 215 251 215 251 245 251 c 128,-1,90
 275 251 275 251 307 253 c 1,91,92
 315 276 315 276 323 300 c 128,-1,93
 331 324 331 324 339 348 c 1,94,95
 311 346 311 346 288 345 c 128,-1,96
 265 344 265 344 250 344 c 0,0,1
419 355 m 1,97,98
 409 329 409 329 399.5 304.5 c 128,-1,99
 390 280 390 280 380 257 c 1,100,101
 406 258 406 258 431 259 c 128,-1,102
 456 260 456 260 480 262 c 1,103,104
 488 287 488 287 497 312 c 128,-1,105
 506 337 506 337 514 363 c 1,106,107
 490 361 490 361 466 359 c 128,-1,108
 442 357 442 357 419 355 c 1,97,98
EndSplineSet
EndChar

StartChar: dollar
Encoding: 36 36 387
Width: 668
Flags: W
LayerCount: 2
Fore
SplineSet
595 703 m 1,0,1
 628 692 628 692 661 676.5 c 128,-1,2
 694 661 694 661 726 642 c 1,3,4
 728 628 728 628 728.5 621.5 c 128,-1,5
 729 615 729 615 729 608 c 0,6,7
 729 573 729 573 713 543 c 128,-1,8
 697 513 697 513 673 502 c 1,9,10
 655 534 655 534 625.5 557 c 128,-1,11
 596 580 596 580 561 595 c 1,12,13
 543 538 543 538 525 483.5 c 128,-1,14
 507 429 507 429 490 376 c 1,15,-1
 502 370 l 1,16,17
 585 325 585 325 628 274.5 c 128,-1,18
 671 224 671 224 671 149 c 0,19,20
 671 99 671 99 654 59 c 128,-1,21
 637 19 637 19 607 -9.5 c 128,-1,22
 577 -38 577 -38 535 -53.5 c 128,-1,23
 493 -69 493 -69 442 -69 c 256,24,25
 391 -69 391 -69 333 -49 c 1,26,27
 316 -85 316 -85 300.5 -116.5 c 128,-1,28
 285 -148 285 -148 270 -174 c 1,29,30
 245 -169 245 -169 238 -138 c 1,31,32
 249 -121 249 -121 262 -94 c 128,-1,33
 275 -67 275 -67 289 -32 c 1,34,35
 253 -16 253 -16 219.5 5.5 c 128,-1,36
 186 27 186 27 160.5 52 c 128,-1,37
 135 77 135 77 120 104.5 c 128,-1,38
 105 132 105 132 105 161 c 0,39,40
 105 181 105 181 117 213 c 128,-1,41
 129 245 129 245 161 280 c 1,42,43
 161 250 161 250 184 207 c 128,-1,44
 207 164 207 164 258 126 c 0,45,46
 293 99 293 99 331 82 c 1,47,48
 349 136 349 136 368 195 c 128,-1,49
 387 254 387 254 404 317 c 1,50,51
 319 365 319 365 280.5 411 c 128,-1,52
 242 457 242 457 242 516 c 0,53,54
 242 559 242 559 258.5 597 c 128,-1,55
 275 635 275 635 306 663 c 128,-1,56
 337 691 337 691 380.5 707 c 128,-1,57
 424 723 424 723 478 723 c 0,58,59
 485 723 485 723 492 722.5 c 128,-1,60
 499 722 499 722 507 721 c 1,61,62
 514 753 514 753 519.5 781.5 c 128,-1,63
 525 810 525 810 529 833 c 1,64,65
 550 827 550 827 578 816 c 128,-1,66
 606 805 606 805 621 786 c 1,67,-1
 595 703 l 1,0,1
618 138 m 0,68,69
 618 157 618 157 606.5 176 c 128,-1,70
 595 195 595 195 574 214 c 128,-1,71
 553 233 553 233 524 251.5 c 128,-1,72
 495 270 495 270 461 288 c 1,73,74
 440 227 440 227 420 171.5 c 128,-1,75
 400 116 400 116 380 65 c 1,76,77
 406 57 406 57 431 53.5 c 128,-1,78
 456 50 456 50 479 50 c 0,79,80
 521 50 521 50 548 60 c 128,-1,81
 575 70 575 70 590.5 83.5 c 128,-1,82
 606 97 606 97 612 112 c 128,-1,83
 618 127 618 127 618 138 c 0,68,69
292 556 m 0,84,85
 292 539 292 539 303.5 521 c 128,-1,86
 315 503 315 503 334 484.5 c 128,-1,87
 353 466 353 466 378 447.5 c 128,-1,88
 403 429 403 429 430 412 c 1,89,90
 444 466 444 466 457.5 517 c 128,-1,91
 471 568 471 568 483 617 c 1,92,93
 468 619 468 619 453.5 620.5 c 128,-1,94
 439 622 439 622 425 622 c 0,95,96
 398 622 398 622 374 617 c 128,-1,97
 350 612 350 612 331.5 603.5 c 128,-1,98
 313 595 313 595 302.5 583 c 128,-1,99
 292 571 292 571 292 556 c 0,84,85
EndSplineSet
EndChar

StartChar: percent
Encoding: 37 37 391
Width: 619
Flags: W
LayerCount: 2
Fore
SplineSet
563 265 m 0,0,1
 582 265 582 265 596 256.5 c 128,-1,2
 610 248 610 248 619.5 234.5 c 128,-1,3
 629 221 629 221 633.5 204.5 c 128,-1,4
 638 188 638 188 638 171 c 0,5,6
 638 156 638 156 631 143 c 128,-1,7
 624 130 624 130 613 120.5 c 128,-1,8
 602 111 602 111 589 105.5 c 128,-1,9
 576 100 576 100 564 100 c 0,10,11
 550 100 550 100 536 106.5 c 128,-1,12
 522 113 522 113 511 124.5 c 128,-1,13
 500 136 500 136 492.5 150.5 c 128,-1,14
 485 165 485 165 485 181 c 0,15,16
 485 193 485 193 491.5 208 c 128,-1,17
 498 223 498 223 509 235.5 c 128,-1,18
 520 248 520 248 534 256.5 c 128,-1,19
 548 265 548 265 563 265 c 0,0,1
305 649 m 0,20,21
 324 649 324 649 338 640.5 c 128,-1,22
 352 632 352 632 361.5 618.5 c 128,-1,23
 371 605 371 605 375.5 588 c 128,-1,24
 380 571 380 571 380 554 c 0,25,26
 380 539 380 539 373 526.5 c 128,-1,27
 366 514 366 514 355 504.5 c 128,-1,28
 344 495 344 495 331 489.5 c 128,-1,29
 318 484 318 484 306 484 c 0,30,31
 292 484 292 484 278 490.5 c 128,-1,32
 264 497 264 497 252.5 508 c 128,-1,33
 241 519 241 519 234 533.5 c 128,-1,34
 227 548 227 548 227 565 c 0,35,36
 227 577 227 577 233.5 592 c 128,-1,37
 240 607 240 607 250.5 619.5 c 128,-1,38
 261 632 261 632 275.5 640.5 c 128,-1,39
 290 649 290 649 305 649 c 0,20,21
739 713 m 1,40,41
 689 638 689 638 633.5 562 c 128,-1,42
 578 486 578 486 521.5 413.5 c 128,-1,43
 465 341 465 341 409.5 273.5 c 128,-1,44
 354 206 354 206 303 147.5 c 128,-1,45
 252 89 252 89 207.5 41.5 c 128,-1,46
 163 -6 163 -6 129 -39 c 1,47,48
 118 -37 118 -37 104.5 -23.5 c 128,-1,49
 91 -10 91 -10 87 7 c 1,50,51
 126 42 126 42 174 95.5 c 128,-1,52
 222 149 222 149 273.5 213.5 c 128,-1,53
 325 278 325 278 377.5 349.5 c 128,-1,54
 430 421 430 421 479 493 c 128,-1,55
 528 565 528 565 570 634 c 128,-1,56
 612 703 612 703 643 761 c 1,57,58
 655 761 655 761 670 756.5 c 128,-1,59
 685 752 685 752 699.5 745 c 128,-1,60
 714 738 714 738 725 729.5 c 128,-1,61
 736 721 736 721 739 713 c 1,40,41
EndSplineSet
EndChar

StartChar: ampersand
Encoding: 38 38 384
Width: 667
Flags: W
LayerCount: 2
Fore
SplineSet
591 332 m 0,0,1
 555 332 555 332 539 343.5 c 128,-1,2
 523 355 523 355 523 380 c 0,3,4
 523 396 523 396 529 417 c 1,5,6
 548 414 548 414 565.5 413 c 128,-1,7
 583 412 583 412 608 412 c 0,8,9
 640 412 640 412 661.5 412.5 c 128,-1,10
 683 413 683 413 697.5 414 c 128,-1,11
 712 415 712 415 720.5 415.5 c 128,-1,12
 729 416 729 416 736 416 c 0,13,14
 760 416 760 416 771 398.5 c 128,-1,15
 782 381 782 381 792 339 c 1,16,17
 763 342 763 342 744.5 343 c 128,-1,18
 726 344 726 344 712 344 c 0,19,20
 702 344 702 344 694 343.5 c 128,-1,21
 686 343 686 343 679 343 c 1,22,23
 644 287 644 287 598.5 222.5 c 128,-1,24
 553 158 553 158 500.5 100 c 128,-1,25
 448 42 448 42 391 -3.5 c 128,-1,26
 334 -49 334 -49 277 -67 c 1,27,28
 238 -63 238 -63 206 -48 c 128,-1,29
 174 -33 174 -33 150 -10.5 c 128,-1,30
 126 12 126 12 112 41.5 c 128,-1,31
 98 71 98 71 96 105 c 1,32,33
 97 152 97 152 115.5 198.5 c 128,-1,34
 134 245 134 245 163 285 c 128,-1,35
 192 325 192 325 228.5 357 c 128,-1,36
 265 389 265 389 302 408 c 1,37,38
 265 424 265 424 249.5 446 c 128,-1,39
 234 468 234 468 234 494 c 0,40,41
 234 530 234 530 259.5 569.5 c 128,-1,42
 285 609 285 609 323 643 c 128,-1,43
 361 677 361 677 404.5 701.5 c 128,-1,44
 448 726 448 726 484 732 c 1,45,46
 494 730 494 730 512.5 719.5 c 128,-1,47
 531 709 531 709 549 694 c 128,-1,48
 567 679 567 679 581.5 663.5 c 128,-1,49
 596 648 596 648 598 637 c 1,50,51
 596 625 596 625 589.5 610 c 128,-1,52
 583 595 583 595 573 580.5 c 128,-1,53
 563 566 563 566 552 553 c 128,-1,54
 541 540 541 540 530 532 c 1,55,56
 520 535 520 535 518 542 c 1,57,58
 530 554 530 554 541 576.5 c 128,-1,59
 552 599 552 599 552 619 c 0,60,61
 552 630 552 630 547 633.5 c 128,-1,62
 542 637 542 637 531 637 c 0,63,64
 503 637 503 637 469 615 c 128,-1,65
 435 593 435 593 405.5 560 c 128,-1,66
 376 527 376 527 356 489.5 c 128,-1,67
 336 452 336 452 336 421 c 1,68,69
 347 420 347 420 362.5 414.5 c 128,-1,70
 378 409 378 409 393 401 c 128,-1,71
 408 393 408 393 419.5 384 c 128,-1,72
 431 375 431 375 434 368 c 1,73,74
 385 356 385 356 343.5 321 c 128,-1,75
 302 286 302 286 272 241 c 128,-1,76
 242 196 242 196 225.5 147 c 128,-1,77
 209 98 209 98 209 59 c 0,78,79
 209 24 209 24 224 1.5 c 128,-1,80
 239 -21 239 -21 271 -21 c 0,81,82
 298 -21 298 -21 329.5 -3.5 c 128,-1,83
 361 14 361 14 394.5 43.5 c 128,-1,84
 428 73 428 73 461.5 110.5 c 128,-1,85
 495 148 495 148 526.5 187.5 c 128,-1,86
 558 227 558 227 585.5 265.5 c 128,-1,87
 613 304 613 304 635 336 c 1,88,89
 626 334 626 334 615.5 333 c 128,-1,90
 605 332 605 332 591 332 c 0,0,1
EndSplineSet
EndChar

StartChar: quotesingle
Encoding: 39 39 301
Width: 187
Flags: W
LayerCount: 2
Fore
SplineSet
245 507 m 1,0,1
 239 512 239 512 234 523 c 128,-1,2
 229 534 229 534 229 545 c 1,3,4
 241 580 241 580 251.5 625.5 c 128,-1,5
 262 671 262 671 262 727 c 0,6,7
 262 752 262 752 259.5 778 c 128,-1,8
 257 804 257 804 250 833 c 1,9,10
 298 830 298 830 337.5 812.5 c 128,-1,11
 377 795 377 795 390 770 c 1,12,13
 373 679 373 679 338 612 c 128,-1,14
 303 545 303 545 245 507 c 1,0,1
EndSplineSet
EndChar

StartChar: parenleft
Encoding: 40 40 285
Width: 319
Flags: W
LayerCount: 2
Fore
SplineSet
240 -144 m 1,0,1
 217 -117 217 -117 198.5 -85.5 c 128,-1,2
 180 -54 180 -54 166.5 -15.5 c 128,-1,3
 153 23 153 23 146 70.5 c 128,-1,4
 139 118 139 118 139 177 c 0,5,6
 139 299 139 299 169 407.5 c 128,-1,7
 199 516 199 516 248 603.5 c 128,-1,8
 297 691 297 691 359.5 755 c 128,-1,9
 422 819 422 819 486 852 c 1,10,11
 500 846 500 846 515.5 831 c 128,-1,12
 531 816 531 816 544.5 799 c 128,-1,13
 558 782 558 782 567 767 c 128,-1,14
 576 752 576 752 577 746 c 1,15,16
 498 732 498 732 431.5 674 c 128,-1,17
 365 616 365 616 316.5 533 c 128,-1,18
 268 450 268 450 240.5 353 c 128,-1,19
 213 256 213 256 213 164 c 0,20,21
 213 124 213 124 215.5 81.5 c 128,-1,22
 218 39 218 39 223 -1 c 128,-1,23
 228 -41 228 -41 235.5 -75 c 128,-1,24
 243 -109 243 -109 252 -131 c 1,25,-1
 240 -144 l 1,0,1
EndSplineSet
EndChar

StartChar: parenright
Encoding: 41 41 286
Width: 322
Flags: W
LayerCount: 2
Fore
SplineSet
295 802 m 1,0,1
 318 775 318 775 336.5 743.5 c 128,-1,2
 355 712 355 712 368.5 673.5 c 128,-1,3
 382 635 382 635 389 587.5 c 128,-1,4
 396 540 396 540 396 481 c 0,5,6
 396 359 396 359 366 250.5 c 128,-1,7
 336 142 336 142 287 54 c 128,-1,8
 238 -34 238 -34 175.5 -97.5 c 128,-1,9
 113 -161 113 -161 49 -194 c 1,10,11
 35 -188 35 -188 19.5 -173 c 128,-1,12
 4 -158 4 -158 -9.5 -141 c 128,-1,13
 -23 -124 -23 -124 -32 -109 c 128,-1,14
 -41 -94 -41 -94 -42 -88 c 1,15,16
 37 -74 37 -74 103.5 -16 c 128,-1,17
 170 42 170 42 218.5 125 c 128,-1,18
 267 208 267 208 294.5 305 c 128,-1,19
 322 402 322 402 322 494 c 0,20,21
 322 534 322 534 319.5 576.5 c 128,-1,22
 317 619 317 619 312 659 c 128,-1,23
 307 699 307 699 299.5 732.5 c 128,-1,24
 292 766 292 766 283 789 c 1,25,-1
 295 802 l 1,0,1
EndSplineSet
EndChar

StartChar: asterisk
Encoding: 42 42 149
Width: 455
Flags: W
LayerCount: 2
Fore
SplineSet
435 832 m 1,0,1
 484 831 484 831 503 814 c 128,-1,2
 522 797 522 797 522 773 c 0,3,4
 522 748 522 748 507 720.5 c 128,-1,5
 492 693 492 693 473 673 c 1,6,7
 502 674 502 674 532.5 683 c 128,-1,8
 563 692 563 692 596 706 c 1,9,10
 599 691 599 691 599 666 c 0,11,12
 599 655 599 655 598.5 644 c 128,-1,13
 598 633 598 633 593.5 624 c 128,-1,14
 589 615 589 615 580 609 c 128,-1,15
 571 603 571 603 554 603 c 0,16,17
 530 603 530 603 506 606.5 c 128,-1,18
 482 610 482 610 457 621 c 1,19,20
 467 594 467 594 484 568.5 c 128,-1,21
 501 543 501 543 526 514 c 1,22,23
 507 503 507 503 487.5 497 c 128,-1,24
 468 491 468 491 451 491 c 256,25,26
 434 491 434 491 424 503.5 c 128,-1,27
 414 516 414 516 409 533.5 c 128,-1,28
 404 551 404 551 402.5 570 c 128,-1,29
 401 589 401 589 401 602 c 0,30,31
 401 607 401 607 401 611.5 c 128,-1,32
 401 616 401 616 402 621 c 1,33,34
 379 603 379 603 360.5 579 c 128,-1,35
 342 555 342 555 323 521 c 1,36,37
 316 527 316 527 308 535.5 c 128,-1,38
 300 544 300 544 292.5 554.5 c 128,-1,39
 285 565 285 565 280 577.5 c 128,-1,40
 275 590 275 590 275 604 c 0,41,42
 275 616 275 616 289 627.5 c 128,-1,43
 303 639 303 639 321.5 648.5 c 128,-1,44
 340 658 340 658 358.5 664.5 c 128,-1,45
 377 671 377 671 385 673 c 1,46,47
 362 688 362 688 333 698.5 c 128,-1,48
 304 709 304 709 266 717 c 1,49,50
 277 755 277 755 294 770 c 128,-1,51
 311 785 311 785 329 785 c 0,52,53
 343 785 343 785 357.5 778 c 128,-1,54
 372 771 372 771 385 759 c 128,-1,55
 398 747 398 747 409 732.5 c 128,-1,56
 420 718 420 718 428 703 c 1,57,58
 435 720 435 720 437.5 738 c 128,-1,59
 440 756 440 756 440 774 c 0,60,61
 440 789 440 789 438.5 803 c 128,-1,62
 437 817 437 817 435 832 c 1,0,1
EndSplineSet
EndChar

StartChar: plus
Encoding: 43 43 289
Width: 557
Flags: W
LayerCount: 2
Fore
SplineSet
321 39 m 1,0,1
 301 42 301 42 279.5 55 c 128,-1,2
 258 68 258 68 238 86 c 1,3,4
 246 115 246 115 254 143.5 c 128,-1,5
 262 172 262 172 270 200 c 1,6,7
 253 198 253 198 236 197 c 128,-1,8
 219 196 219 196 202 196 c 0,9,10
 166 196 166 196 144.5 213.5 c 128,-1,11
 123 231 123 231 123 262 c 0,12,13
 123 267 123 267 125.5 277.5 c 128,-1,14
 128 288 128 288 130 293 c 1,15,16
 149 290 149 290 166.5 289 c 128,-1,17
 184 288 184 288 212 288 c 0,18,19
 235 288 235 288 257.5 288 c 128,-1,20
 280 288 280 288 301 290 c 1,21,22
 324 353 324 353 347.5 402.5 c 128,-1,23
 371 452 371 452 394 481 c 1,24,25
 406 479 406 479 425 471 c 128,-1,26
 444 463 444 463 462.5 453.5 c 128,-1,27
 481 444 481 444 496 434 c 128,-1,28
 511 424 511 424 515 418 c 1,29,30
 492 393 492 393 472 363.5 c 128,-1,31
 452 334 452 334 432 299 c 1,32,33
 468 302 468 302 494.5 305 c 128,-1,34
 521 308 521 308 535 308 c 0,35,36
 557 308 557 308 574 285 c 128,-1,37
 591 262 591 262 599 219 c 1,38,39
 570 222 570 222 551.5 223 c 128,-1,40
 533 224 533 224 519 224 c 0,41,42
 483 224 483 224 450.5 221.5 c 128,-1,43
 418 219 418 219 389 215 c 1,44,45
 370 173 370 173 353 129 c 128,-1,46
 336 85 336 85 321 39 c 1,0,1
EndSplineSet
EndChar

StartChar: period
Encoding: 46 46 287
Width: 241
Flags: W
LayerCount: 2
Fore
SplineSet
125 -38 m 1,0,1
 109 -36 109 -36 91.5 -24.5 c 128,-1,2
 74 -13 74 -13 69 1 c 1,3,4
 69 13 69 13 72.5 32 c 128,-1,5
 76 51 76 51 81 70.5 c 128,-1,6
 86 90 86 90 91 107.5 c 128,-1,7
 96 125 96 125 98 134 c 1,8,9
 110 134 110 134 128.5 128 c 128,-1,10
 147 122 147 122 166.5 111.5 c 128,-1,11
 186 101 186 101 203.5 87.5 c 128,-1,12
 221 74 221 74 230 60 c 1,13,14
 221 40 221 40 207 22 c 128,-1,15
 193 4 193 4 177.5 -9.5 c 128,-1,16
 162 -23 162 -23 148 -30.5 c 128,-1,17
 134 -38 134 -38 125 -38 c 1,0,1
EndSplineSet
EndChar

StartChar: slash
Encoding: 47 47 380
Width: 545
Flags: W
LayerCount: 2
Fore
SplineSet
740 743 m 1,0,1
 656 596 656 596 564 457 c 128,-1,2
 472 318 472 318 379 198 c 128,-1,3
 286 78 286 78 197 -18 c 128,-1,4
 108 -114 108 -114 31 -174 c 1,5,6
 20 -172 20 -172 6.5 -158.5 c 128,-1,7
 -7 -145 -7 -145 -11 -128 c 1,8,9
 26 -106 26 -106 69.5 -63 c 128,-1,10
 113 -20 113 -20 160.5 37 c 128,-1,11
 208 94 208 94 257.5 162 c 128,-1,12
 307 230 307 230 354 302 c 128,-1,13
 401 374 401 374 444.5 446.5 c 128,-1,14
 488 519 488 519 523.5 585 c 128,-1,15
 559 651 559 651 585 706.5 c 128,-1,16
 611 762 611 762 624 801 c 1,17,18
 636 801 636 801 654.5 795 c 128,-1,19
 673 789 673 789 691 780 c 128,-1,20
 709 771 709 771 723 761 c 128,-1,21
 737 751 737 751 740 743 c 1,0,1
EndSplineSet
EndChar

StartChar: zero
Encoding: 48 48 370
Width: 646
Flags: W
LayerCount: 2
Fore
SplineSet
298 -36 m 1,0,1
 262 -29 262 -29 231.5 -14.5 c 128,-1,2
 201 0 201 0 179.5 25.5 c 128,-1,3
 158 51 158 51 145.5 88.5 c 128,-1,4
 133 126 133 126 133 180 c 0,5,6
 133 241 133 241 150 306 c 128,-1,7
 167 371 167 371 197.5 432.5 c 128,-1,8
 228 494 228 494 269.5 549.5 c 128,-1,9
 311 605 311 605 360 646.5 c 128,-1,10
 409 688 409 688 463.5 712.5 c 128,-1,11
 518 737 518 737 574 737 c 0,12,13
 616 737 616 737 646.5 721.5 c 128,-1,14
 677 706 677 706 697.5 678.5 c 128,-1,15
 718 651 718 651 728 612.5 c 128,-1,16
 738 574 738 574 738 529 c 0,17,18
 738 470 738 470 723.5 405 c 128,-1,19
 709 340 709 340 682 278 c 128,-1,20
 655 216 655 216 616.5 159.5 c 128,-1,21
 578 103 578 103 529 60 c 128,-1,22
 480 17 480 17 422 -9 c 128,-1,23
 364 -35 364 -35 298 -36 c 1,0,1
258 139 m 0,24,25
 258 71 258 71 282 43 c 128,-1,26
 306 15 306 15 352 7 c 1,27,28
 397 9 397 9 437.5 41 c 128,-1,29
 478 73 478 73 512 122.5 c 128,-1,30
 546 172 546 172 573.5 232.5 c 128,-1,31
 601 293 601 293 620 353 c 128,-1,32
 639 413 639 413 649 466.5 c 128,-1,33
 659 520 659 520 659 555 c 0,34,35
 659 610 659 610 646.5 644.5 c 128,-1,36
 634 679 634 679 605 686 c 1,37,38
 559 680 559 680 515.5 649.5 c 128,-1,39
 472 619 472 619 433.5 573 c 128,-1,40
 395 527 395 527 363 469.5 c 128,-1,41
 331 412 331 412 307.5 353 c 128,-1,42
 284 294 284 294 271 238 c 128,-1,43
 258 182 258 182 258 139 c 0,24,25
EndSplineSet
EndChar

StartChar: one
Encoding: 49 49 279
Width: 438
Flags: W
LayerCount: 2
Fore
SplineSet
374 72 m 0,0,1
 407 72 407 72 425.5 55.5 c 128,-1,2
 444 39 444 39 444 10 c 0,3,4
 444 2 444 2 442.5 -6.5 c 128,-1,5
 441 -15 441 -15 439 -21 c 1,6,7
 426 -19 426 -19 410 -17.5 c 128,-1,8
 394 -16 394 -16 372 -16 c 0,9,10
 342 -16 342 -16 310.5 -20 c 128,-1,11
 279 -24 279 -24 249 -28.5 c 128,-1,12
 219 -33 219 -33 191 -37 c 128,-1,13
 163 -41 163 -41 139 -41 c 0,14,15
 100 -41 100 -41 72 -26 c 128,-1,16
 44 -11 44 -11 34 15 c 1,17,18
 38 19 38 19 53.5 23.5 c 128,-1,19
 69 28 69 28 91.5 33.5 c 128,-1,20
 114 39 114 39 142.5 44 c 128,-1,21
 171 49 171 49 201 54 c 1,22,23
 215 114 215 114 232.5 177.5 c 128,-1,24
 250 241 250 241 268.5 304.5 c 128,-1,25
 287 368 287 368 307 430 c 128,-1,26
 327 492 327 492 347 550 c 1,27,28
 313 534 313 534 276.5 507.5 c 128,-1,29
 240 481 240 481 214 458 c 1,30,31
 203 464 203 464 203 485 c 1,32,33
 240 535 240 535 278 574 c 128,-1,34
 316 613 316 613 362 657 c 0,35,36
 373 668 373 668 388.5 688 c 128,-1,37
 404 708 404 708 415 728 c 1,38,39
 429 724 429 724 450 719.5 c 128,-1,40
 471 715 471 715 491.5 708.5 c 128,-1,41
 512 702 512 702 528.5 693 c 128,-1,42
 545 684 545 684 551 672 c 1,43,44
 538 661 538 661 527.5 649 c 128,-1,45
 517 637 517 637 509 623 c 0,46,47
 489 587 489 587 462.5 522.5 c 128,-1,48
 436 458 436 458 408.5 381.5 c 128,-1,49
 381 305 381 305 353.5 222.5 c 128,-1,50
 326 140 326 140 304 68 c 1,51,52
 325 70 325 70 342.5 71 c 128,-1,53
 360 72 360 72 374 72 c 0,0,1
EndSplineSet
Substitution2: "'sups' Superscript in Latin lookup 5 subtable" onesuperior
Substitution2: "'subs' Subscript in Latin lookup 4 subtable" oneinferior
AlternateSubs2: "'aalt' Access All Alternates in Latin lookup 1 subtable" oneinferior onesuperior
EndChar

StartChar: two
Encoding: 50 50 324
Width: 564
Flags: W
LayerCount: 2
Fore
SplineSet
645 558 m 0,0,1
 645 510 645 510 623.5 465 c 128,-1,2
 602 420 602 420 564 375 c 128,-1,3
 526 330 526 330 473.5 282.5 c 128,-1,4
 421 235 421 235 360 182 c 0,5,6
 332 158 332 158 312.5 139 c 128,-1,7
 293 120 293 120 279 102.5 c 128,-1,8
 265 85 265 85 254.5 68.5 c 128,-1,9
 244 52 244 52 235 33 c 1,10,11
 315 38 315 38 394.5 69 c 128,-1,12
 474 100 474 100 531 150 c 1,13,14
 535 145 535 145 541 134.5 c 128,-1,15
 547 124 547 124 551.5 110.5 c 128,-1,16
 556 97 556 97 559.5 81.5 c 128,-1,17
 563 66 563 66 563 51 c 0,18,19
 563 26 563 26 552 8 c 1,20,21
 542 -3 542 -3 523.5 -9 c 128,-1,22
 505 -15 505 -15 480 -18 c 128,-1,23
 455 -21 455 -21 426 -22 c 128,-1,24
 397 -23 397 -23 366 -23 c 0,25,26
 336 -23 336 -23 306 -24.5 c 128,-1,27
 276 -26 276 -26 248.5 -29.5 c 128,-1,28
 221 -33 221 -33 197.5 -40 c 128,-1,29
 174 -47 174 -47 158 -59 c 1,30,31
 134 -48 134 -48 114.5 -26.5 c 128,-1,32
 95 -5 95 -5 87 20 c 1,33,34
 93 49 93 49 108 74 c 128,-1,35
 123 99 123 99 148.5 126 c 128,-1,36
 174 153 174 153 212 184.5 c 128,-1,37
 250 216 250 216 302 259 c 0,38,39
 360 307 360 307 407 349 c 128,-1,40
 454 391 454 391 486.5 429.5 c 128,-1,41
 519 468 519 468 536.5 505.5 c 128,-1,42
 554 543 554 543 554 582 c 0,43,44
 554 631 554 631 529 659 c 128,-1,45
 504 687 504 687 463 687 c 0,46,47
 434 687 434 687 407 673.5 c 128,-1,48
 380 660 380 660 359 636.5 c 128,-1,49
 338 613 338 613 325 582.5 c 128,-1,50
 312 552 312 552 312 518 c 0,51,52
 312 493 312 493 319.5 473.5 c 128,-1,53
 327 454 327 454 343 434 c 1,54,55
 329 431 329 431 317 431 c 0,56,57
 293 431 293 431 273 439 c 128,-1,58
 253 447 253 447 238.5 461 c 128,-1,59
 224 475 224 475 216 494 c 128,-1,60
 208 513 208 513 208 536 c 0,61,62
 208 574 208 574 230 608.5 c 128,-1,63
 252 643 252 643 288 669 c 128,-1,64
 324 695 324 695 369.5 710.5 c 128,-1,65
 415 726 415 726 462 726 c 0,66,67
 503 726 503 726 537 714 c 128,-1,68
 571 702 571 702 595 679.5 c 128,-1,69
 619 657 619 657 632 626 c 128,-1,70
 645 595 645 595 645 558 c 0,0,1
EndSplineSet
Substitution2: "'sups' Superscript in Latin lookup 5 subtable" twosuperior
Substitution2: "'subs' Subscript in Latin lookup 4 subtable" twoinferior
AlternateSubs2: "'aalt' Access All Alternates in Latin lookup 1 subtable" twoinferior twosuperior
EndChar

StartChar: three
Encoding: 51 51 321
Width: 555
Flags: W
LayerCount: 2
Fore
SplineSet
232 662 m 1,0,1
 247 672 247 672 273 681.5 c 128,-1,2
 299 691 299 691 329 698 c 128,-1,3
 359 705 359 705 389.5 709 c 128,-1,4
 420 713 420 713 444 713 c 0,5,6
 485 713 485 713 514 701.5 c 128,-1,7
 543 690 543 690 561 671.5 c 128,-1,8
 579 653 579 653 587 630 c 128,-1,9
 595 607 595 607 595 583 c 0,10,11
 595 558 595 558 585.5 530 c 128,-1,12
 576 502 576 502 558 474 c 128,-1,13
 540 446 540 446 514.5 419.5 c 128,-1,14
 489 393 489 393 458 372 c 1,15,16
 524 364 524 364 554 332 c 128,-1,17
 584 300 584 300 584 246 c 0,18,19
 584 195 584 195 565 154.5 c 128,-1,20
 546 114 546 114 513.5 82.5 c 128,-1,21
 481 51 481 51 439 28.5 c 128,-1,22
 397 6 397 6 350.5 -8.5 c 128,-1,23
 304 -23 304 -23 256 -29.5 c 128,-1,24
 208 -36 208 -36 165 -36 c 1,25,26
 128 -28 128 -28 109 3 c 128,-1,27
 90 34 90 34 90 79 c 0,28,29
 90 82 90 82 90.5 85 c 128,-1,30
 91 88 91 88 91 92 c 1,31,32
 122 82 122 82 171 82 c 0,33,34
 222 82 222 82 281 94 c 128,-1,35
 340 106 340 106 390 129 c 128,-1,36
 440 152 440 152 473 186 c 128,-1,37
 506 220 506 220 506 265 c 0,38,39
 506 298 506 298 484.5 319.5 c 128,-1,40
 463 341 463 341 417 347 c 1,41,42
 387 329 387 329 359.5 321.5 c 128,-1,43
 332 314 332 314 318 314 c 0,44,45
 295 314 295 314 279 334 c 128,-1,46
 263 354 263 354 263 395 c 1,47,48
 308 395 308 395 358.5 405 c 128,-1,49
 409 415 409 415 451 439.5 c 128,-1,50
 493 464 493 464 521.5 504.5 c 128,-1,51
 550 545 550 545 552 607 c 1,52,53
 547 627 547 627 528.5 636 c 128,-1,54
 510 645 510 645 484 645 c 0,55,56
 460 645 460 645 431.5 638 c 128,-1,57
 403 631 403 631 374.5 618.5 c 128,-1,58
 346 606 346 606 319.5 588.5 c 128,-1,59
 293 571 293 571 274 551 c 1,60,61
 254 563 254 563 242.5 587.5 c 128,-1,62
 231 612 231 612 231 644 c 0,63,64
 231 649 231 649 231 653 c 128,-1,65
 231 657 231 657 232 662 c 1,0,1
EndSplineSet
Substitution2: "'sups' Superscript in Latin lookup 5 subtable" threesuperior
Substitution2: "'subs' Subscript in Latin lookup 4 subtable" threeinferior
AlternateSubs2: "'aalt' Access All Alternates in Latin lookup 1 subtable" threeinferior threesuperior
EndChar

StartChar: four
Encoding: 52 52 214
Width: 570
Flags: W
LayerCount: 2
Fore
SplineSet
620 688 m 1,0,1
 650 681 650 681 681.5 665.5 c 128,-1,2
 713 650 713 650 730 624 c 1,3,4
 677 551 677 551 631 473 c 128,-1,5
 585 395 585 395 543 312 c 1,6,-1
 592 322 l 1,7,8
 601 312 601 312 602 300 c 1,9,-1
 523 271 l 1,10,11
 487 197 487 197 460 122.5 c 128,-1,12
 433 48 433 48 416 -31 c 1,13,14
 386 -30 386 -30 358 -23.5 c 128,-1,15
 330 -17 330 -17 309 6 c 1,16,17
 327 66 327 66 349 123.5 c 128,-1,18
 371 181 371 181 397 239 c 1,19,20
 378 237 378 237 353.5 234.5 c 128,-1,21
 329 232 329 232 309 232 c 0,22,23
 282 232 282 232 253 234.5 c 128,-1,24
 224 237 224 237 197 244.5 c 128,-1,25
 170 252 170 252 146 265 c 128,-1,26
 122 278 122 278 104 300 c 1,27,28
 183 390 183 390 250 495 c 128,-1,29
 317 600 317 600 368 710 c 1,30,31
 403 699 403 699 437.5 683 c 128,-1,32
 472 667 472 667 501 643 c 1,33,34
 467 604 467 604 428.5 558.5 c 128,-1,35
 390 513 390 513 352.5 468 c 128,-1,36
 315 423 315 423 282.5 382 c 128,-1,37
 250 341 250 341 228 310 c 1,38,39
 254 299 254 299 281.5 294.5 c 128,-1,40
 309 290 309 290 337 290 c 0,41,42
 356 290 356 290 379.5 291 c 128,-1,43
 403 292 403 292 422 294 c 1,44,45
 471 396 471 396 520 493.5 c 128,-1,46
 569 591 569 591 620 688 c 1,0,1
EndSplineSet
Substitution2: "'sups' Superscript in Latin lookup 5 subtable" foursuperior
Substitution2: "'subs' Subscript in Latin lookup 4 subtable" fourinferior
AlternateSubs2: "'aalt' Access All Alternates in Latin lookup 1 subtable" fourinferior foursuperior
EndChar

StartChar: five
Encoding: 53 53 212
Width: 538
Flags: W
LayerCount: 2
Fore
SplineSet
175 381 m 1,0,1
 188 417 188 417 210.5 464 c 128,-1,2
 233 511 233 511 257.5 557.5 c 128,-1,3
 282 604 282 604 306 645 c 128,-1,4
 330 686 330 686 347 709 c 1,5,6
 367 701 367 701 391 687.5 c 128,-1,7
 415 674 415 674 435 655 c 1,8,9
 449 656 449 656 474.5 660.5 c 128,-1,10
 500 665 500 665 527 670.5 c 128,-1,11
 554 676 554 676 578.5 681.5 c 128,-1,12
 603 687 603 687 615 691 c 1,13,14
 649 675 649 675 668 643 c 128,-1,15
 687 611 687 611 703 565 c 1,16,17
 642 581 642 581 573.5 590 c 128,-1,18
 505 599 505 599 440 599 c 1,19,20
 419 581 419 581 399.5 556 c 128,-1,21
 380 531 380 531 363 504.5 c 128,-1,22
 346 478 346 478 332.5 454 c 128,-1,23
 319 430 319 430 310 413 c 1,24,25
 345 427 345 427 382 427 c 0,26,27
 416 427 416 427 444 414 c 128,-1,28
 472 401 472 401 492 378 c 128,-1,29
 512 355 512 355 523 324.5 c 128,-1,30
 534 294 534 294 534 258 c 0,31,32
 534 203 534 203 500 150.5 c 128,-1,33
 466 98 466 98 412 57 c 128,-1,34
 358 16 358 16 291.5 -9.5 c 128,-1,35
 225 -35 225 -35 159 -36 c 1,36,37
 135 -31 135 -31 110 -8 c 128,-1,38
 85 15 85 15 74 55 c 1,39,40
 111 56 111 56 154 64.5 c 128,-1,41
 197 73 197 73 240.5 89 c 128,-1,42
 284 105 284 105 324 127.5 c 128,-1,43
 364 150 364 150 395 177 c 128,-1,44
 426 204 426 204 444.5 235.5 c 128,-1,45
 463 267 463 267 463 302 c 0,46,47
 463 363 463 363 394 363 c 0,48,49
 362 363 362 363 328 353 c 128,-1,50
 294 343 294 343 264 323 c 1,51,52
 242 331 242 331 215.5 346 c 128,-1,53
 189 361 189 361 175 381 c 1,0,1
EndSplineSet
EndChar

StartChar: six
Encoding: 54 54 315
Width: 565
Flags: W
LayerCount: 2
Fore
SplineSet
550 732 m 1,0,1
 561 732 561 732 579 725 c 128,-1,2
 597 718 597 718 616.5 706.5 c 128,-1,3
 636 695 636 695 653.5 680.5 c 128,-1,4
 671 666 671 666 682 651 c 1,5,6
 647 646 647 646 593.5 618.5 c 128,-1,7
 540 591 540 591 483 546.5 c 128,-1,8
 426 502 426 502 372.5 443.5 c 128,-1,9
 319 385 319 385 283 319 c 1,10,11
 307 344 307 344 334 366.5 c 128,-1,12
 361 389 361 389 388.5 406.5 c 128,-1,13
 416 424 416 424 443.5 435 c 128,-1,14
 471 446 471 446 496 447 c 1,15,16
 517 436 517 436 538 418.5 c 128,-1,17
 559 401 559 401 576 380.5 c 128,-1,18
 593 360 593 360 604 337 c 128,-1,19
 615 314 615 314 615 291 c 0,20,21
 615 261 615 261 598.5 224 c 128,-1,22
 582 187 582 187 555 149.5 c 128,-1,23
 528 112 528 112 493 77 c 128,-1,24
 458 42 458 42 421.5 14.5 c 128,-1,25
 385 -13 385 -13 349 -29.5 c 128,-1,26
 313 -46 313 -46 285 -46 c 1,27,28
 207 -30 207 -30 157.5 12 c 128,-1,29
 108 54 108 54 108 124 c 0,30,31
 108 182 108 182 127.5 245 c 128,-1,32
 147 308 147 308 180 370 c 128,-1,33
 213 432 213 432 257 490.5 c 128,-1,34
 301 549 301 549 350.5 597 c 128,-1,35
 400 645 400 645 451 680.5 c 128,-1,36
 502 716 502 716 550 732 c 1,0,1
494 400 m 1,37,38
 432 380 432 380 381 346.5 c 128,-1,39
 330 313 330 313 293.5 272.5 c 128,-1,40
 257 232 257 232 236.5 188 c 128,-1,41
 216 144 216 144 216 103 c 0,42,43
 216 88 216 88 221 72 c 128,-1,44
 226 56 226 56 235 42 c 128,-1,45
 244 28 244 28 256 16.5 c 128,-1,46
 268 5 268 5 281 1 c 1,47,48
 321 20 321 20 364.5 59 c 128,-1,49
 408 98 408 98 444.5 144.5 c 128,-1,50
 481 191 481 191 505 239.5 c 128,-1,51
 529 288 529 288 529 327 c 0,52,53
 529 347 529 347 521 367 c 128,-1,54
 513 387 513 387 494 400 c 1,37,38
EndSplineSet
EndChar

StartChar: seven
Encoding: 55 55 314
Width: 557
Flags: W
LayerCount: 2
Fore
SplineSet
241 364 m 1,0,1
 264 368 264 368 287 370 c 128,-1,2
 310 372 310 372 333 372 c 0,3,4
 344 372 344 372 354.5 371.5 c 128,-1,5
 365 371 365 371 376 370 c 1,6,7
 413 433 413 433 457 496 c 128,-1,8
 501 559 501 559 552 618 c 1,9,10
 517 631 517 631 483 637.5 c 128,-1,11
 449 644 449 644 422 644 c 0,12,13
 328 644 328 644 303 572 c 1,14,15
 265 579 265 579 238 602.5 c 128,-1,16
 211 626 211 626 202 659 c 1,17,18
 238 732 238 732 335 732 c 0,19,20
 363 732 363 732 395.5 724.5 c 128,-1,21
 428 717 428 717 460.5 705.5 c 128,-1,22
 493 694 493 694 524.5 680 c 128,-1,23
 556 666 556 666 583 652 c 1,24,25
 594 663 594 663 604 674 c 128,-1,26
 614 685 614 685 625 696 c 1,27,28
 651 685 651 685 673.5 661 c 128,-1,29
 696 637 696 637 704 611 c 1,30,31
 644 579 644 579 588 509 c 128,-1,32
 532 439 532 439 487 349 c 1,33,34
 534 334 534 334 568 311 c 128,-1,35
 602 288 602 288 619 258 c 1,36,-1
 612 251 l 1,37,38
 588 265 588 265 548 275 c 128,-1,39
 508 285 508 285 460 292 c 1,40,41
 418 198 418 198 394 103 c 128,-1,42
 370 8 370 8 370 -69 c 1,43,44
 324 -61 324 -61 287 -41.5 c 128,-1,45
 250 -22 250 -22 238 0 c 1,46,47
 240 56 240 56 266 134.5 c 128,-1,48
 292 213 292 213 338 302 c 1,49,50
 297 302 297 302 265.5 300 c 128,-1,51
 234 298 234 298 203 294 c 1,52,53
 203 296 203 296 202.5 296 c 128,-1,54
 202 296 202 296 202 298 c 0,55,56
 202 305 202 305 206 315 c 128,-1,57
 210 325 210 325 215.5 334.5 c 128,-1,58
 221 344 221 344 228 352.5 c 128,-1,59
 235 361 235 361 241 364 c 1,0,1
EndSplineSet
EndChar

StartChar: eight
Encoding: 56 56 194
Width: 569
Flags: W
LayerCount: 2
Fore
SplineSet
584 207 m 0,0,1
 584 151 584 151 560.5 105 c 128,-1,2
 537 59 537 59 499.5 25.5 c 128,-1,3
 462 -8 462 -8 415 -26.5 c 128,-1,4
 368 -45 368 -45 322 -45 c 0,5,6
 278 -45 278 -45 239 -36 c 128,-1,7
 200 -27 200 -27 170.5 -7 c 128,-1,8
 141 13 141 13 124 46.5 c 128,-1,9
 107 80 107 80 107 129 c 0,10,11
 107 174 107 174 123.5 211 c 128,-1,12
 140 248 140 248 169.5 279 c 128,-1,13
 199 310 199 310 239.5 335.5 c 128,-1,14
 280 361 280 361 328 382 c 1,15,16
 293 414 293 414 267.5 451.5 c 128,-1,17
 242 489 242 489 242 539 c 0,18,19
 242 581 242 581 263.5 616.5 c 128,-1,20
 285 652 285 652 318.5 678 c 128,-1,21
 352 704 352 704 394 720.5 c 128,-1,22
 436 737 436 737 477 742 c 1,23,24
 552 718 552 718 599.5 680 c 128,-1,25
 647 642 647 642 647 594 c 0,26,27
 647 568 647 568 632 542.5 c 128,-1,28
 617 517 617 517 591.5 493.5 c 128,-1,29
 566 470 566 470 533.5 449.5 c 128,-1,30
 501 429 501 429 467 413 c 1,31,32
 488 392 488 392 509 370.5 c 128,-1,33
 530 349 530 349 546.5 324 c 128,-1,34
 563 299 563 299 573.5 270.5 c 128,-1,35
 584 242 584 242 584 207 c 0,0,1
212 108 m 0,36,37
 212 80 212 80 220 59.5 c 128,-1,38
 228 39 228 39 241.5 25.5 c 128,-1,39
 255 12 255 12 272.5 5.5 c 128,-1,40
 290 -1 290 -1 308 -1 c 0,41,42
 333 -1 333 -1 359 11.5 c 128,-1,43
 385 24 385 24 406 48 c 128,-1,44
 427 72 427 72 440 107 c 128,-1,45
 453 142 453 142 453 187 c 0,46,47
 453 235 453 235 430 270.5 c 128,-1,48
 407 306 407 306 375 337 c 1,49,50
 330 311 330 311 298.5 282 c 128,-1,51
 267 253 267 253 248 223.5 c 128,-1,52
 229 194 229 194 220.5 164.5 c 128,-1,53
 212 135 212 135 212 108 c 0,36,37
557 617 m 0,54,55
 557 649 557 649 541.5 668 c 128,-1,56
 526 687 526 687 503 691 c 1,57,58
 482 687 482 687 459 675.5 c 128,-1,59
 436 664 436 664 416.5 647 c 128,-1,60
 397 630 397 630 384.5 609.5 c 128,-1,61
 372 589 372 589 372 568 c 0,62,63
 372 533 372 533 388 505 c 128,-1,64
 404 477 404 477 428 451 c 1,65,66
 447 463 447 463 469.5 483 c 128,-1,67
 492 503 492 503 511.5 526 c 128,-1,68
 531 549 531 549 544 572.5 c 128,-1,69
 557 596 557 596 557 617 c 0,54,55
EndSplineSet
EndChar

StartChar: nine
Encoding: 57 57 267
Width: 554
Flags: W
LayerCount: 2
Fore
SplineSet
231 -60 m 1,0,1
 217 -56 217 -56 198 -47 c 128,-1,2
 179 -38 179 -38 161 -27 c 128,-1,3
 143 -16 143 -16 128.5 -3.5 c 128,-1,4
 114 9 114 9 111 19 c 1,5,6
 146 23 146 23 196.5 54 c 128,-1,7
 247 85 247 85 301 132.5 c 128,-1,8
 355 180 355 180 406 240.5 c 128,-1,9
 457 301 457 301 492 365 c 1,10,11
 470 342 470 342 443.5 319 c 128,-1,12
 417 296 417 296 389.5 277 c 128,-1,13
 362 258 362 258 335 246 c 128,-1,14
 308 234 308 234 285 233 c 1,15,16
 264 244 264 244 244 263 c 128,-1,17
 224 282 224 282 208 304.5 c 128,-1,18
 192 327 192 327 182 351.5 c 128,-1,19
 172 376 172 376 172 399 c 0,20,21
 172 429 172 429 189 465 c 128,-1,22
 206 501 206 501 233.5 537.5 c 128,-1,23
 261 574 261 574 296 608 c 128,-1,24
 331 642 331 642 368 668.5 c 128,-1,25
 405 695 405 695 440 711 c 128,-1,26
 475 727 475 727 503 727 c 1,27,28
 581 711 581 711 628 665.5 c 128,-1,29
 675 620 675 620 675 550 c 0,30,31
 675 510 675 510 655.5 453.5 c 128,-1,32
 636 397 636 397 602.5 334.5 c 128,-1,33
 569 272 569 272 524.5 208.5 c 128,-1,34
 480 145 480 145 431 90.5 c 128,-1,35
 382 36 382 36 330.5 -4 c 128,-1,36
 279 -44 279 -44 231 -60 c 1,0,1
292 290 m 1,37,38
 341 300 341 300 391.5 332.5 c 128,-1,39
 442 365 442 365 482 408 c 128,-1,40
 522 451 522 451 547.5 499 c 128,-1,41
 573 547 573 547 573 589 c 0,42,43
 573 603 573 603 565.5 618.5 c 128,-1,44
 558 634 558 634 546 648 c 128,-1,45
 534 662 534 662 518.5 672.5 c 128,-1,46
 503 683 503 683 487 688 c 1,47,48
 463 675 463 675 437 653.5 c 128,-1,49
 411 632 411 632 386.5 605 c 128,-1,50
 362 578 362 578 340.5 547 c 128,-1,51
 319 516 319 516 302.5 485 c 128,-1,52
 286 454 286 454 276.5 424 c 128,-1,53
 267 394 267 394 267 369 c 0,54,55
 267 346 267 346 272.5 325 c 128,-1,56
 278 304 278 304 292 290 c 1,37,38
EndSplineSet
EndChar

StartChar: colon
Encoding: 58 58 174
Width: 285
Flags: W
LayerCount: 2
Fore
SplineSet
143 -38 m 1,0,1
 127 -36 127 -36 109.5 -24.5 c 128,-1,2
 92 -13 92 -13 87 1 c 1,3,4
 87 13 87 13 90.5 32 c 128,-1,5
 94 51 94 51 99 70.5 c 128,-1,6
 104 90 104 90 109 107.5 c 128,-1,7
 114 125 114 125 116 134 c 1,8,9
 128 134 128 134 146.5 128 c 128,-1,10
 165 122 165 122 184.5 111.5 c 128,-1,11
 204 101 204 101 221.5 87.5 c 128,-1,12
 239 74 239 74 248 60 c 1,13,14
 239 40 239 40 225 22 c 128,-1,15
 211 4 211 4 195.5 -9.5 c 128,-1,16
 180 -23 180 -23 166 -30.5 c 128,-1,17
 152 -38 152 -38 143 -38 c 1,0,1
243 280 m 1,18,19
 227 282 227 282 209.5 293.5 c 128,-1,20
 192 305 192 305 187 319 c 1,21,22
 187 331 187 331 190.5 350 c 128,-1,23
 194 369 194 369 199 388.5 c 128,-1,24
 204 408 204 408 209 425.5 c 128,-1,25
 214 443 214 443 216 452 c 1,26,27
 228 452 228 452 246.5 446 c 128,-1,28
 265 440 265 440 284.5 429.5 c 128,-1,29
 304 419 304 419 321.5 405.5 c 128,-1,30
 339 392 339 392 348 378 c 1,31,32
 339 358 339 358 325 340 c 128,-1,33
 311 322 311 322 295.5 308.5 c 128,-1,34
 280 295 280 295 266 287.5 c 128,-1,35
 252 280 252 280 243 280 c 1,18,19
EndSplineSet
EndChar

StartChar: semicolon
Encoding: 59 59 313
Width: 284
Flags: W
LayerCount: 2
Fore
SplineSet
39 -169 m 1,0,1
 33 -164 33 -164 28 -152.5 c 128,-1,2
 23 -141 23 -141 23 -131 c 1,3,4
 73 -88 73 -88 94.5 -49 c 128,-1,5
 116 -10 116 -10 116 36 c 0,6,7
 116 66 116 66 113.5 87.5 c 128,-1,8
 111 109 111 109 104 137 c 1,9,10
 129 135 129 135 153.5 128.5 c 128,-1,11
 178 122 178 122 197.5 112.5 c 128,-1,12
 217 103 217 103 230 90.5 c 128,-1,13
 243 78 243 78 246 66 c 1,14,15
 199 -100 199 -100 39 -169 c 1,0,1
239 280 m 1,16,17
 223 282 223 282 205.5 293.5 c 128,-1,18
 188 305 188 305 183 319 c 1,19,20
 183 331 183 331 186.5 350 c 128,-1,21
 190 369 190 369 195 388.5 c 128,-1,22
 200 408 200 408 205 425.5 c 128,-1,23
 210 443 210 443 212 452 c 1,24,25
 224 452 224 452 242.5 446 c 128,-1,26
 261 440 261 440 280.5 429.5 c 128,-1,27
 300 419 300 419 317.5 405.5 c 128,-1,28
 335 392 335 392 344 378 c 1,29,30
 335 358 335 358 321 340 c 128,-1,31
 307 322 307 322 291.5 308.5 c 128,-1,32
 276 295 276 295 262 287.5 c 128,-1,33
 248 280 248 280 239 280 c 1,16,17
EndSplineSet
EndChar

StartChar: less
Encoding: 60 60 253
Width: 516
Flags: W
LayerCount: 2
Fore
SplineSet
533 191 m 1,0,1
 472 177 472 177 419 167.5 c 128,-1,2
 366 158 366 158 309 158 c 0,3,4
 285 158 285 158 257 160.5 c 128,-1,5
 229 163 229 163 202 172 c 128,-1,6
 175 181 175 181 152 197 c 128,-1,7
 129 213 129 213 114 240 c 1,8,9
 118 254 118 254 132.5 270 c 128,-1,10
 147 286 147 286 166 303.5 c 128,-1,11
 185 321 185 321 206.5 338 c 128,-1,12
 228 355 228 355 247 372 c 0,13,14
 275 397 275 397 297.5 421.5 c 128,-1,15
 320 446 320 446 341.5 473.5 c 128,-1,16
 363 501 363 501 386 535.5 c 128,-1,17
 409 570 409 570 438 616 c 1,18,19
 462 616 462 616 483 608.5 c 128,-1,20
 504 601 504 601 519.5 589.5 c 128,-1,21
 535 578 535 578 544 564 c 128,-1,22
 553 550 553 550 553 536 c 0,23,24
 553 525 553 525 551 514 c 128,-1,25
 549 503 549 503 547 493 c 1,26,27
 541 498 541 498 533 498 c 0,28,29
 523 498 523 498 502 483 c 128,-1,30
 481 468 481 468 454 444.5 c 128,-1,31
 427 421 427 421 396.5 391 c 128,-1,32
 366 361 366 361 336 331.5 c 128,-1,33
 306 302 306 302 280 276 c 128,-1,34
 254 250 254 250 236 233 c 1,35,36
 243 228 243 228 252 224 c 128,-1,37
 261 220 261 220 275 217 c 128,-1,38
 289 214 289 214 310 212.5 c 128,-1,39
 331 211 331 211 362 211 c 0,40,41
 382 211 382 211 407.5 213 c 128,-1,42
 433 215 433 215 458 218 c 128,-1,43
 483 221 483 221 505.5 224 c 128,-1,44
 528 227 528 227 543 230 c 1,45,46
 544 227 544 227 544 222 c 0,47,48
 544 214 544 214 540.5 205 c 128,-1,49
 537 196 537 196 533 191 c 1,0,1
EndSplineSet
EndChar

StartChar: equal
Encoding: 61 61 201
Width: 570
Flags: W
LayerCount: 2
Fore
SplineSet
196 93 m 0,0,1
 162 93 162 93 144 110.5 c 128,-1,2
 126 128 126 128 126 154 c 0,3,4
 126 163 126 163 127.5 172.5 c 128,-1,5
 129 182 129 182 134 192 c 1,6,7
 151 190 151 190 165.5 188 c 128,-1,8
 180 186 180 186 204 186 c 0,9,10
 255 186 255 186 300 189 c 128,-1,11
 345 192 345 192 381 195 c 128,-1,12
 417 198 417 198 443 201 c 128,-1,13
 469 204 469 204 483 204 c 0,14,15
 502 204 502 204 516 181 c 128,-1,16
 530 158 530 158 537 117 c 1,17,18
 512 119 512 119 496.5 120 c 128,-1,19
 481 121 481 121 469 121 c 0,20,21
 426 121 426 121 389 116.5 c 128,-1,22
 352 112 352 112 319 107 c 128,-1,23
 286 102 286 102 256 97.5 c 128,-1,24
 226 93 226 93 196 93 c 0,0,1
258 288 m 0,25,26
 227 288 227 288 208.5 305.5 c 128,-1,27
 190 323 190 323 190 352 c 0,28,29
 190 359 190 359 192 369 c 128,-1,30
 194 379 194 379 196 385 c 1,31,32
 213 383 213 383 228 381 c 128,-1,33
 243 379 243 379 267 379 c 0,34,35
 318 379 318 379 362.5 382 c 128,-1,36
 407 385 407 385 443 389 c 128,-1,37
 479 393 479 393 505 396 c 128,-1,38
 531 399 531 399 545 399 c 0,39,40
 564 399 564 399 578.5 376.5 c 128,-1,41
 593 354 593 354 600 312 c 1,42,43
 575 315 575 315 559 316 c 128,-1,44
 543 317 543 317 531 317 c 0,45,46
 488 317 488 317 451 312.5 c 128,-1,47
 414 308 414 308 381 302.5 c 128,-1,48
 348 297 348 297 318 292.5 c 128,-1,49
 288 288 288 288 258 288 c 0,25,26
EndSplineSet
EndChar

StartChar: greater
Encoding: 62 62 222
Width: 623
Flags: W
LayerCount: 2
Fore
SplineSet
318 550 m 1,0,1
 361 538 361 538 399 519.5 c 128,-1,2
 437 501 437 501 470.5 478.5 c 128,-1,3
 504 456 504 456 534.5 429.5 c 128,-1,4
 565 403 565 403 594 375 c 0,5,6
 616 353 616 353 636 318.5 c 128,-1,7
 656 284 656 284 656 244 c 0,8,9
 656 229 656 229 653 216 c 1,10,11
 640 208 640 208 619.5 205.5 c 128,-1,12
 599 203 599 203 574 203 c 0,13,14
 545 203 545 203 514 204.5 c 128,-1,15
 483 206 483 206 456 206 c 0,16,17
 420 206 420 206 388.5 203 c 128,-1,18
 357 200 357 200 323 193.5 c 128,-1,19
 289 187 289 187 250.5 177 c 128,-1,20
 212 167 212 167 161 153 c 1,21,22
 128 199 128 199 128 232 c 0,23,24
 128 262 128 262 155.5 276.5 c 128,-1,25
 183 291 183 291 229 293 c 0,26,27
 262 294 262 294 309.5 295.5 c 128,-1,28
 357 297 357 297 405.5 298.5 c 128,-1,29
 454 300 454 300 497.5 301 c 128,-1,30
 541 302 541 302 567 302 c 1,31,32
 565 311 565 311 561.5 319 c 128,-1,33
 558 327 558 327 549.5 337.5 c 128,-1,34
 541 348 541 348 527.5 362.5 c 128,-1,35
 514 377 514 377 493 398 c 0,36,37
 473 417 473 417 448.5 436.5 c 128,-1,38
 424 456 424 456 397 473 c 128,-1,39
 370 490 370 490 341 504 c 128,-1,40
 312 518 312 518 284 527 c 1,41,42
 287 535 287 535 298.5 542 c 128,-1,43
 310 549 310 549 318 550 c 1,0,1
EndSplineSet
EndChar

StartChar: question
Encoding: 63 63 292
Width: 480
Flags: W
LayerCount: 2
Fore
SplineSet
413 777 m 1,0,1
 452 774 452 774 488.5 757 c 128,-1,2
 525 740 525 740 553 714 c 128,-1,3
 581 688 581 688 598 654 c 128,-1,4
 615 620 615 620 615 583 c 0,5,6
 615 545 615 545 601.5 512 c 128,-1,7
 588 479 588 479 562 445 c 128,-1,8
 536 411 536 411 498 374.5 c 128,-1,9
 460 338 460 338 412 292 c 0,10,11
 365 248 365 248 341 202.5 c 128,-1,12
 317 157 317 157 317 120 c 0,13,14
 317 115 317 115 317.5 110 c 128,-1,15
 318 105 318 105 319 99 c 1,16,17
 302 100 302 100 283 107 c 128,-1,18
 264 114 264 114 246.5 125.5 c 128,-1,19
 229 137 229 137 215.5 150.5 c 128,-1,20
 202 164 202 164 196 178 c 1,21,22
 196 201 196 201 207 233.5 c 128,-1,23
 218 266 218 266 240.5 301.5 c 128,-1,24
 263 337 263 337 298.5 373 c 128,-1,25
 334 409 334 409 383 438 c 0,26,27
 462 485 462 485 501 529 c 128,-1,28
 540 573 540 573 540 608 c 0,29,30
 540 624 540 624 533.5 639 c 128,-1,31
 527 654 527 654 517 666 c 128,-1,32
 507 678 507 678 493.5 685.5 c 128,-1,33
 480 693 480 693 467 693 c 0,34,35
 452 693 452 693 433.5 678 c 128,-1,36
 415 663 415 663 399 641 c 128,-1,37
 383 619 383 619 372 593 c 128,-1,38
 361 567 361 567 361 546 c 0,39,40
 361 532 361 532 364 528 c 1,41,42
 356 526 356 526 351 526 c 128,-1,43
 346 526 346 526 341 526 c 0,44,45
 321 526 321 526 301.5 530 c 128,-1,46
 282 534 282 534 265.5 540 c 128,-1,47
 249 546 249 546 237.5 554.5 c 128,-1,48
 226 563 226 563 223 572 c 1,49,50
 230 605 230 605 251 640 c 128,-1,51
 272 675 272 675 299 704.5 c 128,-1,52
 326 734 326 734 356 754 c 128,-1,53
 386 774 386 774 413 777 c 1,0,1
192 -77 m 0,54,55
 184 -77 184 -77 173.5 -73.5 c 128,-1,56
 163 -70 163 -70 153.5 -63 c 128,-1,57
 144 -56 144 -56 137 -45 c 128,-1,58
 130 -34 130 -34 130 -19 c 0,59,60
 130 -10 130 -10 133 6.5 c 128,-1,61
 136 23 136 23 142.5 39.5 c 128,-1,62
 149 56 149 56 159 68.5 c 128,-1,63
 169 81 169 81 184 81 c 0,64,65
 193 81 193 81 206.5 75.5 c 128,-1,66
 220 70 220 70 233 61.5 c 128,-1,67
 246 53 246 53 258 41.5 c 128,-1,68
 270 30 270 30 276 18 c 1,69,70
 265 6 265 6 255.5 -10.5 c 128,-1,71
 246 -27 246 -27 237 -42 c 128,-1,72
 228 -57 228 -57 217 -67 c 128,-1,73
 206 -77 206 -77 192 -77 c 0,54,55
EndSplineSet
EndChar

StartChar: at
Encoding: 64 64 150
Width: 655
Flags: W
LayerCount: 2
Fore
SplineSet
277 472 m 0,0,1
 323 510 323 510 373.5 531 c 128,-1,2
 424 552 424 552 475 552 c 0,3,4
 521 552 521 552 562.5 535 c 128,-1,5
 604 518 604 518 635.5 490.5 c 128,-1,6
 667 463 667 463 686 428.5 c 128,-1,7
 705 394 705 394 705 360 c 0,8,9
 705 333 705 333 693.5 302.5 c 128,-1,10
 682 272 682 272 663 241.5 c 128,-1,11
 644 211 644 211 619 183 c 128,-1,12
 594 155 594 155 567.5 133.5 c 128,-1,13
 541 112 541 112 514 99.5 c 128,-1,14
 487 87 487 87 465 87 c 0,15,16
 444 87 444 87 423 97.5 c 128,-1,17
 402 108 402 108 385 124.5 c 128,-1,18
 368 141 368 141 357.5 161.5 c 128,-1,19
 347 182 347 182 347 203 c 0,20,21
 347 227 347 227 356 252.5 c 128,-1,22
 365 278 365 278 383 300.5 c 128,-1,23
 401 323 401 323 428 341.5 c 128,-1,24
 455 360 455 360 491 371 c 1,25,26
 509 364 509 364 525.5 352 c 128,-1,27
 542 340 542 340 555 325 c 128,-1,28
 568 310 568 310 576 293.5 c 128,-1,29
 584 277 584 277 585 261 c 1,30,31
 566 269 566 269 545 269 c 256,32,33
 524 269 524 269 505.5 260 c 128,-1,34
 487 251 487 251 473.5 237 c 128,-1,35
 460 223 460 223 452 204.5 c 128,-1,36
 444 186 444 186 444 167 c 0,37,38
 444 139 444 139 472 139 c 0,39,40
 498 139 498 139 532 164 c 128,-1,41
 566 189 566 189 596 226 c 128,-1,42
 626 263 626 263 647 303.5 c 128,-1,43
 668 344 668 344 668 376 c 0,44,45
 668 397 668 397 658.5 415 c 128,-1,46
 649 433 649 433 632.5 446.5 c 128,-1,47
 616 460 616 460 594 467.5 c 128,-1,48
 572 475 572 475 547 475 c 0,49,50
 495 475 495 475 441 443.5 c 128,-1,51
 387 412 387 412 342.5 362.5 c 128,-1,52
 298 313 298 313 270 252 c 128,-1,53
 242 191 242 191 242 132 c 0,54,55
 242 95 242 95 253 63 c 128,-1,56
 264 31 264 31 283.5 7 c 128,-1,57
 303 -17 303 -17 329.5 -31 c 128,-1,58
 356 -45 356 -45 387 -45 c 0,59,60
 431 -45 431 -45 484.5 -13 c 128,-1,61
 538 19 538 19 616 91 c 1,62,63
 621 82 621 82 622.5 78 c 128,-1,64
 624 74 624 74 624 69 c 1,65,66
 594 39 594 39 563 10 c 128,-1,67
 532 -19 532 -19 499.5 -41.5 c 128,-1,68
 467 -64 467 -64 432.5 -77.5 c 128,-1,69
 398 -91 398 -91 362 -91 c 0,70,71
 312 -91 312 -91 268.5 -65 c 128,-1,72
 225 -39 225 -39 192.5 0.5 c 128,-1,73
 160 40 160 40 141 87.5 c 128,-1,74
 122 135 122 135 122 178 c 0,75,76
 122 207 122 207 131.5 244.5 c 128,-1,77
 141 282 141 282 160 321.5 c 128,-1,78
 179 361 179 361 208.5 400 c 128,-1,79
 238 439 238 439 277 472 c 0,0,1
EndSplineSet
EndChar

StartChar: B
Encoding: 66 66 14
Width: 719
Flags: W
LayerCount: 2
Fore
SplineSet
790 551 m 0,0,1
 790 489 790 489 756 440.5 c 128,-1,2
 722 392 722 392 663 360 c 1,3,4
 701 334 701 334 723.5 296.5 c 128,-1,5
 746 259 746 259 746 214 c 0,6,7
 746 160 746 160 713.5 107.5 c 128,-1,8
 681 55 681 55 627 14.5 c 128,-1,9
 573 -26 573 -26 504 -51 c 128,-1,10
 435 -76 435 -76 363 -76 c 0,11,12
 285 -76 285 -76 226.5 -46.5 c 128,-1,13
 168 -17 168 -17 135 37 c 1,14,15
 145 67 145 67 161.5 111.5 c 128,-1,16
 178 156 178 156 198 205.5 c 128,-1,17
 218 255 218 255 238.5 304 c 128,-1,18
 259 353 259 353 277 392 c 0,19,20
 315 477 315 477 345 533 c 128,-1,21
 375 589 375 589 400 622 c 1,22,23
 345 605 345 605 300 583.5 c 128,-1,24
 255 562 255 562 234 542 c 1,25,26
 225 548 225 548 215.5 560 c 128,-1,27
 206 572 206 572 197.5 586.5 c 128,-1,28
 189 601 189 601 183.5 616 c 128,-1,29
 178 631 178 631 177 643 c 1,30,31
 203 661 203 661 244.5 677.5 c 128,-1,32
 286 694 286 694 335 706 c 128,-1,33
 384 718 384 718 435.5 725 c 128,-1,34
 487 732 487 732 534 732 c 0,35,36
 654 732 654 732 722 684 c 128,-1,37
 790 636 790 636 790 551 c 0,0,1
409 312 m 1,38,39
 390 321 390 321 374 339 c 1,40,41
 351 288 351 288 330.5 239 c 128,-1,42
 310 190 310 190 294 148 c 128,-1,43
 278 106 278 106 268 75 c 128,-1,44
 258 44 258 44 257 30 c 1,45,46
 271 22 271 22 290.5 18 c 128,-1,47
 310 14 310 14 339 14 c 0,48,49
 407 14 407 14 469 33 c 128,-1,50
 531 52 531 52 578 84.5 c 128,-1,51
 625 117 625 117 653 159 c 128,-1,52
 681 201 681 201 681 247 c 0,53,54
 681 313 681 313 624 342 c 1,55,56
 546 310 546 310 448 310 c 0,57,58
 434 310 434 310 426.5 310 c 128,-1,59
 419 310 419 310 409 312 c 1,38,39
603 659 m 0,60,61
 582 659 582 659 558.5 656.5 c 128,-1,62
 535 654 535 654 509 649 c 1,63,64
 513 645 513 645 515.5 640.5 c 128,-1,65
 518 636 518 636 520 631 c 1,66,67
 511 619 511 619 498 596 c 128,-1,68
 485 573 485 573 469 542.5 c 128,-1,69
 453 512 453 512 435.5 475 c 128,-1,70
 418 438 418 438 400 399 c 1,71,72
 417 403 417 403 441.5 405.5 c 128,-1,73
 466 408 466 408 490 408 c 0,74,75
 503 408 503 408 515.5 407 c 128,-1,76
 528 406 528 406 540 404 c 1,77,78
 588 412 588 412 626.5 427.5 c 128,-1,79
 665 443 665 443 693 463.5 c 128,-1,80
 721 484 721 484 736 509 c 128,-1,81
 751 534 751 534 751 562 c 0,82,83
 751 610 751 610 713 634.5 c 128,-1,84
 675 659 675 659 603 659 c 0,60,61
EndSplineSet
EndChar

StartChar: D
Encoding: 68 68 22
Width: 778
Flags: W
LayerCount: 2
Fore
SplineSet
168 52 m 1,0,1
 183 85 183 85 204 137 c 128,-1,2
 225 189 225 189 248 249.5 c 128,-1,3
 271 310 271 310 295 373.5 c 128,-1,4
 319 437 319 437 340 494 c 128,-1,5
 361 551 361 551 376.5 596 c 128,-1,6
 392 641 392 641 399 665 c 1,7,8
 336 639 336 639 291 586 c 128,-1,9
 246 533 246 533 223 453 c 1,10,11
 200 461 200 461 181 481.5 c 128,-1,12
 162 502 162 502 156 533 c 1,13,14
 166 579 166 579 193.5 617 c 128,-1,15
 221 655 221 655 263 682 c 128,-1,16
 305 709 305 709 360 723.5 c 128,-1,17
 415 738 415 738 478 738 c 0,18,19
 558 738 558 738 625 714.5 c 128,-1,20
 692 691 692 691 740 649 c 128,-1,21
 788 607 788 607 815 548 c 128,-1,22
 842 489 842 489 842 417 c 0,23,24
 842 319 842 319 806 230 c 128,-1,25
 770 141 770 141 708.5 73 c 128,-1,26
 647 5 647 5 566 -35.5 c 128,-1,27
 485 -76 485 -76 396 -76 c 0,28,29
 314 -76 314 -76 255.5 -43.5 c 128,-1,30
 197 -11 197 -11 168 52 c 1,0,1
521 688 m 0,31,32
 471 688 471 688 426 674 c 1,33,34
 470 658 470 658 499 640.5 c 128,-1,35
 528 623 528 623 539 613 c 1,36,37
 531 602 531 602 515.5 574 c 128,-1,38
 500 546 500 546 479.5 506 c 128,-1,39
 459 466 459 466 436 418.5 c 128,-1,40
 413 371 413 371 391 321 c 0,41,42
 334 194 334 194 308.5 121 c 128,-1,43
 283 48 283 48 283 20 c 1,44,45
 297 15 297 15 317 13 c 128,-1,46
 337 11 337 11 360 11 c 0,47,48
 441 11 441 11 513.5 48.5 c 128,-1,49
 586 86 586 86 640.5 149 c 128,-1,50
 695 212 695 212 726.5 295.5 c 128,-1,51
 758 379 758 379 758 471 c 0,52,53
 758 574 758 574 694 631 c 128,-1,54
 630 688 630 688 521 688 c 0,31,32
EndSplineSet
EndChar

StartChar: F
Encoding: 70 70 38
Width: 551
Flags: W
LayerCount: 2
Fore
SplineSet
520 417 m 0,0,1
 552 417 552 417 570.5 399 c 128,-1,2
 589 381 589 381 589 349 c 0,3,4
 589 341 589 341 588 332.5 c 128,-1,5
 587 324 587 324 584 318 c 1,6,7
 571 320 571 320 555 321.5 c 128,-1,8
 539 323 539 323 517 323 c 0,9,10
 472 323 472 323 427 315 c 128,-1,11
 382 307 382 307 341 302 c 1,12,13
 296 196 296 196 267 103 c 128,-1,14
 238 10 238 10 222 -81 c 1,15,16
 188 -73 188 -73 162 -52 c 128,-1,17
 136 -31 136 -31 113 7 c 1,18,19
 120 23 120 23 130 45.5 c 128,-1,20
 140 68 140 68 154 102.5 c 128,-1,21
 168 137 168 137 187.5 186.5 c 128,-1,22
 207 236 207 236 234 305 c 1,23,24
 192 319 192 319 179 354 c 1,25,26
 184 359 184 359 207 365.5 c 128,-1,27
 230 372 230 372 263 380 c 1,28,29
 278 419 278 419 289 449.5 c 128,-1,30
 300 480 300 480 309 507.5 c 128,-1,31
 318 535 318 535 325.5 561.5 c 128,-1,32
 333 588 333 588 339 618 c 1,33,-1
 334 618 l 2,34,35
 296 618 296 618 272.5 636 c 128,-1,36
 249 654 249 654 249 683 c 0,37,38
 249 691 249 691 251.5 702 c 128,-1,39
 254 713 254 713 258 721 c 1,40,41
 277 718 277 718 295.5 717 c 128,-1,42
 314 716 314 716 344 716 c 0,43,44
 407 716 407 716 462 719.5 c 128,-1,45
 517 723 517 723 561.5 727 c 128,-1,46
 606 731 606 731 638 734.5 c 128,-1,47
 670 738 670 738 687 738 c 0,48,49
 710 738 710 738 728 714 c 128,-1,50
 746 690 746 690 756 646 c 1,51,52
 724 649 724 649 704.5 650 c 128,-1,53
 685 651 685 651 670 651 c 0,54,55
 619 651 619 651 576.5 646.5 c 128,-1,56
 534 642 534 642 496 636 c 1,57,58
 490 627 490 627 482.5 613 c 128,-1,59
 475 599 475 599 463 573.5 c 128,-1,60
 451 548 451 548 432.5 507 c 128,-1,61
 414 466 414 466 386 403 c 1,62,63
 425 409 425 409 460.5 413 c 128,-1,64
 496 417 496 417 520 417 c 0,0,1
EndSplineSet
EndChar

StartChar: G
Encoding: 71 71 39
Width: 650
Flags: W
LayerCount: 2
Fore
SplineSet
655 318 m 0,0,1
 681 318 681 318 696 300 c 128,-1,2
 711 282 711 282 711 250 c 0,3,4
 711 242 711 242 710 233.5 c 128,-1,5
 709 225 709 225 707 219 c 1,6,7
 686 224 686 224 661 225 c 1,8,9
 655 181 655 181 629 132.5 c 128,-1,10
 603 84 603 84 566 41.5 c 128,-1,11
 529 -1 529 -1 485 -33 c 128,-1,12
 441 -65 441 -65 398 -76 c 1,13,14
 264 -73 264 -73 202.5 -6.5 c 128,-1,15
 141 60 141 60 141 201 c 0,16,17
 141 304 141 304 179 400.5 c 128,-1,18
 217 497 217 497 280 572 c 128,-1,19
 343 647 343 647 424.5 692.5 c 128,-1,20
 506 738 506 738 594 738 c 0,21,22
 663 738 663 738 701.5 709 c 128,-1,23
 740 680 740 680 740 627 c 0,24,25
 740 592 740 592 723.5 562 c 128,-1,26
 707 532 707 532 669 497 c 1,27,28
 646 504 646 504 629 521.5 c 128,-1,29
 612 539 612 539 608 562 c 1,30,31
 642 587 642 587 656 608 c 128,-1,32
 670 629 670 629 670 658 c 0,33,34
 670 704 670 704 615 704 c 0,35,36
 570 704 570 704 518.5 670.5 c 128,-1,37
 467 637 467 637 415 574 c 0,38,39
 341 485 341 485 307 390.5 c 128,-1,40
 273 296 273 296 273 178 c 0,41,42
 273 134 273 134 282 98 c 128,-1,43
 291 62 291 62 306 35 c 128,-1,44
 321 8 321 8 341.5 -8 c 128,-1,45
 362 -24 362 -24 386 -26 c 1,46,47
 418 -19 418 -19 450 6.5 c 128,-1,48
 482 32 482 32 508.5 66.5 c 128,-1,49
 535 101 535 101 553.5 140.5 c 128,-1,50
 572 180 572 180 576 216 c 1,51,52
 548 210 548 210 522.5 204.5 c 128,-1,53
 497 199 497 199 474 199 c 0,54,55
 444 199 444 199 421.5 214 c 128,-1,56
 399 229 399 229 391 255 c 1,57,58
 409 265 409 265 443.5 276 c 128,-1,59
 478 287 478 287 517 296.5 c 128,-1,60
 556 306 556 306 593.5 312 c 128,-1,61
 631 318 631 318 655 318 c 0,0,1
EndSplineSet
EndChar

StartChar: H
Encoding: 72 72 44
Width: 675
Flags: W
LayerCount: 2
Fore
SplineSet
491 58 m 0,0,1
 491 100 491 100 505 166 c 128,-1,2
 519 232 519 232 542 307 c 1,3,4
 476 302 476 302 409.5 294 c 128,-1,5
 343 286 343 286 294 285 c 1,6,7
 249 180 249 180 222.5 91.5 c 128,-1,8
 196 3 196 3 181 -81 c 1,9,10
 143 -72 143 -72 118 -49.5 c 128,-1,11
 93 -27 93 -27 72 7 c 1,12,13
 80 23 80 23 90.5 48 c 128,-1,14
 101 73 101 73 115.5 108.5 c 128,-1,15
 130 144 130 144 148.5 191.5 c 128,-1,16
 167 239 167 239 191 302 c 1,17,18
 158 316 158 316 147 341 c 1,19,20
 152 345 152 345 169.5 349.5 c 128,-1,21
 187 354 187 354 213 359 c 1,22,-1
 226 391 l 2,23,24
 247 445 247 445 260.5 482 c 128,-1,25
 274 519 274 519 283.5 554.5 c 128,-1,26
 293 590 293 590 301.5 633 c 128,-1,27
 310 676 310 676 322 742 c 1,28,29
 364 734 364 734 398.5 705 c 128,-1,30
 433 676 433 676 458 635 c 1,31,32
 449 623 449 623 436 599 c 128,-1,33
 423 575 423 575 407.5 541.5 c 128,-1,34
 392 508 392 508 374 466.5 c 128,-1,35
 356 425 356 425 335 379 c 1,36,37
 397 387 397 387 460.5 394 c 128,-1,38
 524 401 524 401 573 404 c 1,39,40
 591 456 591 456 610.5 505.5 c 128,-1,41
 630 555 630 555 649 596 c 128,-1,42
 668 637 668 637 685.5 668 c 128,-1,43
 703 699 703 699 717 714 c 1,44,45
 727 713 727 713 743.5 706.5 c 128,-1,46
 760 700 760 700 777 691 c 128,-1,47
 794 682 794 682 808 671.5 c 128,-1,48
 822 661 822 661 827 652 c 1,49,50
 809 635 809 635 791 608 c 128,-1,51
 773 581 773 581 755.5 546 c 128,-1,52
 738 511 738 511 721 470 c 128,-1,53
 704 429 704 429 689 385 c 1,54,55
 709 367 709 367 709 340 c 0,56,57
 709 321 709 321 701 305 c 1,58,59
 692 307 692 307 683 307.5 c 128,-1,60
 674 308 674 308 664 309 c 1,61,62
 647 255 647 255 633 202 c 128,-1,63
 619 149 619 149 609.5 101 c 128,-1,64
 600 53 600 53 594.5 13 c 128,-1,65
 589 -27 589 -27 589 -54 c 0,66,67
 589 -64 589 -64 589.5 -70 c 128,-1,68
 590 -76 590 -76 591 -80 c 1,69,70
 569 -79 569 -79 559 -72.5 c 128,-1,71
 549 -66 549 -66 544 -58.5 c 128,-1,72
 539 -51 539 -51 535 -43.5 c 128,-1,73
 531 -36 531 -36 522 -32 c 0,74,75
 515 -29 515 -29 509 -18 c 128,-1,76
 503 -7 503 -7 499 7 c 128,-1,77
 495 21 495 21 493 35 c 128,-1,78
 491 49 491 49 491 58 c 0,0,1
EndSplineSet
EndChar

StartChar: I
Encoding: 73 73 47
Width: 315
Flags: W
LayerCount: 2
Fore
SplineSet
131 57 m 0,0,1
 131 93 131 93 142.5 150.5 c 128,-1,2
 154 208 154 208 172.5 274.5 c 128,-1,3
 191 341 191 341 215 410.5 c 128,-1,4
 239 480 239 480 264 541 c 128,-1,5
 289 602 289 602 313 648 c 128,-1,6
 337 694 337 694 356 714 c 1,7,8
 366 713 366 713 382.5 706.5 c 128,-1,9
 399 700 399 700 416 691 c 128,-1,10
 433 682 433 682 447 671.5 c 128,-1,11
 461 661 461 661 465 652 c 1,12,13
 436 626 436 626 407.5 573.5 c 128,-1,14
 379 521 379 521 352.5 454 c 128,-1,15
 326 387 326 387 303 312.5 c 128,-1,16
 280 238 280 238 263 168 c 128,-1,17
 246 98 246 98 236.5 38 c 128,-1,18
 227 -22 227 -22 227 -59 c 0,19,20
 227 -76 227 -76 230 -80 c 1,21,22
 208 -79 208 -79 198 -72.5 c 128,-1,23
 188 -66 188 -66 182.5 -58.5 c 128,-1,24
 177 -51 177 -51 172.5 -43.5 c 128,-1,25
 168 -36 168 -36 159 -32 c 0,26,27
 152 -29 152 -29 147 -18 c 128,-1,28
 142 -7 142 -7 138.5 6.5 c 128,-1,29
 135 20 135 20 133 34 c 128,-1,30
 131 48 131 48 131 57 c 0,0,1
EndSplineSet
EndChar

StartChar: J
Encoding: 74 74 58
Width: 512
Flags: W
LayerCount: 2
Fore
SplineSet
476 739 m 1,0,1
 514 739 514 739 555 725 c 128,-1,2
 596 711 596 711 627 689 c 1,3,4
 617 638 617 638 608.5 597 c 128,-1,5
 600 556 600 556 593 522.5 c 128,-1,6
 586 489 586 489 579.5 461.5 c 128,-1,7
 573 434 573 434 567 410 c 0,8,9
 543 320 543 320 517.5 247.5 c 128,-1,10
 492 175 492 175 463.5 117 c 128,-1,11
 435 59 435 59 403.5 14 c 128,-1,12
 372 -31 372 -31 336 -65 c 0,13,14
 301 -98 301 -98 266 -119 c 128,-1,15
 231 -140 231 -140 201 -146 c 1,16,17
 161 -146 161 -146 127 -137 c 128,-1,18
 93 -128 93 -128 68.5 -112.5 c 128,-1,19
 44 -97 44 -97 30.5 -75.5 c 128,-1,20
 17 -54 17 -54 17 -28 c 0,21,22
 17 0 17 0 31 42.5 c 128,-1,23
 45 85 45 85 74 143 c 1,24,25
 86 142 86 142 102 137 c 128,-1,26
 118 132 118 132 134 125 c 128,-1,27
 150 118 150 118 163 109.5 c 128,-1,28
 176 101 176 101 182 93 c 1,29,30
 150 60 150 60 130 20.5 c 128,-1,31
 110 -19 110 -19 110 -48 c 0,32,33
 110 -65 110 -65 116.5 -78.5 c 128,-1,34
 123 -92 123 -92 139 -103 c 1,35,36
 200 -80 200 -80 258 -17.5 c 128,-1,37
 316 45 316 45 361 138 c 0,38,39
 388 193 388 193 410 264 c 128,-1,40
 432 335 432 335 447.5 406.5 c 128,-1,41
 463 478 463 478 471.5 543.5 c 128,-1,42
 480 609 480 609 480 654 c 0,43,44
 480 661 480 661 479.5 673.5 c 128,-1,45
 479 686 479 686 478.5 699.5 c 128,-1,46
 478 713 478 713 477 724 c 128,-1,47
 476 735 476 735 476 739 c 1,0,1
EndSplineSet
EndChar

StartChar: K
Encoding: 75 75 60
Width: 653
Flags: W
LayerCount: 2
Fore
SplineSet
334 317 m 1,0,1
 396 409 396 409 456.5 486.5 c 128,-1,2
 517 564 517 564 572 620 c 128,-1,3
 627 676 627 676 673 707 c 128,-1,4
 719 738 719 738 753 738 c 0,5,6
 766 738 766 738 781.5 728 c 128,-1,7
 797 718 797 718 810.5 702 c 128,-1,8
 824 686 824 686 833 667.5 c 128,-1,9
 842 649 842 649 842 632 c 1,10,11
 780 612 780 612 720.5 579.5 c 128,-1,12
 661 547 661 547 606.5 504.5 c 128,-1,13
 552 462 552 462 502.5 410 c 128,-1,14
 453 358 453 358 413 299 c 1,15,16
 429 258 429 258 452.5 211.5 c 128,-1,17
 476 165 476 165 504 121.5 c 128,-1,18
 532 78 532 78 564 41 c 128,-1,19
 596 4 596 4 629 -18 c 1,20,21
 624 -29 624 -29 612 -39 c 128,-1,22
 600 -49 600 -49 586 -57.5 c 128,-1,23
 572 -66 572 -66 556.5 -71 c 128,-1,24
 541 -76 541 -76 528 -76 c 0,25,26
 502 -76 502 -76 480 -51.5 c 128,-1,27
 458 -27 458 -27 435.5 22.5 c 128,-1,28
 413 72 413 72 388.5 145.5 c 128,-1,29
 364 219 364 219 334 317 c 1,0,1
183 -81 m 1,30,31
 145 -72 145 -72 120 -49.5 c 128,-1,32
 95 -27 95 -27 74 7 c 1,33,34
 83 26 83 26 95.5 57 c 128,-1,35
 108 88 108 88 126 133.5 c 128,-1,36
 144 179 144 179 169 242.5 c 128,-1,37
 194 306 194 306 227 391 c 0,38,39
 248 445 248 445 261.5 482 c 128,-1,40
 275 519 275 519 284.5 554.5 c 128,-1,41
 294 590 294 590 303 633 c 128,-1,42
 312 676 312 676 324 742 c 1,43,44
 366 734 366 734 400.5 705 c 128,-1,45
 435 676 435 676 460 635 c 1,46,47
 449 621 449 621 434.5 592.5 c 128,-1,48
 420 564 420 564 402 524 c 128,-1,49
 384 484 384 484 362 435 c 128,-1,50
 340 386 340 386 316 331 c 0,51,52
 262 211 262 211 231 111.5 c 128,-1,53
 200 12 200 12 183 -81 c 1,30,31
EndSplineSet
EndChar

StartChar: M
Encoding: 77 77 68
Width: 942
Flags: W
LayerCount: 2
Fore
SplineSet
514 -74 m 1,0,1
 512 -75 512 -75 510 -75 c 128,-1,2
 508 -75 508 -75 502 -75 c 0,3,4
 488 -75 488 -75 469.5 -70.5 c 128,-1,5
 451 -66 451 -66 433.5 -59.5 c 128,-1,6
 416 -53 416 -53 403.5 -45 c 128,-1,7
 391 -37 391 -37 388 -31 c 1,8,9
 387 -17 387 -17 387 -2 c 128,-1,10
 387 13 387 13 387 27 c 0,11,12
 387 139 387 139 403.5 261 c 128,-1,13
 420 383 420 383 458 525 c 0,14,15
 462 539 462 539 466.5 560.5 c 128,-1,16
 471 582 471 582 476 607 c 1,17,18
 452 588 452 588 419 546.5 c 128,-1,19
 386 505 386 505 349.5 448.5 c 128,-1,20
 313 392 313 392 276.5 324.5 c 128,-1,21
 240 257 240 257 210 187.5 c 128,-1,22
 180 118 180 118 158.5 50 c 128,-1,23
 137 -18 137 -18 132 -76 c 1,24,25
 84 -62 84 -62 65.5 -48 c 128,-1,26
 47 -34 47 -34 47 -14 c 0,27,28
 47 4 47 4 58 37 c 128,-1,29
 69 70 69 70 89 115 c 128,-1,30
 109 160 109 160 138 215.5 c 128,-1,31
 167 271 167 271 202 335 c 0,32,33
 242 408 242 408 280.5 472 c 128,-1,34
 319 536 319 536 356 588 c 128,-1,35
 393 640 393 640 428.5 678 c 128,-1,36
 464 716 464 716 499 736 c 1,37,38
 513 736 513 736 536.5 729 c 128,-1,39
 560 722 560 722 582.5 712 c 128,-1,40
 605 702 605 702 622.5 691.5 c 128,-1,41
 640 681 640 681 642 674 c 1,42,43
 628 646 628 646 609 590 c 128,-1,44
 590 534 590 534 570.5 463 c 128,-1,45
 551 392 551 392 533.5 312.5 c 128,-1,46
 516 233 516 233 506 160 c 1,47,48
 529 215 529 215 559.5 274.5 c 128,-1,49
 590 334 590 334 624 392.5 c 128,-1,50
 658 451 658 451 693.5 506 c 128,-1,51
 729 561 729 561 763 606.5 c 128,-1,52
 797 652 797 652 826.5 686 c 128,-1,53
 856 720 856 720 879 736 c 1,54,55
 893 736 893 736 916.5 729 c 128,-1,56
 940 722 940 722 962.5 712 c 128,-1,57
 985 702 985 702 1002.5 691.5 c 128,-1,58
 1020 681 1020 681 1022 674 c 1,59,60
 990 617 990 617 966 535 c 128,-1,61
 942 453 942 453 925.5 363 c 128,-1,62
 909 273 909 273 900.5 184.5 c 128,-1,63
 892 96 892 96 892 26 c 0,64,65
 892 3 892 3 892 -22 c 128,-1,66
 892 -47 892 -47 894 -74 c 1,67,68
 880 -74 880 -74 860.5 -70.5 c 128,-1,69
 841 -67 841 -67 822.5 -61 c 128,-1,70
 804 -55 804 -55 789 -47.5 c 128,-1,71
 774 -40 774 -40 768 -31 c 1,72,73
 767 -17 767 -17 767 -2 c 128,-1,74
 767 13 767 13 767 27 c 0,75,76
 767 139 767 139 783.5 261 c 128,-1,77
 800 383 800 383 838 525 c 0,78,79
 842 539 842 539 847 563 c 128,-1,80
 852 587 852 587 857 613 c 1,81,82
 829 599 829 599 793.5 559.5 c 128,-1,83
 758 520 758 520 721.5 463.5 c 128,-1,84
 685 407 685 407 649.5 338 c 128,-1,85
 614 269 614 269 585.5 197.5 c 128,-1,86
 557 126 557 126 537.5 55.5 c 128,-1,87
 518 -15 518 -15 514 -74 c 1,0,1
EndSplineSet
EndChar

StartChar: O
Encoding: 79 79 76
Width: 723
Flags: W
LayerCount: 2
Fore
SplineSet
562 728 m 0,0,1
 581 720 581 720 601 707.5 c 128,-1,2
 621 695 621 695 638 682 c 128,-1,3
 655 669 655 669 666.5 656.5 c 128,-1,4
 678 644 678 644 679 636 c 1,5,6
 662 640 662 640 645 641.5 c 128,-1,7
 628 643 628 643 614 643 c 0,8,9
 569 643 569 643 524.5 621 c 128,-1,10
 480 599 480 599 440 561 c 128,-1,11
 400 523 400 523 366 472 c 128,-1,12
 332 421 332 421 307.5 363 c 128,-1,13
 283 305 283 305 269 243 c 128,-1,14
 255 181 255 181 255 121 c 0,15,16
 255 43 255 43 281 5 c 128,-1,17
 307 -33 307 -33 357 -33 c 0,18,19
 381 -33 381 -33 409 -23.5 c 128,-1,20
 437 -14 437 -14 466 3 c 128,-1,21
 495 20 495 20 523 44 c 128,-1,22
 551 68 551 68 575 97 c 0,23,24
 610 139 610 139 638 192.5 c 128,-1,25
 666 246 666 246 685.5 306 c 128,-1,26
 705 366 705 366 715.5 429.5 c 128,-1,27
 726 493 726 493 726 554 c 0,28,29
 726 578 726 578 725 594.5 c 128,-1,30
 724 611 724 611 722.5 622.5 c 128,-1,31
 721 634 721 634 720 641 c 128,-1,32
 719 648 719 648 718 653 c 1,33,34
 730 647 730 647 744.5 638.5 c 128,-1,35
 759 630 759 630 771.5 613.5 c 128,-1,36
 784 597 784 597 792.5 570 c 128,-1,37
 801 543 801 543 801 500 c 0,38,39
 801 430 801 430 784.5 362.5 c 128,-1,40
 768 295 768 295 738.5 234 c 128,-1,41
 709 173 709 173 669 120 c 128,-1,42
 629 67 629 67 583 27 c 0,43,44
 523 -26 523 -26 455 -55 c 128,-1,45
 387 -84 387 -84 324 -84 c 0,46,47
 232 -84 232 -84 183.5 -25.5 c 128,-1,48
 135 33 135 33 135 147 c 0,49,50
 135 208 135 208 148.5 276 c 128,-1,51
 162 344 162 344 186.5 410 c 128,-1,52
 211 476 211 476 245 535.5 c 128,-1,53
 279 595 279 595 319.5 640.5 c 128,-1,54
 360 686 360 686 406.5 713 c 128,-1,55
 453 740 453 740 502 740 c 0,56,57
 518 740 518 740 532 737.5 c 128,-1,58
 546 735 546 735 562 728 c 0,0,1
EndSplineSet
EndChar

StartChar: P
Encoding: 80 80 89
Width: 642
Flags: W
LayerCount: 2
Fore
SplineSet
782 539 m 0,0,1
 782 484 782 484 754.5 434 c 128,-1,2
 727 384 727 384 680.5 346.5 c 128,-1,3
 634 309 634 309 571.5 287 c 128,-1,4
 509 265 509 265 439 265 c 0,5,6
 414 265 414 265 399.5 271.5 c 128,-1,7
 385 278 385 278 367 297 c 1,8,9
 317 188 317 188 285.5 96.5 c 128,-1,10
 254 5 254 5 236 -81 c 1,11,12
 198 -72 198 -72 174 -49.5 c 128,-1,13
 150 -27 150 -27 130 7 c 1,14,15
 140 26 140 26 154 57 c 128,-1,16
 168 88 168 88 188 133.5 c 128,-1,17
 208 179 208 179 234.5 242.5 c 128,-1,18
 261 306 261 306 297 391 c 0,19,20
 313 430 313 430 325 459 c 128,-1,21
 337 488 337 488 346 513.5 c 128,-1,22
 355 539 355 539 362.5 564 c 128,-1,23
 370 589 370 589 378 619 c 1,24,25
 331 604 331 604 291.5 584 c 128,-1,26
 252 564 252 564 226 542 c 1,27,28
 217 548 217 548 207.5 560 c 128,-1,29
 198 572 198 572 190 586.5 c 128,-1,30
 182 601 182 601 176 616 c 128,-1,31
 170 631 170 631 169 643 c 1,32,33
 198 663 198 663 241 680 c 128,-1,34
 284 697 284 697 333 709.5 c 128,-1,35
 382 722 382 722 434.5 729 c 128,-1,36
 487 736 487 736 535 736 c 0,37,38
 592 736 592 736 638 721.5 c 128,-1,39
 684 707 684 707 716 681 c 128,-1,40
 748 655 748 655 765 619 c 128,-1,41
 782 583 782 583 782 539 c 0,0,1
604 659 m 0,42,43
 566 659 566 659 526 653 c 1,44,-1
 538 635 l 1,45,46
 528 622 528 622 513 596 c 128,-1,47
 498 570 498 570 480 533.5 c 128,-1,48
 462 497 462 497 440.5 452 c 128,-1,49
 419 407 419 407 395 357 c 1,50,51
 473 357 473 357 537 371.5 c 128,-1,52
 601 386 601 386 646.5 411.5 c 128,-1,53
 692 437 692 437 717.5 471 c 128,-1,54
 743 505 743 505 743 544 c 0,55,56
 743 596 743 596 708 627.5 c 128,-1,57
 673 659 673 659 604 659 c 0,42,43
EndSplineSet
EndChar

StartChar: Q
Encoding: 81 81 90
Width: 719
Flags: W
LayerCount: 2
Fore
SplineSet
597 728 m 0,0,1
 614 720 614 720 633 707.5 c 128,-1,2
 652 695 652 695 668 681.5 c 128,-1,3
 684 668 684 668 695 655.5 c 128,-1,4
 706 643 706 643 706 636 c 1,5,6
 692 639 692 639 675.5 641 c 128,-1,7
 659 643 659 643 644 643 c 0,8,9
 590 643 590 643 539 619.5 c 128,-1,10
 488 596 488 596 442 552 c 128,-1,11
 396 508 396 508 357.5 444.5 c 128,-1,12
 319 381 319 381 291 301 c 0,13,14
 268 234 268 234 254 168.5 c 128,-1,15
 240 103 240 103 240 59 c 0,16,17
 240 3 240 3 263 1 c 0,18,19
 269 1 269 1 283.5 -1.5 c 128,-1,20
 298 -4 298 -4 314.5 -8 c 128,-1,21
 331 -12 331 -12 347.5 -16.5 c 128,-1,22
 364 -21 364 -21 375 -25 c 1,23,24
 413 -23 413 -23 464 10 c 128,-1,25
 515 43 515 43 564 98 c 0,26,27
 607 146 607 146 641.5 203.5 c 128,-1,28
 676 261 676 261 700 324.5 c 128,-1,29
 724 388 724 388 736.5 455 c 128,-1,30
 749 522 749 522 749 588 c 0,31,32
 749 608 749 608 748 627 c 128,-1,33
 747 646 747 646 745 653 c 1,34,35
 786 633 786 633 803 606 c 128,-1,36
 820 579 820 579 820 537 c 0,37,38
 820 477 820 477 801 408 c 128,-1,39
 782 339 782 339 748.5 270 c 128,-1,40
 715 201 715 201 669 137.5 c 128,-1,41
 623 74 623 74 569 24 c 0,42,43
 498 -42 498 -42 453 -50 c 1,44,45
 480 -64 480 -64 515 -80.5 c 128,-1,46
 550 -97 550 -97 583 -111.5 c 128,-1,47
 616 -126 616 -126 642 -136 c 128,-1,48
 668 -146 668 -146 677 -147 c 1,49,50
 687 -146 687 -146 703 -134.5 c 128,-1,51
 719 -123 719 -123 730 -107 c 1,52,53
 735 -113 735 -113 739.5 -123 c 128,-1,54
 744 -133 744 -133 745 -138 c 1,55,56
 741 -152 741 -152 728.5 -170.5 c 128,-1,57
 716 -189 716 -189 700 -206.5 c 128,-1,58
 684 -224 684 -224 667.5 -237 c 128,-1,59
 651 -250 651 -250 639 -253 c 1,60,61
 622 -252 622 -252 607.5 -248.5 c 128,-1,62
 593 -245 593 -245 576 -237.5 c 128,-1,63
 559 -230 559 -230 538 -216.5 c 128,-1,64
 517 -203 517 -203 486 -182 c 0,65,66
 431 -144 431 -144 390 -119 c 128,-1,67
 349 -94 349 -94 315 -79 c 128,-1,68
 281 -64 281 -64 251 -58 c 128,-1,69
 221 -52 221 -52 189 -52 c 0,70,71
 77 -52 77 -52 65 -127 c 1,72,73
 50 -120 50 -120 48 -108 c 1,74,75
 54 -57 54 -57 85.5 -30 c 128,-1,76
 117 -3 117 -3 183 5 c 1,77,78
 137 45 137 45 137 145 c 0,79,80
 137 215 137 215 153.5 286.5 c 128,-1,81
 170 358 170 358 198.5 424 c 128,-1,82
 227 490 227 490 265.5 547.5 c 128,-1,83
 304 605 304 605 348.5 648 c 128,-1,84
 393 691 393 691 441 715.5 c 128,-1,85
 489 740 489 740 536 740 c 0,86,87
 553 740 553 740 567.5 737 c 128,-1,88
 582 734 582 734 597 728 c 0,0,1
EndSplineSet
EndChar

StartChar: R
Encoding: 82 82 91
Width: 691
Flags: W
LayerCount: 2
Fore
SplineSet
781 551 m 0,0,1
 781 503 781 503 759.5 460.5 c 128,-1,2
 738 418 738 418 700 384.5 c 128,-1,3
 662 351 662 351 611 328 c 128,-1,4
 560 305 560 305 500 297 c 1,5,6
 515 252 515 252 536.5 204.5 c 128,-1,7
 558 157 558 157 583 113 c 128,-1,8
 608 69 608 69 635 32 c 128,-1,9
 662 -5 662 -5 688 -29 c 1,10,11
 683 -39 683 -39 673.5 -49 c 128,-1,12
 664 -59 664 -59 651.5 -67.5 c 128,-1,13
 639 -76 639 -76 625.5 -81.5 c 128,-1,14
 612 -87 612 -87 600 -87 c 0,15,16
 578 -87 578 -87 558 -66 c 128,-1,17
 538 -45 538 -45 517.5 0.5 c 128,-1,18
 497 46 497 46 474.5 118.5 c 128,-1,19
 452 191 452 191 425 293 c 1,20,21
 414 293 414 293 403 293 c 128,-1,22
 392 293 392 293 386 295 c 1,23,24
 379 299 379 299 371 309 c 1,25,26
 344 251 344 251 323 200 c 128,-1,27
 302 149 302 149 285.5 101.5 c 128,-1,28
 269 54 269 54 256.5 9.5 c 128,-1,29
 244 -35 244 -35 235 -81 c 1,30,31
 201 -73 201 -73 176 -52 c 128,-1,32
 151 -31 151 -31 129 7 c 1,33,34
 133 16 133 16 137.5 24.5 c 128,-1,35
 142 33 142 33 149 48.5 c 128,-1,36
 156 64 156 64 166.5 88 c 128,-1,37
 177 112 177 112 194.5 152 c 128,-1,38
 212 192 212 192 236.5 250 c 128,-1,39
 261 308 261 308 296 391 c 0,40,41
 312 428 312 428 323.5 456 c 128,-1,42
 335 484 335 484 344 509.5 c 128,-1,43
 353 535 353 535 360.5 560.5 c 128,-1,44
 368 586 368 586 376 619 c 1,45,46
 330 603 330 603 290.5 583.5 c 128,-1,47
 251 564 251 564 225 542 c 1,48,49
 216 548 216 548 206.5 560 c 128,-1,50
 197 572 197 572 189 586.5 c 128,-1,51
 181 601 181 601 175 616 c 128,-1,52
 169 631 169 631 168 643 c 1,53,54
 198 663 198 663 241.5 680 c 128,-1,55
 285 697 285 697 334 709.5 c 128,-1,56
 383 722 383 722 434 729 c 128,-1,57
 485 736 485 736 529 736 c 0,58,59
 649 736 649 736 715 686.5 c 128,-1,60
 781 637 781 637 781 551 c 0,0,1
537 635 m 1,61,62
 530 626 530 626 515 599 c 128,-1,63
 500 572 500 572 480.5 534.5 c 128,-1,64
 461 497 461 497 439.5 453 c 128,-1,65
 418 409 418 409 398 366 c 1,66,67
 473 366 473 366 536 380 c 128,-1,68
 599 394 599 394 645 419.5 c 128,-1,69
 691 445 691 445 716.5 479.5 c 128,-1,70
 742 514 742 514 742 556 c 0,71,72
 742 606 742 606 706 632.5 c 128,-1,73
 670 659 670 659 595 659 c 0,74,75
 578 659 578 659 561 657.5 c 128,-1,76
 544 656 544 656 525 654 c 1,77,-1
 537 635 l 1,61,62
EndSplineSet
EndChar

StartChar: T
Encoding: 84 84 100
Width: 588
Flags: W
LayerCount: 2
Fore
SplineSet
299 606 m 0,0,1
 259 606 259 606 237.5 628.5 c 128,-1,2
 216 651 216 651 216 683 c 0,3,4
 216 691 216 691 218.5 702 c 128,-1,5
 221 713 221 713 225 721 c 1,6,7
 238 715 238 715 263.5 712.5 c 128,-1,8
 289 710 289 710 323 710 c 0,9,10
 374 710 374 710 438.5 714.5 c 128,-1,11
 503 719 503 719 562 724 c 128,-1,12
 621 729 621 729 666 733.5 c 128,-1,13
 711 738 711 738 724 738 c 0,14,15
 761 738 761 738 777.5 710.5 c 128,-1,16
 794 683 794 683 802 637 c 1,17,18
 776 639 776 639 750.5 640.5 c 128,-1,19
 725 642 725 642 707 642 c 0,20,21
 675 642 675 642 642.5 640 c 128,-1,22
 610 638 610 638 577 634 c 1,23,24
 563 605 563 605 546 565.5 c 128,-1,25
 529 526 529 526 512.5 483 c 128,-1,26
 496 440 496 440 481 397.5 c 128,-1,27
 466 355 466 355 455 321 c 0,28,29
 433 255 433 255 416.5 199 c 128,-1,30
 400 143 400 143 387.5 94.5 c 128,-1,31
 375 46 375 46 366 2 c 128,-1,32
 357 -42 357 -42 350 -84 c 1,33,34
 283 -74 283 -74 238 0 c 1,35,36
 246 31 246 31 257.5 67.5 c 128,-1,37
 269 104 269 104 284.5 150.5 c 128,-1,38
 300 197 300 197 321 256 c 128,-1,39
 342 315 342 315 369 390 c 0,40,41
 379 418 379 418 390 448.5 c 128,-1,42
 401 479 401 479 411.5 509 c 128,-1,43
 422 539 422 539 430.5 567 c 128,-1,44
 439 595 439 595 445 618 c 1,45,46
 403 613 403 613 365.5 609.5 c 128,-1,47
 328 606 328 606 299 606 c 0,0,1
EndSplineSet
EndChar

StartChar: U
Encoding: 85 85 104
Width: 697
Flags: W
LayerCount: 2
Fore
SplineSet
485 673 m 1,0,1
 441 614 441 614 405 543 c 128,-1,2
 369 472 369 472 343.5 397.5 c 128,-1,3
 318 323 318 323 304.5 250.5 c 128,-1,4
 291 178 291 178 291 115 c 0,5,6
 291 37 291 37 314 2 c 128,-1,7
 337 -33 337 -33 393 -33 c 0,8,9
 458 -33 458 -33 507 12.5 c 128,-1,10
 556 58 556 58 599 138 c 0,11,12
 627 190 627 190 647 252 c 128,-1,13
 667 314 667 314 679.5 379.5 c 128,-1,14
 692 445 692 445 698 511.5 c 128,-1,15
 704 578 704 578 704 639 c 0,16,17
 704 678 704 678 703 696 c 128,-1,18
 702 714 702 714 700 725 c 1,19,20
 703 725 703 725 715 723 c 128,-1,21
 727 721 727 721 742.5 718 c 128,-1,22
 758 715 758 715 773.5 710 c 128,-1,23
 789 705 789 705 800 699 c 1,24,25
 795 623 795 623 781.5 542 c 128,-1,26
 768 461 768 461 746 382 c 128,-1,27
 724 303 724 303 695 230 c 128,-1,28
 666 157 666 157 630 99 c 0,29,30
 577 13 577 13 511 -35.5 c 128,-1,31
 445 -84 445 -84 355 -84 c 0,32,33
 263 -84 263 -84 212 -30.5 c 128,-1,34
 161 23 161 23 161 132 c 0,35,36
 161 195 161 195 175 274.5 c 128,-1,37
 189 354 189 354 212.5 436.5 c 128,-1,38
 236 519 236 519 267 597.5 c 128,-1,39
 298 676 298 676 332 738 c 1,40,41
 349 737 349 737 372 731 c 128,-1,42
 395 725 395 725 417 715.5 c 128,-1,43
 439 706 439 706 457.5 694.5 c 128,-1,44
 476 683 476 683 485 673 c 1,0,1
EndSplineSet
EndChar

StartChar: V
Encoding: 86 86 115
Width: 617
Flags: W
LayerCount: 2
Fore
SplineSet
419 -64 m 1,0,1
 396 -76 396 -76 370 -76 c 1,2,3
 338 -72 338 -72 308.5 -60 c 128,-1,4
 279 -48 279 -48 265 -31 c 1,5,6
 257 18 257 18 252 59 c 128,-1,7
 247 100 247 100 244 136.5 c 128,-1,8
 241 173 241 173 240 206.5 c 128,-1,9
 239 240 239 240 239 274 c 0,10,11
 239 319 239 319 240 369 c 128,-1,12
 241 419 241 419 242.5 475.5 c 128,-1,13
 244 532 244 532 245 596.5 c 128,-1,14
 246 661 246 661 246 737 c 1,15,16
 259 737 259 737 285 729.5 c 128,-1,17
 311 722 311 722 336.5 712 c 128,-1,18
 362 702 362 702 382 691.5 c 128,-1,19
 402 681 402 681 404 674 c 1,20,21
 394 646 394 646 386.5 601 c 128,-1,22
 379 556 379 556 374.5 501 c 128,-1,23
 370 446 370 446 368 385 c 128,-1,24
 366 324 366 324 366 264 c 0,25,26
 366 219 366 219 367 183.5 c 128,-1,27
 368 148 368 148 369.5 119.5 c 128,-1,28
 371 91 371 91 374 66.5 c 128,-1,29
 377 42 377 42 381 18 c 1,30,31
 409 103 409 103 442.5 188 c 128,-1,32
 476 273 476 273 511.5 351.5 c 128,-1,33
 547 430 547 430 582 498 c 128,-1,34
 617 566 617 566 648.5 616.5 c 128,-1,35
 680 667 680 667 705 696.5 c 128,-1,36
 730 726 730 726 746 728 c 1,37,38
 757 726 757 726 769.5 719.5 c 128,-1,39
 782 713 782 713 793 704 c 128,-1,40
 804 695 804 695 813 684 c 128,-1,41
 822 673 822 673 827 662 c 1,42,43
 790 649 790 649 747.5 601 c 128,-1,44
 705 553 705 553 662 485.5 c 128,-1,45
 619 418 619 418 578.5 338.5 c 128,-1,46
 538 259 538 259 505.5 183 c 128,-1,47
 473 107 473 107 450 41 c 128,-1,48
 427 -25 427 -25 419 -64 c 1,0,1
EndSplineSet
EndChar

StartChar: X
Encoding: 88 88 121
Width: 637
Flags: W
LayerCount: 2
Fore
SplineSet
647 -4 m 1,0,1
 638 -13 638 -13 620.5 -24.5 c 128,-1,2
 603 -36 603 -36 583 -45.5 c 128,-1,3
 563 -55 563 -55 542.5 -62.5 c 128,-1,4
 522 -70 522 -70 509 -71 c 0,5,6
 496 -71 496 -71 486 -61 c 128,-1,7
 476 -51 476 -51 465 -15.5 c 128,-1,8
 454 20 454 20 439.5 87.5 c 128,-1,9
 425 155 425 155 403 271 c 1,10,11
 346 212 346 212 297 157 c 128,-1,12
 248 102 248 102 213 55 c 128,-1,13
 178 8 178 8 158 -27 c 128,-1,14
 138 -62 138 -62 138 -80 c 1,15,16
 126 -79 126 -79 113.5 -71 c 128,-1,17
 101 -63 101 -63 91 -52 c 128,-1,18
 81 -41 81 -41 74.5 -28 c 128,-1,19
 68 -15 68 -15 68 -3 c 1,20,21
 71 8 71 8 83 28 c 128,-1,22
 95 48 95 48 113 71 c 0,23,24
 151 120 151 120 221.5 184.5 c 128,-1,25
 292 249 292 249 392 327 c 1,26,27
 327 650 327 650 208 650 c 1,28,29
 220 679 220 679 246.5 701 c 128,-1,30
 273 723 273 723 303 728 c 1,31,32
 336 728 336 728 357 719.5 c 128,-1,33
 378 711 378 711 395 677 c 128,-1,34
 412 643 412 643 429 574.5 c 128,-1,35
 446 506 446 506 472 387 c 1,36,37
 505 422 505 422 535.5 458.5 c 128,-1,38
 566 495 566 495 592 529 c 128,-1,39
 618 563 618 563 638 592 c 128,-1,40
 658 621 658 621 669 642 c 0,41,42
 680 661 680 661 680 681 c 0,43,44
 680 699 680 699 669 728 c 1,45,46
 701 709 701 709 717.5 692.5 c 128,-1,47
 734 676 734 676 746 647 c 1,48,49
 744 623 744 623 732.5 599 c 128,-1,50
 721 575 721 575 692.5 541.5 c 128,-1,51
 664 508 664 508 614 459 c 128,-1,52
 564 410 564 410 483 337 c 1,53,54
 502 247 502 247 520 185 c 128,-1,55
 538 123 538 123 557 83.5 c 128,-1,56
 576 44 576 44 598 23.5 c 128,-1,57
 620 3 620 3 647 -4 c 1,0,1
EndSplineSet
EndChar

StartChar: Y
Encoding: 89 89 122
Width: 613
Flags: W
LayerCount: 2
Fore
SplineSet
470 345 m 1,0,1
 545 427 545 427 604.5 519 c 128,-1,2
 664 611 664 611 715 726 c 1,3,4
 741 723 741 723 765 712 c 128,-1,5
 789 701 789 701 803 687 c 1,6,7
 748 621 748 621 703.5 567 c 128,-1,8
 659 513 659 513 622 465.5 c 128,-1,9
 585 418 585 418 553.5 374.5 c 128,-1,10
 522 331 522 331 492 287 c 1,11,12
 477 236 477 236 464 184 c 128,-1,13
 451 132 451 132 441 84.5 c 128,-1,14
 431 37 431 37 425.5 -3.5 c 128,-1,15
 420 -44 420 -44 420 -73 c 1,16,17
 409 -73 409 -73 385 -68.5 c 128,-1,18
 361 -64 361 -64 336 -58 c 128,-1,19
 311 -52 311 -52 290.5 -46 c 128,-1,20
 270 -40 270 -40 266 -36 c 1,21,22
 282 -9 282 -9 297.5 30.5 c 128,-1,23
 313 70 313 70 328 113.5 c 128,-1,24
 343 157 343 157 357 201.5 c 128,-1,25
 371 246 371 246 383 284 c 1,26,27
 358 362 358 362 334.5 430.5 c 128,-1,28
 311 499 311 499 289 554.5 c 128,-1,29
 267 610 267 610 247 650 c 128,-1,30
 227 690 227 690 209 711 c 1,31,32
 219 715 219 715 239.5 719 c 128,-1,33
 260 723 260 723 284.5 727 c 128,-1,34
 309 731 309 731 334.5 733.5 c 128,-1,35
 360 736 360 736 380 737 c 1,36,37
 380 712 380 712 384.5 676 c 128,-1,38
 389 640 389 640 396.5 599 c 128,-1,39
 404 558 404 558 414 516 c 128,-1,40
 424 474 424 474 434 439 c 128,-1,41
 444 404 444 404 453.5 378.5 c 128,-1,42
 463 353 463 353 470 345 c 1,0,1
EndSplineSet
EndChar

StartChar: bracketleft
Encoding: 91 91 156
Width: 386
Flags: W
LayerCount: 2
Fore
SplineSet
522 791 m 0,0,1
 565 791 565 791 577.5 777.5 c 128,-1,2
 590 764 590 764 590 745 c 0,3,4
 590 740 590 740 589 736.5 c 128,-1,5
 588 733 588 733 586 726 c 1,6,7
 556 729 556 729 524 729 c 0,8,9
 515 729 515 729 502 729 c 128,-1,10
 489 729 489 729 475 728.5 c 128,-1,11
 461 728 461 728 446.5 727 c 128,-1,12
 432 726 432 726 422 725 c 1,13,14
 418 708 418 708 406.5 669 c 128,-1,15
 395 630 395 630 378.5 577 c 128,-1,16
 362 524 362 524 340.5 462 c 128,-1,17
 319 400 319 400 294 336 c 0,18,19
 265 262 265 262 238 192 c 128,-1,20
 211 122 211 122 190.5 64 c 128,-1,21
 170 6 170 6 157 -35 c 128,-1,22
 144 -76 144 -76 144 -92 c 1,23,24
 159 -88 159 -88 180 -82.5 c 128,-1,25
 201 -77 201 -77 224 -72 c 128,-1,26
 247 -67 247 -67 270 -63.5 c 128,-1,27
 293 -60 293 -60 311 -60 c 0,28,29
 346 -60 346 -60 358 -73 c 128,-1,30
 370 -86 370 -86 370 -105 c 0,31,32
 370 -110 370 -110 369 -113.5 c 128,-1,33
 368 -117 368 -117 366 -124 c 1,34,35
 336 -121 336 -121 306 -121 c 0,36,37
 263 -121 263 -121 218.5 -126.5 c 128,-1,38
 174 -132 174 -132 126 -140 c 1,39,40
 103 -132 103 -132 84 -107 c 128,-1,41
 65 -82 65 -82 45 -49 c 1,42,43
 53 -31 53 -31 72 16.5 c 128,-1,44
 91 64 91 64 114.5 127 c 128,-1,45
 138 190 138 190 164 260.5 c 128,-1,46
 190 331 190 331 212 393 c 0,47,48
 248 494 248 494 270 561.5 c 128,-1,49
 292 629 292 629 305 671.5 c 128,-1,50
 318 714 318 714 323.5 736.5 c 128,-1,51
 329 759 329 759 331 770 c 1,52,53
 356 775 356 775 384.5 779 c 128,-1,54
 413 783 413 783 439 785.5 c 128,-1,55
 465 788 465 788 487 789.5 c 128,-1,56
 509 791 509 791 522 791 c 0,0,1
EndSplineSet
EndChar

StartChar: backslash
Encoding: 92 92 382
Width: 660
Flags: W
LayerCount: 2
Fore
SplineSet
265 743 m 1,0,1
 268 751 268 751 282 761 c 128,-1,2
 296 771 296 771 314 780 c 128,-1,3
 332 789 332 789 350.5 795 c 128,-1,4
 369 801 369 801 381 801 c 1,5,6
 395 704 395 704 413 607.5 c 128,-1,7
 431 511 431 511 451 419.5 c 128,-1,8
 471 328 471 328 492 245 c 128,-1,9
 513 162 513 162 533 92.5 c 128,-1,10
 553 23 553 23 570.5 -29.5 c 128,-1,11
 588 -82 588 -82 602 -112 c 1,12,13
 598 -129 598 -129 584.5 -142.5 c 128,-1,14
 571 -156 571 -156 560 -158 c 1,15,16
 527 -103 527 -103 490.5 -9.5 c 128,-1,17
 454 84 454 84 416 203 c 128,-1,18
 378 322 378 322 339.5 460.5 c 128,-1,19
 301 599 301 599 265 743 c 1,0,1
EndSplineSet
EndChar

StartChar: bracketright
Encoding: 93 93 157
Width: 385
Flags: W
LayerCount: 2
Fore
SplineSet
75 -140 m 0,0,1
 32 -140 32 -140 19.5 -126.5 c 128,-1,2
 7 -113 7 -113 7 -94 c 0,3,4
 7 -89 7 -89 8 -85.5 c 128,-1,5
 9 -82 9 -82 11 -75 c 1,6,7
 41 -78 41 -78 73 -78 c 0,8,9
 82 -78 82 -78 95 -78 c 128,-1,10
 108 -78 108 -78 122 -77.5 c 128,-1,11
 136 -77 136 -77 150 -76 c 128,-1,12
 164 -75 164 -75 175 -74 c 1,13,14
 179 -57 179 -57 190.5 -18 c 128,-1,15
 202 21 202 21 218.5 74 c 128,-1,16
 235 127 235 127 256.5 189 c 128,-1,17
 278 251 278 251 303 315 c 0,18,19
 332 389 332 389 359 459 c 128,-1,20
 386 529 386 529 406.5 587 c 128,-1,21
 427 645 427 645 440 686 c 128,-1,22
 453 727 453 727 453 743 c 1,23,24
 438 739 438 739 417 733.5 c 128,-1,25
 396 728 396 728 373 723 c 128,-1,26
 350 718 350 718 327 714.5 c 128,-1,27
 304 711 304 711 286 711 c 0,28,29
 251 711 251 711 239 724 c 128,-1,30
 227 737 227 737 227 756 c 0,31,32
 227 761 227 761 228 764.5 c 128,-1,33
 229 768 229 768 231 775 c 1,34,35
 261 772 261 772 291 772 c 0,36,37
 334 772 334 772 378.5 777.5 c 128,-1,38
 423 783 423 783 471 791 c 1,39,40
 494 783 494 783 513 758 c 128,-1,41
 532 733 532 733 552 700 c 1,42,43
 544 682 544 682 525 634.5 c 128,-1,44
 506 587 506 587 482.5 524 c 128,-1,45
 459 461 459 461 433 390.5 c 128,-1,46
 407 320 407 320 385 258 c 0,47,48
 349 157 349 157 326.5 89.5 c 128,-1,49
 304 22 304 22 291.5 -20.5 c 128,-1,50
 279 -63 279 -63 273.5 -85.5 c 128,-1,51
 268 -108 268 -108 266 -119 c 1,52,53
 240 -124 240 -124 212 -128 c 128,-1,54
 184 -132 184 -132 158 -134.5 c 128,-1,55
 132 -137 132 -137 110 -138.5 c 128,-1,56
 88 -140 88 -140 75 -140 c 0,0,1
EndSplineSet
EndChar

StartChar: asciicircum
Encoding: 94 94 147
Width: 361
Flags: W
LayerCount: 2
Fore
SplineSet
259 713 m 1,0,1
 263 654 263 654 268 611.5 c 128,-1,2
 273 569 273 569 280.5 538 c 128,-1,3
 288 507 288 507 297.5 486 c 128,-1,4
 307 465 307 465 321 449 c 0,5,6
 321 448 321 448 316 448 c 2,7,-1
 312 448 l 2,8,9
 283 448 283 448 252.5 487.5 c 128,-1,10
 222 527 222 527 199 587 c 1,11,12
 173 548 173 548 144.5 522 c 128,-1,13
 116 496 116 496 94 496 c 0,14,15
 79 496 79 496 65.5 503 c 128,-1,16
 52 510 52 510 40 522 c 1,17,18
 78 544 78 544 111 581 c 128,-1,19
 144 618 144 618 174 675 c 1,20,-1
 170 700 l 1,21,22
 190 714 190 714 231 714 c 0,23,24
 243 714 243 714 248.5 714 c 128,-1,25
 254 714 254 714 259 713 c 1,0,1
EndSplineSet
EndChar

StartChar: underscore
Encoding: 95 95 333
Width: 569
Flags: W
LayerCount: 2
Fore
SplineSet
125 -102 m 0,0,1
 87 -102 87 -102 64 -84.5 c 128,-1,2
 41 -67 41 -67 41 -36 c 0,3,4
 41 -31 41 -31 43.5 -20.5 c 128,-1,5
 46 -10 46 -10 48 -5 c 1,6,7
 69 -8 69 -8 88 -9 c 128,-1,8
 107 -10 107 -10 136 -10 c 0,9,10
 199 -10 199 -10 254.5 -7 c 128,-1,11
 310 -4 310 -4 355 0 c 128,-1,12
 400 4 400 4 432 7 c 128,-1,13
 464 10 464 10 481 10 c 0,14,15
 504 10 504 10 522.5 -13 c 128,-1,16
 541 -36 541 -36 549 -79 c 1,17,18
 518 -76 518 -76 498.5 -75 c 128,-1,19
 479 -74 479 -74 464 -74 c 0,20,21
 410 -74 410 -74 364.5 -78.5 c 128,-1,22
 319 -83 319 -83 278.5 -88 c 128,-1,23
 238 -93 238 -93 200 -97.5 c 128,-1,24
 162 -102 162 -102 125 -102 c 0,0,1
EndSplineSet
EndChar

StartChar: grave
Encoding: 96 96 220
Width: 285
Flags: W
LayerCount: 2
Fore
SplineSet
78 729 m 1,0,1
 99 694 99 694 122.5 664 c 128,-1,2
 146 634 146 634 170.5 610 c 128,-1,3
 195 586 195 586 219 569 c 128,-1,4
 243 552 243 552 265 544 c 1,5,6
 242 525 242 525 210 525 c 0,7,8
 194 525 194 525 177 529.5 c 128,-1,9
 160 534 160 534 137.5 544.5 c 128,-1,10
 115 555 115 555 86.5 572 c 128,-1,11
 58 589 58 589 20 615 c 1,12,13
 20 629 20 629 25 646 c 128,-1,14
 30 663 30 663 38.5 679.5 c 128,-1,15
 47 696 47 696 57 709.5 c 128,-1,16
 67 723 67 723 78 729 c 1,0,1
EndSplineSet
EndChar

StartChar: a
Encoding: 97 97 132
Width: 470
Flags: W
LayerCount: 2
Fore
SplineSet
442 404 m 1,0,1
 452 404 452 404 465.5 400.5 c 128,-1,2
 479 397 479 397 490 391.5 c 128,-1,3
 501 386 501 386 508.5 380 c 128,-1,4
 516 374 516 374 516 369 c 1,5,6
 496 327 496 327 479 284.5 c 128,-1,7
 462 242 462 242 450 203 c 128,-1,8
 438 164 438 164 431.5 130 c 128,-1,9
 425 96 425 96 425 71 c 0,10,11
 425 43 425 43 431 24.5 c 128,-1,12
 437 6 437 6 451 -2 c 1,13,14
 439 -10 439 -10 420 -15 c 128,-1,15
 401 -20 401 -20 386 -20 c 0,16,17
 332 -20 332 -20 332 54 c 0,18,19
 332 111 332 111 370 210 c 1,20,21
 350 164 350 164 324 123.5 c 128,-1,22
 298 83 298 83 271 52 c 128,-1,23
 244 21 244 21 216.5 1.5 c 128,-1,24
 189 -18 189 -18 166 -22 c 1,25,26
 129 -20 129 -20 106 13.5 c 128,-1,27
 83 47 83 47 83 99 c 0,28,29
 83 155 83 155 107 217 c 128,-1,30
 131 279 131 279 168.5 332 c 128,-1,31
 206 385 206 385 250 420.5 c 128,-1,32
 294 456 294 456 335 458 c 1,33,34
 345 455 345 455 357.5 446 c 128,-1,35
 370 437 370 437 381.5 425 c 128,-1,36
 393 413 393 413 401 400.5 c 128,-1,37
 409 388 409 388 410 379 c 1,38,39
 370 373 370 373 327.5 340 c 128,-1,40
 285 307 285 307 250.5 260.5 c 128,-1,41
 216 214 216 214 194 161 c 128,-1,42
 172 108 172 108 172 62 c 0,43,44
 172 43 172 43 186 38 c 1,45,46
 215 44 215 44 253 87.5 c 128,-1,47
 291 131 291 131 345 222 c 0,48,49
 355 240 355 240 367.5 262 c 128,-1,50
 380 284 380 284 393 308 c 128,-1,51
 406 332 406 332 418.5 356.5 c 128,-1,52
 431 381 431 381 442 404 c 1,0,1
EndSplineSet
EndChar

StartChar: b
Encoding: 98 98 152
Width: 472
Flags: W
LayerCount: 2
Fore
SplineSet
189 -7 m 1,0,1
 235 24 235 24 279 72.5 c 128,-1,2
 323 121 323 121 359 177.5 c 128,-1,3
 395 234 395 234 420 295 c 128,-1,4
 445 356 445 356 454 412 c 1,5,6
 454 424 454 424 441 428 c 1,7,8
 427 428 427 428 402.5 403.5 c 128,-1,9
 378 379 378 379 348.5 341 c 128,-1,10
 319 303 319 303 288.5 256 c 128,-1,11
 258 209 258 209 233 162.5 c 128,-1,12
 208 116 208 116 190.5 75.5 c 128,-1,13
 173 35 173 35 171 10 c 1,14,15
 161 10 161 10 154 30 c 0,16,17
 152 35 152 35 147 40.5 c 128,-1,18
 142 46 142 46 131 54 c 0,19,20
 126 58 126 58 121 63.5 c 128,-1,21
 116 69 116 69 114 73 c 0,22,23
 110 81 110 81 110 99 c 0,24,25
 110 158 110 158 125 232 c 128,-1,26
 140 306 140 306 164.5 383 c 128,-1,27
 189 460 189 460 222 534.5 c 128,-1,28
 255 609 255 609 290.5 671 c 128,-1,29
 326 733 326 733 362 776 c 128,-1,30
 398 819 398 819 430 833 c 1,31,32
 440 830 440 830 454 823 c 128,-1,33
 468 816 468 816 482 807 c 128,-1,34
 496 798 496 798 508.5 789 c 128,-1,35
 521 780 521 780 527 773 c 1,36,37
 417 684 417 684 336.5 544.5 c 128,-1,38
 256 405 256 405 205 215 c 1,39,40
 233 267 233 267 268 315.5 c 128,-1,41
 303 364 303 364 337.5 401 c 128,-1,42
 372 438 372 438 403.5 460 c 128,-1,43
 435 482 435 482 456 482 c 1,44,45
 472 478 472 478 487 468 c 128,-1,46
 502 458 502 458 514 443.5 c 128,-1,47
 526 429 526 429 534 412.5 c 128,-1,48
 542 396 542 396 544 378 c 1,49,50
 543 336 543 336 529.5 288.5 c 128,-1,51
 516 241 516 241 493.5 195 c 128,-1,52
 471 149 471 149 442.5 107 c 128,-1,53
 414 65 414 65 382.5 33.5 c 128,-1,54
 351 2 351 2 319.5 -17 c 128,-1,55
 288 -36 288 -36 260 -36 c 0,56,57
 248 -36 248 -36 235.5 -33.5 c 128,-1,58
 223 -31 223 -31 212.5 -26.5 c 128,-1,59
 202 -22 202 -22 195.5 -17 c 128,-1,60
 189 -12 189 -12 189 -7 c 1,0,1
EndSplineSet
EndChar

StartChar: c
Encoding: 99 99 162
Width: 420
Flags: W
LayerCount: 2
Fore
SplineSet
103 176 m 0,0,1
 103 233 103 233 126.5 286.5 c 128,-1,2
 150 340 150 340 188.5 381.5 c 128,-1,3
 227 423 227 423 276.5 448.5 c 128,-1,4
 326 474 326 474 379 474 c 0,5,6
 431 474 431 474 459 448 c 128,-1,7
 487 422 487 422 487 374 c 0,8,9
 487 351 487 351 480.5 329.5 c 128,-1,10
 474 308 474 308 463.5 291 c 128,-1,11
 453 274 453 274 439 263.5 c 128,-1,12
 425 253 425 253 411 253 c 0,13,14
 399 253 399 253 386.5 260.5 c 128,-1,15
 374 268 374 268 366 280 c 1,16,17
 433 341 433 341 433 391 c 0,18,19
 433 420 433 420 410 420 c 0,20,21
 390 420 390 420 360 401 c 128,-1,22
 330 382 330 382 302 351 c 0,23,24
 259 303 259 303 236.5 244.5 c 128,-1,25
 214 186 214 186 214 122 c 0,26,27
 214 41 214 41 250 25 c 1,28,29
 265 27 265 27 285 34 c 128,-1,30
 305 41 305 41 328 52.5 c 128,-1,31
 351 64 351 64 375.5 79 c 128,-1,32
 400 94 400 94 423 111 c 1,33,34
 427 108 427 108 430 102 c 128,-1,35
 433 96 433 96 433 91 c 1,36,37
 416 70 416 70 394 50 c 128,-1,38
 372 30 372 30 348 13.5 c 128,-1,39
 324 -3 324 -3 301.5 -14.5 c 128,-1,40
 279 -26 279 -26 262 -29 c 1,41,42
 229 -26 229 -26 200 -8.5 c 128,-1,43
 171 9 171 9 149.5 37 c 128,-1,44
 128 65 128 65 115.5 101 c 128,-1,45
 103 137 103 137 103 176 c 0,0,1
EndSplineSet
EndChar

StartChar: d
Encoding: 100 100 177
Width: 433
Flags: W
LayerCount: 2
Fore
SplineSet
315 467 m 1,0,1
 335 467 335 467 361 455 c 128,-1,2
 387 443 387 443 407 424 c 1,3,4
 402 464 402 464 394.5 499.5 c 128,-1,5
 387 535 387 535 372.5 573 c 128,-1,6
 358 611 358 611 334 656 c 128,-1,7
 310 701 310 701 274 759 c 1,8,9
 277 768 277 768 287.5 780 c 128,-1,10
 298 792 298 792 311.5 802.5 c 128,-1,11
 325 813 325 813 339.5 821 c 128,-1,12
 354 829 354 829 367 831 c 1,13,14
 395 800 395 800 420 753.5 c 128,-1,15
 445 707 445 707 464 653.5 c 128,-1,16
 483 600 483 600 493.5 543 c 128,-1,17
 504 486 504 486 504 434 c 256,18,19
 504 382 504 382 492.5 327 c 128,-1,20
 481 272 481 272 460.5 219.5 c 128,-1,21
 440 167 440 167 413 120 c 128,-1,22
 386 73 386 73 354.5 36 c 128,-1,23
 323 -1 323 -1 289 -24.5 c 128,-1,24
 255 -48 255 -48 221 -54 c 1,25,26
 152 -46 152 -46 115.5 -9.5 c 128,-1,27
 79 27 79 27 79 91 c 0,28,29
 79 125 79 125 89.5 165 c 128,-1,30
 100 205 100 205 117.5 244.5 c 128,-1,31
 135 284 135 284 158.5 321.5 c 128,-1,32
 182 359 182 359 208.5 389 c 128,-1,33
 235 419 235 419 262 440 c 128,-1,34
 289 461 289 461 315 467 c 1,0,1
213 -14 m 1,35,36
 248 -2 248 -2 283 39 c 128,-1,37
 318 80 318 80 346 135.5 c 128,-1,38
 374 191 374 191 391.5 254.5 c 128,-1,39
 409 318 409 318 409 377 c 0,40,41
 409 394 409 394 409 398 c 128,-1,42
 409 402 409 402 408 406 c 1,43,44
 384 396 384 396 357 372 c 128,-1,45
 330 348 330 348 303 316.5 c 128,-1,46
 276 285 276 285 252 248 c 128,-1,47
 228 211 228 211 209 174 c 128,-1,48
 190 137 190 137 179 103 c 128,-1,49
 168 69 168 69 168 43 c 0,50,51
 168 -7 168 -7 213 -14 c 1,35,36
EndSplineSet
EndChar

StartChar: e
Encoding: 101 101 186
Width: 404
Flags: W
LayerCount: 2
Fore
SplineSet
455 414 m 1,0,1
 451 352 451 352 433 307.5 c 128,-1,2
 415 263 415 263 381.5 229.5 c 128,-1,3
 348 196 348 196 300 169 c 128,-1,4
 252 142 252 142 188 117 c 1,5,6
 188 111 188 111 187.5 104.5 c 128,-1,7
 187 98 187 98 187 91 c 0,8,9
 187 78 187 78 189 64 c 128,-1,10
 191 50 191 50 196 38 c 128,-1,11
 201 26 201 26 210 18.5 c 128,-1,12
 219 11 219 11 233 11 c 0,13,14
 260 11 260 11 286 23 c 128,-1,15
 312 35 312 35 335.5 52.5 c 128,-1,16
 359 70 359 70 379.5 90.5 c 128,-1,17
 400 111 400 111 416 128 c 1,18,19
 426 119 426 119 433 111 c 1,20,21
 388 51 388 51 334.5 11.5 c 128,-1,22
 281 -28 281 -28 233 -39 c 1,23,24
 164 -31 164 -31 125.5 11.5 c 128,-1,25
 87 54 87 54 87 114 c 0,26,27
 87 155 87 155 98.5 197.5 c 128,-1,28
 110 240 110 240 130.5 279.5 c 128,-1,29
 151 319 151 319 178.5 354 c 128,-1,30
 206 389 206 389 237.5 415 c 128,-1,31
 269 441 269 441 302.5 456 c 128,-1,32
 336 471 336 471 369 471 c 1,33,34
 415 465 415 465 455 414 c 1,0,1
386 381 m 1,35,36
 359 377 359 377 330 359 c 128,-1,37
 301 341 301 341 275.5 311 c 128,-1,38
 250 281 250 281 229 241 c 128,-1,39
 208 201 208 201 196 155 c 1,40,41
 276 195 276 195 329 253.5 c 128,-1,42
 382 312 382 312 386 381 c 1,35,36
EndSplineSet
EndChar

StartChar: f
Encoding: 102 102 206
Width: 342
Flags: W
LayerCount: 2
Fore
SplineSet
152 -289 m 1,0,1
 127 -279 127 -279 122 -251 c 0,2,3
 118 -224 118 -224 88 -207 c 1,4,5
 96 -156 96 -156 106 -104 c 128,-1,6
 116 -52 116 -52 131.5 14.5 c 128,-1,7
 147 81 147 81 170.5 169.5 c 128,-1,8
 194 258 194 258 230 384 c 1,9,10
 197 384 197 384 178 383 c 128,-1,11
 159 382 159 382 141 379 c 1,12,13
 137 383 137 383 134.5 390 c 128,-1,14
 132 397 132 397 132 403 c 1,15,16
 142 407 142 407 173 413.5 c 128,-1,17
 204 420 204 420 241 425 c 1,18,19
 265 501 265 501 296 561.5 c 128,-1,20
 327 622 327 622 363 665 c 128,-1,21
 399 708 399 708 439 731 c 128,-1,22
 479 754 479 754 520 754 c 0,23,24
 532 754 532 754 543 752.5 c 128,-1,25
 554 751 554 751 560 751 c 1,26,27
 569 758 569 758 584 763.5 c 128,-1,28
 599 769 599 769 610 769 c 0,29,30
 622 769 622 769 641 756 c 1,31,32
 633 742 633 742 624 718 c 128,-1,33
 615 694 615 694 609 671 c 1,34,35
 584 597 584 597 556 575 c 1,36,37
 545 575 545 575 544 604 c 0,38,39
 543 625 543 625 538 645 c 1,40,41
 534 654 534 654 532.5 661 c 128,-1,42
 531 668 531 668 531 679 c 0,43,44
 531 685 531 685 532 693.5 c 128,-1,45
 533 702 533 702 536 722 c 1,46,47
 519 722 519 722 498.5 701 c 128,-1,48
 478 680 478 680 455.5 641.5 c 128,-1,49
 433 603 433 603 410 550 c 128,-1,50
 387 497 387 497 366 433 c 1,51,-1
 450 436 l 1,52,53
 455 431 455 431 458.5 413.5 c 128,-1,54
 462 396 462 396 463 377 c 1,55,-1
 353 383 l 1,56,57
 315 270 315 270 282 167 c 128,-1,58
 249 64 249 64 223 -23 c 128,-1,59
 197 -110 197 -110 178.5 -178.5 c 128,-1,60
 160 -247 160 -247 152 -289 c 1,0,1
EndSplineSet
EndChar

StartChar: h
Encoding: 104 104 227
Width: 517
Flags: W
LayerCount: 2
Fore
SplineSet
96 17 m 0,0,1
 96 52 96 52 103 99.5 c 128,-1,2
 110 147 110 147 123.5 201 c 128,-1,3
 137 255 137 255 155.5 314 c 128,-1,4
 174 373 174 373 197 432 c 0,5,6
 217 485 217 485 243.5 539 c 128,-1,7
 270 593 270 593 301 645 c 128,-1,8
 332 697 332 697 365.5 744 c 128,-1,9
 399 791 399 791 433 830 c 1,10,11
 449 830 449 830 467.5 826 c 128,-1,12
 486 822 486 822 503.5 815.5 c 128,-1,13
 521 809 521 809 535.5 800 c 128,-1,14
 550 791 550 791 559 782 c 1,15,16
 484 705 484 705 424 626.5 c 128,-1,17
 364 548 364 548 329 479 c 0,18,19
 310 441 310 441 294.5 408 c 128,-1,20
 279 375 279 375 266 342.5 c 128,-1,21
 253 310 253 310 242.5 277.5 c 128,-1,22
 232 245 232 245 223 209 c 1,23,24
 415 454 415 454 508 454 c 0,25,26
 534 454 534 454 564 437 c 128,-1,27
 594 420 594 420 617 391 c 1,28,29
 586 357 586 357 553 309 c 128,-1,30
 520 261 520 261 492.5 212.5 c 128,-1,31
 465 164 465 164 447.5 122.5 c 128,-1,32
 430 81 430 81 430 61 c 0,33,34
 430 51 430 51 433 47.5 c 128,-1,35
 436 44 436 44 446 44 c 0,36,37
 461 44 461 44 470 48 c 128,-1,38
 479 52 479 52 481 52 c 1,39,40
 486 44 486 44 487 41 c 128,-1,41
 488 38 488 38 488 36 c 0,42,43
 488 32 488 32 476 24.5 c 128,-1,44
 464 17 464 17 447.5 9.5 c 128,-1,45
 431 2 431 2 415 -4 c 128,-1,46
 399 -10 399 -10 391 -10 c 0,47,48
 381 -10 381 -10 371 -4.5 c 128,-1,49
 361 1 361 1 353.5 10 c 128,-1,50
 346 19 346 19 341.5 30 c 128,-1,51
 337 41 337 41 337 53 c 0,52,53
 337 68 337 68 345.5 97.5 c 128,-1,54
 354 127 354 127 369 166.5 c 128,-1,55
 384 206 384 206 405 253 c 128,-1,56
 426 300 426 300 450 349 c 1,57,58
 450 353 450 353 446 353 c 0,59,60
 443 353 443 353 430.5 345 c 128,-1,61
 418 337 418 337 407 329 c 0,62,63
 371 302 371 302 334.5 262.5 c 128,-1,64
 298 223 298 223 263.5 176 c 128,-1,65
 229 129 229 129 198.5 76.5 c 128,-1,66
 168 24 168 24 146 -29 c 0,67,68
 143 -36 143 -36 137 -42 c 128,-1,69
 131 -48 131 -48 127 -48 c 0,70,71
 124 -48 124 -48 118.5 -41 c 128,-1,72
 113 -34 113 -34 108.5 -23.5 c 128,-1,73
 104 -13 104 -13 100 -2 c 128,-1,74
 96 9 96 9 96 17 c 0,0,1
EndSplineSet
EndChar

StartChar: i
Encoding: 105 105 233
Width: 236
Flags: W
LayerCount: 2
Fore
SplineSet
98 67 m 0,0,1
 98 76 98 76 99.5 89.5 c 128,-1,2
 101 103 101 103 105 125.5 c 128,-1,3
 109 148 109 148 115.5 180 c 128,-1,4
 122 212 122 212 132 257 c 0,5,6
 134 267 134 267 141 289 c 128,-1,7
 148 311 148 311 159.5 335.5 c 128,-1,8
 171 360 171 360 187.5 383 c 128,-1,9
 204 406 204 406 227 417 c 1,10,11
 244 413 244 413 272 396.5 c 128,-1,12
 300 380 300 380 320 351 c 1,13,14
 297 325 297 325 281.5 299 c 128,-1,15
 266 273 266 273 253.5 245 c 128,-1,16
 241 217 241 217 230.5 187 c 128,-1,17
 220 157 220 157 207 124 c 0,18,19
 196 96 196 96 187 66.5 c 128,-1,20
 178 37 178 37 177 15 c 0,21,22
 177 -3 177 -3 176.5 -10.5 c 128,-1,23
 176 -18 176 -18 171 -18 c 0,24,25
 167 -18 167 -18 155 -13 c 128,-1,26
 143 -8 143 -8 130.5 2.5 c 128,-1,27
 118 13 118 13 108 29 c 128,-1,28
 98 45 98 45 98 67 c 0,0,1
289 501 m 0,29,30
 289 507 289 507 292 519 c 1,31,32
 287 524 287 524 283.5 534 c 128,-1,33
 280 544 280 544 280 552 c 0,34,35
 280 561 280 561 282.5 576.5 c 128,-1,36
 285 592 285 592 289 610 c 128,-1,37
 293 628 293 628 299 647.5 c 128,-1,38
 305 667 305 667 311 683 c 1,39,40
 323 683 323 683 340.5 676.5 c 128,-1,41
 358 670 358 670 376 659.5 c 128,-1,42
 394 649 394 649 409 636.5 c 128,-1,43
 424 624 424 624 432 613 c 1,44,45
 421 602 421 602 403 582.5 c 128,-1,46
 385 563 385 563 368 541.5 c 128,-1,47
 351 520 351 520 337 501 c 128,-1,48
 323 482 323 482 319 474 c 1,49,50
 307 476 307 476 298 484.5 c 128,-1,51
 289 493 289 493 289 501 c 0,29,30
EndSplineSet
EndChar

StartChar: j
Encoding: 106 106 243
Width: 236
Flags: W
LayerCount: 2
Fore
SplineSet
119 187 m 0,0,1
 156 335 156 335 191.5 403.5 c 128,-1,2
 227 472 227 472 266 472 c 0,3,4
 294 472 294 472 333 445 c 1,5,6
 301 388 301 388 283.5 350.5 c 128,-1,7
 266 313 266 313 258 282 c 0,8,9
 241 222 241 222 222 157.5 c 128,-1,10
 203 93 203 93 184.5 34 c 128,-1,11
 166 -25 166 -25 150.5 -72.5 c 128,-1,12
 135 -120 135 -120 126 -145 c 0,13,14
 104 -204 104 -204 82.5 -245 c 128,-1,15
 61 -286 61 -286 38 -312 c 128,-1,16
 15 -338 15 -338 -10.5 -350 c 128,-1,17
 -36 -362 -36 -362 -66 -362 c 0,18,19
 -88 -362 -88 -362 -109.5 -357.5 c 128,-1,20
 -131 -353 -131 -353 -150 -345.5 c 128,-1,21
 -169 -338 -169 -338 -184 -327 c 128,-1,22
 -199 -316 -199 -316 -208 -304 c 1,23,24
 -207 -297 -207 -297 -201.5 -290.5 c 128,-1,25
 -196 -284 -196 -284 -191 -283 c 1,26,27
 -174 -301 -174 -301 -155.5 -309 c 128,-1,28
 -137 -317 -137 -317 -111 -317 c 0,29,30
 -79 -317 -79 -317 -54.5 -298 c 128,-1,31
 -30 -279 -30 -279 -5 -224.5 c 128,-1,32
 20 -170 20 -170 49 -71.5 c 128,-1,33
 78 27 78 27 119 187 c 0,0,1
282 551 m 0,34,35
 282 556 282 556 285 568 c 1,36,37
 273 580 273 580 273 602 c 0,38,39
 273 611 273 611 275.5 627 c 128,-1,40
 278 643 278 643 282.5 661.5 c 128,-1,41
 287 680 287 680 292.5 699 c 128,-1,42
 298 718 298 718 304 732 c 1,43,44
 316 732 316 732 333.5 725.5 c 128,-1,45
 351 719 351 719 369 708.5 c 128,-1,46
 387 698 387 698 402 685.5 c 128,-1,47
 417 673 417 673 425 662 c 1,48,49
 413 651 413 651 395 631 c 128,-1,50
 377 611 377 611 360 589.5 c 128,-1,51
 343 568 343 568 329 549.5 c 128,-1,52
 315 531 315 531 312 523 c 1,53,54
 300 525 300 525 291 533.5 c 128,-1,55
 282 542 282 542 282 551 c 0,34,35
EndSplineSet
EndChar

StartChar: k
Encoding: 107 107 245
Width: 516
Flags: W
LayerCount: 2
Fore
SplineSet
99 94 m 0,0,1
 99 130 99 130 117.5 194 c 128,-1,2
 136 258 136 258 166 334 c 128,-1,3
 196 410 196 410 234 491 c 128,-1,4
 272 572 272 572 310.5 642 c 128,-1,5
 349 712 349 712 384.5 763 c 128,-1,6
 420 814 420 814 445 832 c 1,7,8
 459 831 459 831 475.5 820 c 128,-1,9
 492 809 492 809 506 793.5 c 128,-1,10
 520 778 520 778 529.5 761 c 128,-1,11
 539 744 539 744 539 730 c 1,12,13
 494 694 494 694 447.5 637.5 c 128,-1,14
 401 581 401 581 359 513.5 c 128,-1,15
 317 446 317 446 281.5 370.5 c 128,-1,16
 246 295 246 295 222 222 c 1,17,18
 254 277 254 277 289 322 c 128,-1,19
 324 367 324 367 359 399 c 128,-1,20
 394 431 394 431 427.5 448.5 c 128,-1,21
 461 466 461 466 491 467 c 1,22,23
 535 435 535 435 535 382 c 0,24,25
 535 350 535 350 522 317.5 c 128,-1,26
 509 285 509 285 487.5 257.5 c 128,-1,27
 466 230 466 230 438.5 210.5 c 128,-1,28
 411 191 411 191 381 185 c 1,29,30
 391 150 391 150 406.5 114 c 128,-1,31
 422 78 422 78 443.5 44 c 128,-1,32
 465 10 465 10 492.5 -19 c 128,-1,33
 520 -48 520 -48 555 -68 c 1,34,35
 550 -78 550 -78 540 -88 c 128,-1,36
 530 -98 530 -98 516 -105.5 c 128,-1,37
 502 -113 502 -113 485.5 -117.5 c 128,-1,38
 469 -122 469 -122 453 -122 c 0,39,40
 426 -122 426 -122 402.5 -95 c 128,-1,41
 379 -68 379 -68 360 -17 c 0,42,43
 345 24 345 24 331 81 c 128,-1,44
 317 138 317 138 306 200 c 1,45,46
 320 209 320 209 341 226.5 c 128,-1,47
 362 244 362 244 385 267 c 0,48,49
 473 352 473 352 473 414 c 0,50,51
 473 422 473 422 462 422 c 0,52,53
 442 421 442 421 415 403 c 128,-1,54
 388 385 388 385 357.5 353 c 128,-1,55
 327 321 327 321 295.5 278 c 128,-1,56
 264 235 264 235 235 185 c 0,57,58
 223 165 223 165 213 139 c 128,-1,59
 203 113 203 113 195.5 85.5 c 128,-1,60
 188 58 188 58 184 31 c 128,-1,61
 180 4 180 4 180 -19 c 0,62,63
 180 -33 180 -33 183 -42 c 1,64,65
 152 -39 152 -39 145 -26 c 1,66,67
 137 -14 137 -14 131.5 -6.5 c 128,-1,68
 126 1 126 1 120 6 c 0,69,70
 111 13 111 13 105 36 c 128,-1,71
 99 59 99 59 99 94 c 0,0,1
EndSplineSet
EndChar

StartChar: l
Encoding: 108 108 248
Width: 236
Flags: W
LayerCount: 2
Fore
SplineSet
96 64 m 0,0,1
 96 108 96 108 117 187.5 c 128,-1,2
 138 267 138 267 176 373 c 0,3,4
 238 542 238 542 292.5 654.5 c 128,-1,5
 347 767 347 767 399 830 c 1,6,7
 411 828 411 828 428.5 820 c 128,-1,8
 446 812 446 812 463 802.5 c 128,-1,9
 480 793 480 793 493.5 783 c 128,-1,10
 507 773 507 773 511 767 c 1,11,12
 433 675 433 675 374 569 c 128,-1,13
 315 463 315 463 266 326 c 0,14,15
 224 208 224 208 202 113.5 c 128,-1,16
 180 19 180 19 180 -44 c 0,17,18
 180 -61 180 -61 180 -65 c 128,-1,19
 180 -69 180 -69 181 -73 c 1,20,21
 167 -71 167 -71 157 -66 c 128,-1,22
 147 -61 147 -61 144 -54 c 0,23,24
 142 -49 142 -49 133 -39.5 c 128,-1,25
 124 -30 124 -30 117 -25 c 0,26,27
 108 -19 108 -19 102 6.5 c 128,-1,28
 96 32 96 32 96 64 c 0,0,1
EndSplineSet
EndChar

StartChar: m
Encoding: 109 109 256
Width: 765
Flags: W
LayerCount: 2
Fore
SplineSet
675 307 m 1,0,1
 659 306 659 306 636 286.5 c 128,-1,2
 613 267 613 267 586.5 236.5 c 128,-1,3
 560 206 560 206 531.5 169 c 128,-1,4
 503 132 503 132 476.5 95.5 c 128,-1,5
 450 59 450 59 427 27 c 128,-1,6
 404 -5 404 -5 388 -24 c 1,7,8
 366 -15 366 -15 350 2.5 c 128,-1,9
 334 20 334 20 327 46 c 1,10,11
 332 77 332 77 341 110.5 c 128,-1,12
 350 144 350 144 364.5 180 c 128,-1,13
 379 216 379 216 400.5 255.5 c 128,-1,14
 422 295 422 295 453 339 c 1,15,16
 438 338 438 338 412 317.5 c 128,-1,17
 386 297 386 297 356 264.5 c 128,-1,18
 326 232 326 232 294 191.5 c 128,-1,19
 262 151 262 151 234 112 c 0,20,21
 197 60 197 60 172.5 21 c 128,-1,22
 148 -18 148 -18 137 -25 c 1,23,24
 111 -6 111 -6 101 16 c 128,-1,25
 91 38 91 38 86 65 c 1,26,27
 87 89 87 89 93.5 125 c 128,-1,28
 100 161 100 161 112 199 c 0,29,30
 135 272 135 272 171.5 344 c 128,-1,31
 208 416 208 416 242 476 c 1,32,33
 270 470 270 470 292.5 457 c 128,-1,34
 315 444 315 444 340 419 c 1,35,36
 330 388 330 388 309 353.5 c 128,-1,37
 288 319 288 319 265 281 c 128,-1,38
 242 243 242 243 223 203 c 128,-1,39
 204 163 204 163 198 122 c 1,40,41
 226 162 226 162 264.5 214 c 128,-1,42
 303 266 303 266 343.5 312 c 128,-1,43
 384 358 384 358 424 390 c 128,-1,44
 464 422 464 422 496 422 c 0,45,46
 508 422 508 422 522 418 c 128,-1,47
 536 414 536 414 548 408 c 128,-1,48
 560 402 560 402 568 396.5 c 128,-1,49
 576 391 576 391 577 388 c 1,50,51
 572 368 572 368 553.5 333.5 c 128,-1,52
 535 299 535 299 514 261 c 128,-1,53
 493 223 493 223 475 187.5 c 128,-1,54
 457 152 457 152 454 131 c 1,55,56
 503 198 503 198 546 252.5 c 128,-1,57
 589 307 589 307 627 346 c 128,-1,58
 665 385 665 385 697.5 406 c 128,-1,59
 730 427 730 427 759 427 c 0,60,61
 779 427 779 427 796.5 416.5 c 128,-1,62
 814 406 814 406 821 386 c 1,63,64
 812 356 812 356 791.5 314 c 128,-1,65
 771 272 771 272 750 225.5 c 128,-1,66
 729 179 729 179 712.5 134 c 128,-1,67
 696 89 696 89 696 53 c 0,68,69
 696 32 696 32 702 25.5 c 128,-1,70
 708 19 708 19 719 19 c 0,71,72
 731 19 731 19 741.5 23.5 c 128,-1,73
 752 28 752 28 757 28 c 1,74,75
 763 24 763 24 764 18 c 128,-1,76
 765 12 765 12 765 7 c 1,77,78
 745 -9 745 -9 724 -19.5 c 128,-1,79
 703 -30 703 -30 677 -30 c 0,80,81
 653 -30 653 -30 637.5 -22 c 128,-1,82
 622 -14 622 -14 612 0 c 128,-1,83
 602 14 602 14 598 32 c 128,-1,84
 594 50 594 50 594 71 c 0,85,86
 594 105 594 105 603 138.5 c 128,-1,87
 612 172 612 172 624.5 202.5 c 128,-1,88
 637 233 637 233 651 259.5 c 128,-1,89
 665 286 665 286 675 307 c 1,0,1
EndSplineSet
EndChar

StartChar: n
Encoding: 110 110 261
Width: 540
Flags: W
LayerCount: 2
Fore
SplineSet
259 485 m 1,0,1
 285 477 285 477 308 449.5 c 128,-1,2
 331 422 331 422 342 389 c 1,3,4
 331 362 331 362 308 324 c 128,-1,5
 285 286 285 286 262 246.5 c 128,-1,6
 239 207 239 207 220.5 171.5 c 128,-1,7
 202 136 202 136 199 113 c 1,8,9
 215 130 215 130 234.5 152.5 c 128,-1,10
 254 175 254 175 272.5 197.5 c 128,-1,11
 291 220 291 220 307 238.5 c 128,-1,12
 323 257 323 257 332 266 c 0,13,14
 351 286 351 286 377 312.5 c 128,-1,15
 403 339 403 339 431.5 362.5 c 128,-1,16
 460 386 460 386 489 402.5 c 128,-1,17
 518 419 518 419 542 419 c 0,18,19
 568 419 568 419 585.5 401.5 c 128,-1,20
 603 384 603 384 613 365 c 0,21,22
 613 363 613 363 605.5 359.5 c 128,-1,23
 598 356 598 356 584 340 c 1,24,25
 570 322 570 322 552.5 290.5 c 128,-1,26
 535 259 535 259 518.5 222.5 c 128,-1,27
 502 186 502 186 491 148 c 128,-1,28
 480 110 480 110 480 79 c 0,29,30
 480 54 480 54 486.5 47 c 128,-1,31
 493 40 493 40 505 40 c 0,32,33
 516 40 516 40 528 45 c 128,-1,34
 540 50 540 50 547 50 c 1,35,36
 551 48 551 48 553.5 41.5 c 128,-1,37
 556 35 556 35 556 30 c 1,38,39
 548 23 548 23 537 16 c 128,-1,40
 526 9 526 9 514 3 c 128,-1,41
 502 -3 502 -3 490.5 -7 c 128,-1,42
 479 -11 479 -11 470 -11 c 0,43,44
 441 -11 441 -11 422.5 -2.5 c 128,-1,45
 404 6 404 6 393.5 20 c 128,-1,46
 383 34 383 34 379 53.5 c 128,-1,47
 375 73 375 73 375 95 c 0,48,49
 375 107 375 107 377 122 c 128,-1,50
 379 137 379 137 385 157.5 c 128,-1,51
 391 178 391 178 402 206.5 c 128,-1,52
 413 235 413 235 430 275 c 1,53,54
 428 275 428 275 403 261 c 128,-1,55
 378 247 378 247 349 218 c 0,56,57
 302 173 302 173 264.5 129 c 128,-1,58
 227 85 227 85 188 31 c 0,59,60
 166 0 166 0 149.5 -21.5 c 128,-1,61
 133 -43 133 -43 121 -50 c 1,62,63
 100 -38 100 -38 90 -16.5 c 128,-1,64
 80 5 80 5 75 28 c 1,65,66
 75 47 75 47 80.5 76 c 128,-1,67
 86 105 86 105 95.5 140.5 c 128,-1,68
 105 176 105 176 119 215 c 128,-1,69
 133 254 133 254 150 293 c 0,70,71
 188 381 188 381 219.5 431 c 128,-1,72
 251 481 251 481 259 485 c 1,0,1
EndSplineSet
EndChar

StartChar: o
Encoding: 111 111 269
Width: 441
Flags: W
LayerCount: 2
Fore
SplineSet
215 -35 m 1,0,1
 158 -29 158 -29 124 15 c 128,-1,2
 90 59 90 59 90 127 c 0,3,4
 90 167 90 167 102 210 c 128,-1,5
 114 253 114 253 136 293.5 c 128,-1,6
 158 334 158 334 188 370 c 128,-1,7
 218 406 218 406 253 432 c 0,8,9
 308 473 308 473 356 473 c 1,10,11
 388 456 388 456 419 402 c 1,12,13
 424 402 424 402 428 402.5 c 128,-1,14
 432 403 432 403 437 403 c 0,15,16
 490 403 490 403 490 309 c 0,17,18
 490 246 490 246 469.5 189.5 c 128,-1,19
 449 133 449 133 412.5 87 c 128,-1,20
 376 41 376 41 325.5 9.5 c 128,-1,21
 275 -22 275 -22 215 -35 c 1,0,1
266 280 m 0,22,23
 249 257 249 257 234 230 c 128,-1,24
 219 203 219 203 208 175.5 c 128,-1,25
 197 148 197 148 191 122.5 c 128,-1,26
 185 97 185 97 185 77 c 0,27,28
 185 53 185 53 193 31 c 128,-1,29
 201 9 201 9 211 6 c 1,30,31
 256 16 256 16 293.5 43.5 c 128,-1,32
 331 71 331 71 358.5 112 c 128,-1,33
 386 153 386 153 401.5 205 c 128,-1,34
 417 257 417 257 417 316 c 0,35,36
 417 342 417 342 414 357 c 128,-1,37
 411 372 411 372 404 383 c 1,38,39
 360 370 360 370 325.5 341 c 128,-1,40
 291 312 291 312 266 280 c 0,22,23
EndSplineSet
EndChar

StartChar: p
Encoding: 112 112 284
Width: 498
Flags: W
LayerCount: 2
Fore
SplineSet
24 -331 m 0,0,1
 10 -327 10 -327 8 -301 c 1,2,3
 4 -288 4 -288 2.5 -270 c 128,-1,4
 1 -252 1 -252 1 -229 c 0,5,6
 1 -208 1 -208 8 -171.5 c 128,-1,7
 15 -135 15 -135 27.5 -89 c 128,-1,8
 40 -43 40 -43 58 10.5 c 128,-1,9
 76 64 76 64 98 119 c 0,10,11
 125 188 125 188 145 238.5 c 128,-1,12
 165 289 165 289 178.5 326 c 128,-1,13
 192 363 192 363 200.5 387 c 128,-1,14
 209 411 209 411 214 428 c 0,15,16
 218 440 218 440 226 457 c 128,-1,17
 234 474 234 474 244.5 491.5 c 128,-1,18
 255 509 255 509 266 524.5 c 128,-1,19
 277 540 277 540 286 548 c 1,20,21
 321 543 321 543 352 530 c 128,-1,22
 383 517 383 517 390 505 c 1,23,24
 376 492 376 492 358 464.5 c 128,-1,25
 340 437 340 437 323 404.5 c 128,-1,26
 306 372 306 372 292 338 c 128,-1,27
 278 304 278 304 271 278 c 1,28,29
 281 295 281 295 297 315 c 128,-1,30
 313 335 313 335 346 370 c 0,31,32
 383 408 383 408 415.5 428.5 c 128,-1,33
 448 449 448 449 472 449 c 0,34,35
 510 449 510 449 534.5 428 c 128,-1,36
 559 407 559 407 559 374 c 0,37,38
 559 302 559 302 535 231.5 c 128,-1,39
 511 161 511 161 466 104 c 0,40,41
 449 82 449 82 426 62 c 128,-1,42
 403 42 403 42 378 26.5 c 128,-1,43
 353 11 353 11 329 2 c 128,-1,44
 305 -7 305 -7 286 -7 c 0,45,46
 268 -7 268 -7 254.5 0.5 c 128,-1,47
 241 8 241 8 236 19 c 1,48,49
 275 42 275 42 312 83 c 128,-1,50
 349 124 349 124 380.5 177.5 c 128,-1,51
 412 231 412 231 435.5 293 c 128,-1,52
 459 355 459 355 471 419 c 1,53,54
 433 399 433 399 402.5 375.5 c 128,-1,55
 372 352 372 352 342 314 c 0,56,57
 306 270 306 270 285 243 c 128,-1,58
 264 216 264 216 250.5 197 c 128,-1,59
 237 178 237 178 228.5 161.5 c 128,-1,60
 220 145 220 145 210 121 c 0,61,62
 196 89 196 89 177.5 36.5 c 128,-1,63
 159 -16 159 -16 139.5 -81 c 128,-1,64
 120 -146 120 -146 100.5 -219.5 c 128,-1,65
 81 -293 81 -293 63 -366 c 1,66,67
 52 -364 52 -364 44 -350 c 1,68,69
 36 -341 36 -341 32.5 -337 c 128,-1,70
 29 -333 29 -333 24 -331 c 0,0,1
EndSplineSet
EndChar

StartChar: q
Encoding: 113 113 291
Width: 452
Flags: W
LayerCount: 2
Fore
SplineSet
497 444 m 0,0,1
 513 444 513 444 530.5 436.5 c 128,-1,2
 548 429 548 429 556 418 c 1,3,4
 519 343 519 343 493.5 291 c 128,-1,5
 468 239 468 239 449.5 199.5 c 128,-1,6
 431 160 431 160 417 129 c 128,-1,7
 403 98 403 98 389 65 c 0,8,9
 365 9 365 9 344 -48.5 c 128,-1,10
 323 -106 323 -106 306.5 -161.5 c 128,-1,11
 290 -217 290 -217 277.5 -268.5 c 128,-1,12
 265 -320 265 -320 259 -363 c 1,13,14
 255 -367 255 -367 241 -367 c 0,15,16
 235 -367 235 -367 229.5 -364 c 128,-1,17
 224 -361 224 -361 223 -357 c 0,18,19
 221 -352 221 -352 215.5 -347 c 128,-1,20
 210 -342 210 -342 202 -340 c 256,21,22
 194 -338 194 -338 188.5 -330.5 c 128,-1,23
 183 -323 183 -323 181 -314 c 1,24,25
 192 -138 192 -138 286 84 c 1,26,27
 251 49 251 49 225.5 28.5 c 128,-1,28
 200 8 200 8 187 6 c 1,29,30
 173 6 173 6 156.5 20.5 c 128,-1,31
 140 35 140 35 125.5 56 c 128,-1,32
 111 77 111 77 101.5 101.5 c 128,-1,33
 92 126 92 126 92 146 c 0,34,35
 92 172 92 172 106 215.5 c 128,-1,36
 120 259 120 259 141 302 c 0,37,38
 221 461 221 461 379 490 c 1,39,40
 393 488 393 488 407.5 481.5 c 128,-1,41
 422 475 422 475 434 465 c 128,-1,42
 446 455 446 455 454.5 443 c 128,-1,43
 463 431 463 431 465 420 c 1,44,45
 467 426 467 426 479 435 c 128,-1,46
 491 444 491 444 497 444 c 0,0,1
318 177 m 0,47,48
 351 222 351 222 376 263 c 128,-1,49
 401 304 401 304 418 336 c 0,50,51
 438 373 438 373 453 406 c 1,52,53
 450 409 450 409 436.5 412 c 128,-1,54
 423 415 423 415 412 415 c 0,55,56
 386 415 386 415 350.5 389 c 128,-1,57
 315 363 315 363 287 324 c 0,58,59
 237 255 237 255 210.5 187 c 128,-1,60
 184 119 184 119 184 61 c 0,61,62
 184 54 184 54 193 54 c 1,63,64
 229 80 229 80 259 109 c 128,-1,65
 289 138 289 138 318 177 c 0,47,48
EndSplineSet
EndChar

StartChar: r
Encoding: 114 114 302
Width: 403
Flags: W
LayerCount: 2
Fore
SplineSet
73 20 m 1,0,1
 78 49 78 49 90.5 96.5 c 128,-1,2
 103 144 103 144 120 197.5 c 128,-1,3
 137 251 137 251 156 305 c 128,-1,4
 175 359 175 359 193 402 c 0,5,6
 206 433 206 433 216 450.5 c 128,-1,7
 226 468 226 468 238 480 c 1,8,9
 252 478 252 478 267 473 c 128,-1,10
 282 468 282 468 296 461 c 128,-1,11
 310 454 310 454 321 446.5 c 128,-1,12
 332 439 332 439 338 432 c 1,13,14
 311 400 311 400 290.5 359 c 128,-1,15
 270 318 270 318 249 254 c 1,16,17
 303 302 303 302 344.5 346 c 128,-1,18
 386 390 386 390 422 444 c 1,19,20
 428 449 428 449 443 449 c 0,21,22
 457 449 457 449 470 444.5 c 128,-1,23
 483 440 483 440 488 432 c 1,24,25
 470 384 470 384 470 337 c 0,26,27
 470 293 470 293 483 271 c 1,28,29
 482 265 482 265 469.5 248 c 128,-1,30
 457 231 457 231 442 216 c 1,31,32
 415 230 415 230 394 254.5 c 128,-1,33
 373 279 373 279 363 308 c 1,34,35
 316 275 316 275 283 243.5 c 128,-1,36
 250 212 250 212 226.5 173.5 c 128,-1,37
 203 135 203 135 186.5 85 c 128,-1,38
 170 35 170 35 155 -34 c 1,39,40
 146 -33 146 -33 133.5 -27.5 c 128,-1,41
 121 -22 121 -22 108.5 -14 c 128,-1,42
 96 -6 96 -6 86 3 c 128,-1,43
 76 12 76 12 73 20 c 1,0,1
EndSplineSet
EndChar

StartChar: s
Encoding: 115 115 308
Width: 346
Flags: W
LayerCount: 2
Fore
SplineSet
442 398 m 1,0,1
 441 379 441 379 435.5 358.5 c 128,-1,2
 430 338 430 338 422 321.5 c 128,-1,3
 414 305 414 305 405 294 c 128,-1,4
 396 283 396 283 388 283 c 0,5,6
 377 284 377 284 375 298 c 0,7,8
 375 301 375 301 377.5 307.5 c 128,-1,9
 380 314 380 314 383 322 c 128,-1,10
 386 330 386 330 388.5 338 c 128,-1,11
 391 346 391 346 391 352 c 0,12,13
 391 366 391 366 384.5 375.5 c 128,-1,14
 378 385 378 385 367 385 c 0,15,16
 327 385 327 385 306 335 c 128,-1,17
 285 285 285 285 285 188 c 0,18,19
 285 178 285 178 286 176 c 1,20,21
 307 177 307 177 323.5 177.5 c 128,-1,22
 340 178 340 178 356 178 c 1,23,24
 357 176 357 176 357 170 c 0,25,26
 357 161 357 161 353 157 c 1,27,28
 330 152 330 152 316.5 148.5 c 128,-1,29
 303 145 303 145 296 142 c 128,-1,30
 289 139 289 139 287.5 135.5 c 128,-1,31
 286 132 286 132 286 126 c 0,32,33
 286 118 286 118 286.5 110 c 128,-1,34
 287 102 287 102 287 90 c 0,35,36
 287 6 287 6 241.5 -45 c 128,-1,37
 196 -96 196 -96 115 -104 c 1,38,39
 101 -103 101 -103 86 -96 c 128,-1,40
 71 -89 71 -89 57.5 -78 c 128,-1,41
 44 -67 44 -67 34 -53.5 c 128,-1,42
 24 -40 24 -40 20 -26 c 1,43,44
 20 12 20 12 36 46.5 c 128,-1,45
 52 81 52 81 79.5 107.5 c 128,-1,46
 107 134 107 134 144.5 150.5 c 128,-1,47
 182 167 182 167 226 170 c 1,48,49
 226 195 226 195 221 219 c 128,-1,50
 216 243 216 243 210.5 265.5 c 128,-1,51
 205 288 205 288 200 309.5 c 128,-1,52
 195 331 195 331 195 352 c 0,53,54
 195 379 195 379 206 405.5 c 128,-1,55
 217 432 217 432 235 454.5 c 128,-1,56
 253 477 253 477 277 493 c 128,-1,57
 301 509 301 509 327 515 c 1,58,59
 338 512 338 512 356.5 497.5 c 128,-1,60
 375 483 375 483 393 465 c 128,-1,61
 411 447 411 447 425 428.5 c 128,-1,62
 439 410 439 410 442 398 c 1,0,1
112 -58 m 1,63,64
 136 -48 136 -48 157.5 -29 c 128,-1,65
 179 -10 179 -10 195 14 c 128,-1,66
 211 38 211 38 220.5 65 c 128,-1,67
 230 92 230 92 230 118 c 1,68,69
 210 115 210 115 186 99.5 c 128,-1,70
 162 84 162 84 141 62.5 c 128,-1,71
 120 41 120 41 106 18 c 128,-1,72
 92 -5 92 -5 92 -22 c 0,73,74
 92 -44 92 -44 112 -58 c 1,63,64
EndSplineSet
EndChar

StartChar: v
Encoding: 118 118 349
Width: 448
Flags: W
LayerCount: 2
Fore
SplineSet
152 354 m 256,0,1
 152 372 152 372 154.5 388 c 128,-1,2
 157 404 157 404 165 415.5 c 128,-1,3
 173 427 173 427 187 433.5 c 128,-1,4
 201 440 201 440 224 440 c 0,5,6
 238 440 238 440 255.5 437 c 128,-1,7
 273 434 273 434 281 426 c 1,8,9
 277 409 277 409 274.5 396 c 128,-1,10
 272 383 272 383 270.5 367.5 c 128,-1,11
 269 352 269 352 268 330.5 c 128,-1,12
 267 309 267 309 266 275 c 0,13,14
 264 207 264 207 259.5 153.5 c 128,-1,15
 255 100 255 100 239 47 c 1,16,17
 239 43 239 43 242 43 c 1,18,19
 257 54 257 54 276 75 c 128,-1,20
 295 96 295 96 316 122.5 c 128,-1,21
 337 149 337 149 358 179 c 128,-1,22
 379 209 379 209 397 238 c 1,23,24
 421 280 421 280 450 343 c 128,-1,25
 479 406 479 406 498 478 c 1,26,27
 504 478 504 478 513.5 475.5 c 128,-1,28
 523 473 523 473 532.5 469.5 c 128,-1,29
 542 466 542 466 549.5 462 c 128,-1,30
 557 458 557 458 560 455 c 1,31,32
 558 412 558 412 539.5 367 c 128,-1,33
 521 322 521 322 495 280 c 128,-1,34
 469 238 469 238 440 201 c 128,-1,35
 411 164 411 164 387 137 c 0,36,37
 339 81 339 81 290.5 37 c 128,-1,38
 242 -7 242 -7 175 -48 c 1,39,40
 149 -38 149 -38 134 -21.5 c 128,-1,41
 119 -5 119 -5 119 13 c 0,42,43
 119 25 119 25 124.5 40.5 c 128,-1,44
 130 56 130 56 137 80.5 c 128,-1,45
 144 105 144 105 149.5 142 c 128,-1,46
 155 179 155 179 155 236 c 0,47,48
 155 269 155 269 153.5 302.5 c 128,-1,49
 152 336 152 336 152 354 c 256,0,1
EndSplineSet
EndChar

StartChar: x
Encoding: 120 120 355
Width: 426
Flags: W
LayerCount: 2
Fore
SplineSet
408 6 m 1,0,1
 397 -11 397 -11 373.5 -21.5 c 128,-1,2
 350 -32 350 -32 329 -34 c 1,3,4
 312 -14 312 -14 291 20.5 c 128,-1,5
 270 55 270 55 251 101 c 1,6,7
 200 55 200 55 149 17.5 c 128,-1,8
 98 -20 98 -20 54 -46 c 1,9,10
 43 -44 43 -44 36 -34 c 128,-1,11
 29 -24 29 -24 28 -8 c 1,12,13
 48 3 48 3 75.5 21 c 128,-1,14
 103 39 103 39 131.5 60.5 c 128,-1,15
 160 82 160 82 186.5 105.5 c 128,-1,16
 213 129 213 129 232 151 c 1,17,18
 215 191 215 191 200.5 233.5 c 128,-1,19
 186 276 186 276 175.5 315.5 c 128,-1,20
 165 355 165 355 159 387.5 c 128,-1,21
 153 420 153 420 153 440 c 0,22,23
 153 454 153 454 156.5 458.5 c 128,-1,24
 160 463 160 463 173 463 c 0,25,26
 183 463 183 463 197.5 461 c 128,-1,27
 212 459 212 459 227 456 c 128,-1,28
 242 453 242 453 257 449.5 c 128,-1,29
 272 446 272 446 283 442 c 1,30,31
 281 431 281 431 281 423 c 128,-1,32
 281 415 281 415 281 400 c 0,33,34
 281 361 281 361 287.5 320.5 c 128,-1,35
 294 280 294 280 309 233 c 1,36,37
 350 280 350 280 385 337.5 c 128,-1,38
 420 395 420 395 456 475 c 1,39,40
 481 470 481 470 499 460.5 c 128,-1,41
 517 451 517 451 522 440 c 1,42,43
 511 394 511 394 460 324 c 128,-1,44
 409 254 409 254 330 175 c 1,45,46
 344 137 344 137 364 94.5 c 128,-1,47
 384 52 384 52 408 6 c 1,0,1
EndSplineSet
EndChar

StartChar: z
Encoding: 122 122 362
Width: 472
Flags: W
LayerCount: 2
Fore
SplineSet
61 14 m 1,0,1
 61 30 61 30 89 65.5 c 128,-1,2
 117 101 117 101 163.5 146.5 c 128,-1,3
 210 192 210 192 270.5 242.5 c 128,-1,4
 331 293 331 293 396 340 c 1,5,6
 354 349 354 349 329.5 353 c 128,-1,7
 305 357 305 357 290 357 c 0,8,9
 261 357 261 357 238 349 c 128,-1,10
 215 341 215 341 193 323 c 1,11,12
 147 363 147 363 147 415 c 0,13,14
 147 431 147 431 148 434 c 1,15,16
 165 451 165 451 188.5 460 c 128,-1,17
 212 469 212 469 238 469 c 0,18,19
 266 469 266 469 295 460 c 128,-1,20
 324 451 324 451 352 440.5 c 128,-1,21
 380 430 380 430 404.5 421 c 128,-1,22
 429 412 429 412 448 412 c 0,23,24
 459 412 459 412 472.5 415 c 128,-1,25
 486 418 486 418 495 423 c 1,26,27
 504 416 504 416 511.5 395 c 128,-1,28
 519 374 519 374 519 354 c 1,29,30
 488 342 488 342 444.5 312 c 128,-1,31
 401 282 401 282 356 243 c 128,-1,32
 311 204 311 204 268.5 160 c 128,-1,33
 226 116 226 116 198 77 c 1,34,35
 219 68 219 68 255 68 c 0,36,37
 278 68 278 68 302 72 c 128,-1,38
 326 76 326 76 348.5 83 c 128,-1,39
 371 90 371 90 390 99.5 c 128,-1,40
 409 109 409 109 422 120 c 1,41,42
 469 90 469 90 469 32 c 0,43,44
 469 24 469 24 468.5 19 c 128,-1,45
 468 14 468 14 467 7 c 1,46,47
 421 -22 421 -22 367 -22 c 0,48,49
 340 -22 340 -22 313 -16.5 c 128,-1,50
 286 -11 286 -11 260.5 -5 c 128,-1,51
 235 1 235 1 212.5 6.5 c 128,-1,52
 190 12 190 12 171 12 c 0,53,54
 123 12 123 12 93 -33 c 1,55,56
 80 -28 80 -28 71.5 -15 c 128,-1,57
 63 -2 63 -2 61 14 c 1,0,1
EndSplineSet
Substitution2: "'salt' Stylistic Alternatives in Latin lookup 3 subtable" z.alt
Substitution2: "'aalt' Access All Alternates in Latin lookup 0 subtable" z.alt
EndChar

StartChar: braceleft
Encoding: 123 123 154
Width: 335
Flags: W
LayerCount: 2
Fore
SplineSet
448 812 m 0,0,1
 465 812 465 812 480 804 c 128,-1,2
 495 796 495 796 518 772 c 1,3,4
 487 757 487 757 467 735.5 c 128,-1,5
 447 714 447 714 434 688 c 128,-1,6
 421 662 421 662 412.5 632 c 128,-1,7
 404 602 404 602 397 570 c 0,8,9
 389 537 389 537 379.5 503.5 c 128,-1,10
 370 470 370 470 353 440 c 128,-1,11
 336 410 336 410 310 386.5 c 128,-1,12
 284 363 284 363 243 349 c 1,13,14
 278 328 278 328 298 296.5 c 128,-1,15
 318 265 318 265 318 222 c 0,16,17
 318 183 318 183 303 140 c 128,-1,18
 288 97 288 97 270.5 56 c 128,-1,19
 253 15 253 15 238 -20 c 128,-1,20
 223 -55 223 -55 223 -79 c 0,21,22
 223 -108 223 -108 246.5 -122.5 c 128,-1,23
 270 -137 270 -137 310 -146 c 1,24,-1
 302 -162 l 1,25,26
 277 -158 277 -158 247.5 -150.5 c 128,-1,27
 218 -143 218 -143 193 -129 c 128,-1,28
 168 -115 168 -115 151 -93.5 c 128,-1,29
 134 -72 134 -72 134 -41 c 0,30,31
 134 -11 134 -11 148.5 25.5 c 128,-1,32
 163 62 163 62 180 101 c 128,-1,33
 197 140 197 140 211.5 179.5 c 128,-1,34
 226 219 226 219 226 254 c 0,35,36
 226 300 226 300 200.5 316 c 128,-1,37
 175 332 175 332 136 332 c 1,38,39
 129 336 129 336 125.5 341.5 c 128,-1,40
 122 347 122 347 121 352 c 1,41,-1
 156 368 l 2,42,43
 199 387 199 387 221 419.5 c 128,-1,44
 243 452 243 452 255.5 492 c 128,-1,45
 268 532 268 532 277 577.5 c 128,-1,46
 286 623 286 623 304 669 c 0,47,48
 316 700 316 700 331 726 c 128,-1,49
 346 752 346 752 364 771 c 128,-1,50
 382 790 382 790 403 801 c 128,-1,51
 424 812 424 812 448 812 c 0,0,1
EndSplineSet
EndChar

StartChar: bar
Encoding: 124 124 153
Width: 276
Flags: W
LayerCount: 2
Fore
SplineSet
98 -88 m 1,0,1
 99 -28 99 -28 113 53.5 c 128,-1,2
 127 135 127 135 149 225 c 128,-1,3
 171 315 171 315 199.5 407.5 c 128,-1,4
 228 500 228 500 258.5 581.5 c 128,-1,5
 289 663 289 663 320 728.5 c 128,-1,6
 351 794 351 794 378 830 c 1,7,8
 390 828 390 828 407.5 820 c 128,-1,9
 425 812 425 812 442 802.5 c 128,-1,10
 459 793 459 793 472.5 783 c 128,-1,11
 486 773 486 773 490 767 c 1,12,13
 448 721 448 721 411 654 c 128,-1,14
 374 587 374 587 342.5 508.5 c 128,-1,15
 311 430 311 430 285 344.5 c 128,-1,16
 259 259 259 259 238.5 174.5 c 128,-1,17
 218 90 218 90 203.5 12 c 128,-1,18
 189 -66 189 -66 180 -130 c 1,19,-1
 98 -88 l 1,0,1
EndSplineSet
EndChar

StartChar: braceright
Encoding: 125 125 155
Width: 335
Flags: W
LayerCount: 2
Fore
SplineSet
98 -162 m 0,0,1
 81 -162 81 -162 66 -154 c 128,-1,2
 51 -146 51 -146 28 -122 c 1,3,4
 59 -107 59 -107 79 -85.5 c 128,-1,5
 99 -64 99 -64 112 -38 c 128,-1,6
 125 -12 125 -12 133 18 c 128,-1,7
 141 48 141 48 149 80 c 0,8,9
 157 113 157 113 166.5 146.5 c 128,-1,10
 176 180 176 180 193 210 c 128,-1,11
 210 240 210 240 236 263.5 c 128,-1,12
 262 287 262 287 303 301 c 1,13,14
 268 322 268 322 248 353.5 c 128,-1,15
 228 385 228 385 228 428 c 0,16,17
 228 467 228 467 243 510 c 128,-1,18
 258 553 258 553 275.5 594 c 128,-1,19
 293 635 293 635 308 670 c 128,-1,20
 323 705 323 705 323 729 c 0,21,22
 323 758 323 758 299.5 772.5 c 128,-1,23
 276 787 276 787 236 796 c 1,24,-1
 244 812 l 1,25,26
 269 808 269 808 298.5 800.5 c 128,-1,27
 328 793 328 793 353 779 c 128,-1,28
 378 765 378 765 395 743.5 c 128,-1,29
 412 722 412 722 412 691 c 0,30,31
 412 661 412 661 397.5 624.5 c 128,-1,32
 383 588 383 588 366 549 c 128,-1,33
 349 510 349 510 334.5 470.5 c 128,-1,34
 320 431 320 431 320 396 c 0,35,36
 320 350 320 350 345.5 334 c 128,-1,37
 371 318 371 318 410 318 c 1,38,39
 417 314 417 314 420.5 308.5 c 128,-1,40
 424 303 424 303 425 298 c 1,41,-1
 390 282 l 2,42,43
 347 262 347 262 325 230 c 128,-1,44
 303 198 303 198 290.5 158 c 128,-1,45
 278 118 278 118 269 72.5 c 128,-1,46
 260 27 260 27 242 -19 c 0,47,48
 219 -81 219 -81 182 -121.5 c 128,-1,49
 145 -162 145 -162 98 -162 c 0,0,1
EndSplineSet
EndChar

StartChar: asciitilde
Encoding: 126 126 148
Width: 441
Flags: W
LayerCount: 2
Fore
SplineSet
138 269 m 1,0,1
 161 283 161 283 182.5 287 c 128,-1,2
 204 291 204 291 227 291 c 0,3,4
 256 291 256 291 284 286.5 c 128,-1,5
 312 282 312 282 339 282 c 0,6,7
 364 282 364 282 388 285.5 c 128,-1,8
 412 289 412 289 430 300 c 1,9,10
 444 286 444 286 453.5 263.5 c 128,-1,11
 463 241 463 241 467 221 c 1,12,13
 447 205 447 205 425.5 198.5 c 128,-1,14
 404 192 404 192 381 192 c 0,15,16
 352 192 352 192 331 198 c 128,-1,17
 310 204 310 204 289 211.5 c 128,-1,18
 268 219 268 219 243.5 225 c 128,-1,19
 219 231 219 231 182 231 c 0,20,21
 174 231 174 231 165.5 231 c 128,-1,22
 157 231 157 231 147 230 c 1,23,24
 142 237 142 237 141 247 c 128,-1,25
 140 257 140 257 138 269 c 1,0,1
EndSplineSet
EndChar

StartChar: exclamdown
Encoding: 161 161 205
Width: 274
Flags: W
LayerCount: 2
Fore
SplineSet
290 254 m 0,0,1
 290 227 290 227 275.5 175.5 c 128,-1,2
 261 124 261 124 238 61.5 c 128,-1,3
 215 -1 215 -1 186 -67.5 c 128,-1,4
 157 -134 157 -134 127.5 -192 c 128,-1,5
 98 -250 98 -250 70.5 -292.5 c 128,-1,6
 43 -335 43 -335 24 -349 c 1,7,8
 8 -346 8 -346 -10.5 -334.5 c 128,-1,9
 -29 -323 -29 -323 -45 -308.5 c 128,-1,10
 -61 -294 -61 -294 -73 -278 c 128,-1,11
 -85 -262 -85 -262 -87 -250 c 1,12,13
 -36 -208 -36 -208 14 -145.5 c 128,-1,14
 64 -83 64 -83 106.5 -7 c 128,-1,15
 149 69 149 69 181 155.5 c 128,-1,16
 213 242 213 242 229 332 c 1,17,18
 241 329 241 329 252.5 324.5 c 128,-1,19
 264 320 264 320 272 311.5 c 128,-1,20
 280 303 280 303 285 289.5 c 128,-1,21
 290 276 290 276 290 254 c 0,0,1
301 369 m 0,22,23
 289 369 289 369 278 374.5 c 128,-1,24
 267 380 267 380 258.5 387.5 c 128,-1,25
 250 395 250 395 245 403.5 c 128,-1,26
 240 412 240 412 240 417 c 0,27,28
 240 429 240 429 243 448 c 128,-1,29
 246 467 246 467 252 484.5 c 128,-1,30
 258 502 258 502 267 514.5 c 128,-1,31
 276 527 276 527 287 527 c 0,32,33
 315 527 315 527 343.5 507.5 c 128,-1,34
 372 488 372 488 386 464 c 1,35,36
 374 451 374 451 365 434.5 c 128,-1,37
 356 418 356 418 347 403.5 c 128,-1,38
 338 389 338 389 327 379 c 128,-1,39
 316 369 316 369 301 369 c 0,22,23
EndSplineSet
EndChar

StartChar: cent
Encoding: 162 162 388
Width: 505
Flags: W
LayerCount: 2
Fore
SplineSet
554 702 m 1,0,1
 546 676 546 676 539 653 c 128,-1,2
 532 630 532 630 524 607 c 1,3,4
 565 599 565 599 592.5 574 c 128,-1,5
 620 549 620 549 620 509 c 0,6,7
 620 486 620 486 613.5 464.5 c 128,-1,8
 607 443 607 443 596.5 426 c 128,-1,9
 586 409 586 409 572 398.5 c 128,-1,10
 558 388 558 388 544 388 c 0,11,12
 533 388 533 388 520.5 395.5 c 128,-1,13
 508 403 508 403 499 415 c 1,14,15
 566 476 566 476 566 526 c 0,16,17
 566 546 566 546 549.5 554.5 c 128,-1,18
 533 563 533 563 510 563 c 1,19,20
 489 495 489 495 470.5 438.5 c 128,-1,21
 452 382 452 382 435.5 334 c 128,-1,22
 419 286 419 286 403.5 244.5 c 128,-1,23
 388 203 388 203 373 167 c 1,24,25
 403 178 403 178 441.5 198.5 c 128,-1,26
 480 219 480 219 516 246 c 1,27,28
 520 243 520 243 523 237 c 128,-1,29
 526 231 526 231 526 226 c 1,30,31
 512 208 512 208 490 190.5 c 128,-1,32
 468 173 468 173 443 158 c 128,-1,33
 418 143 418 143 393.5 131 c 128,-1,34
 369 119 369 119 349 112 c 1,35,36
 332 74 332 74 313 38 c 128,-1,37
 294 2 294 2 272 -35 c 1,38,39
 257 -32 257 -32 254 -20 c 1,40,41
 265 2 265 2 279 34 c 128,-1,42
 293 66 293 66 308 108 c 1,43,44
 270 114 270 114 242 132.5 c 128,-1,45
 214 151 214 151 194.5 178 c 128,-1,46
 175 205 175 205 165.5 239 c 128,-1,47
 156 273 156 273 156 311 c 0,48,49
 156 364 156 364 176.5 415 c 128,-1,50
 197 466 197 466 235.5 507 c 128,-1,51
 274 548 274 548 329.5 575 c 128,-1,52
 385 602 385 602 456 608 c 1,53,54
 475 687 475 687 485 748 c 1,55,56
 506 742 506 742 522.5 731.5 c 128,-1,57
 539 721 539 721 554 702 c 1,0,1
267 257 m 0,58,59
 267 183 267 183 328 164 c 1,60,61
 358 250 358 250 388 351 c 128,-1,62
 418 452 418 452 442 549 c 1,63,64
 399 532 399 532 366 499 c 128,-1,65
 333 466 333 466 311 425.5 c 128,-1,66
 289 385 289 385 278 341 c 128,-1,67
 267 297 267 297 267 257 c 0,58,59
EndSplineSet
EndChar

StartChar: sterling
Encoding: 163 163 393
Width: 648
Flags: W
LayerCount: 2
Fore
SplineSet
249 286 m 0,0,1
 209 286 209 286 192.5 301 c 128,-1,2
 176 316 176 316 176 345 c 0,3,4
 176 361 176 361 180 374 c 1,5,6
 191 372 191 372 199 371 c 128,-1,7
 207 370 207 370 215 369.5 c 128,-1,8
 223 369 223 369 232.5 368.5 c 128,-1,9
 242 368 242 368 257 368 c 0,10,11
 269 368 269 368 281.5 368 c 128,-1,12
 294 368 294 368 306 369 c 1,13,-1
 319 418 l 2,14,15
 339 493 339 493 362 550 c 128,-1,16
 385 607 385 607 417 647 c 128,-1,17
 449 687 449 687 494 709 c 128,-1,18
 539 731 539 731 602 736 c 1,19,20
 654 716 654 716 681 688.5 c 128,-1,21
 708 661 708 661 708 620 c 0,22,23
 708 590 708 590 692.5 555 c 128,-1,24
 677 520 677 520 646 473 c 1,25,26
 630 478 630 478 614 494 c 128,-1,27
 598 510 598 510 591 530 c 1,28,29
 632 558 632 558 648 583 c 128,-1,30
 664 608 664 608 664 633 c 0,31,32
 664 650 664 650 655.5 666 c 128,-1,33
 647 682 647 682 618 695 c 1,34,35
 579 689 579 689 551 659 c 128,-1,36
 523 629 523 629 501.5 585 c 128,-1,37
 480 541 480 541 462.5 487 c 128,-1,38
 445 433 445 433 427 378 c 1,39,40
 464 382 464 382 490 385 c 128,-1,41
 516 388 516 388 527 388 c 0,42,43
 547 388 547 388 561.5 371.5 c 128,-1,44
 576 355 576 355 584 310 c 1,45,46
 559 313 559 313 543 314 c 128,-1,47
 527 315 527 315 512 315 c 0,48,49
 483 315 483 315 455.5 312.5 c 128,-1,50
 428 310 428 310 402 306 c 1,51,52
 374 233 374 233 348.5 189 c 128,-1,53
 323 145 323 145 301.5 121 c 128,-1,54
 280 97 280 97 262.5 87 c 128,-1,55
 245 77 245 77 233 73 c 1,56,57
 273 73 273 73 321 64 c 128,-1,58
 369 55 369 55 418 55 c 0,59,60
 463 55 463 55 507 68.5 c 128,-1,61
 551 82 551 82 592 118 c 1,62,63
 603 101 603 101 611 76 c 128,-1,64
 619 51 619 51 619 24 c 0,65,66
 619 8 619 8 616 -5 c 1,67,68
 571 -34 571 -34 530.5 -45.5 c 128,-1,69
 490 -57 490 -57 451 -57 c 0,70,71
 410 -57 410 -57 371.5 -47.5 c 128,-1,72
 333 -38 333 -38 296.5 -27 c 128,-1,73
 260 -16 260 -16 225 -6.5 c 128,-1,74
 190 3 190 3 154 3 c 0,75,76
 135 3 135 3 120 -2 c 128,-1,77
 105 -7 105 -7 98 -24 c 1,78,79
 87 -24 87 -24 76 -4.5 c 128,-1,80
 65 15 65 15 63 39 c 1,81,82
 110 55 110 55 144.5 79.5 c 128,-1,83
 179 104 179 104 204.5 136 c 128,-1,84
 230 168 230 168 248 206 c 128,-1,85
 266 244 266 244 281 288 c 1,86,87
 273 287 273 287 265 286.5 c 128,-1,88
 257 286 257 286 249 286 c 0,0,1
EndSplineSet
EndChar

StartChar: currency
Encoding: 164 164 389
Width: 619
Flags: W
LayerCount: 2
Fore
SplineSet
600 440 m 0,0,1
 600 376 600 376 575.5 321 c 128,-1,2
 551 266 551 266 513 224 c 1,3,4
 544 180 544 180 567.5 155 c 128,-1,5
 591 130 591 130 617 113 c 1,6,7
 614 101 614 101 606.5 93 c 128,-1,8
 599 85 599 85 588 84 c 1,9,10
 574 96 574 96 561.5 107 c 128,-1,11
 549 118 549 118 537 131 c 128,-1,12
 525 144 525 144 512 159.5 c 128,-1,13
 499 175 499 175 484 195 c 1,14,15
 451 166 451 166 416 149.5 c 128,-1,16
 381 133 381 133 351 133 c 0,17,18
 320 133 320 133 294 152 c 1,19,20
 265 130 265 130 235 109.5 c 128,-1,21
 205 89 205 89 186 78 c 1,22,23
 175 80 175 80 169 89.5 c 128,-1,24
 163 99 163 99 162 112 c 1,25,26
 179 120 179 120 208.5 138.5 c 128,-1,27
 238 157 238 157 267 180 c 1,28,29
 255 197 255 197 247.5 221 c 128,-1,30
 240 245 240 245 240 276 c 0,31,32
 240 321 240 321 258.5 373 c 128,-1,33
 277 425 277 425 309 471 c 1,34,35
 289 507 289 507 271 543.5 c 128,-1,36
 253 580 253 580 236 618 c 1,37,38
 248 641 248 641 283 641 c 0,39,40
 287 641 287 641 291 640.5 c 128,-1,41
 295 640 295 640 300 639 c 1,42,43
 308 588 308 588 343 513 c 1,44,45
 372 545 372 545 407 565 c 128,-1,46
 442 585 442 585 478 585 c 0,47,48
 513 585 513 585 540 566.5 c 128,-1,49
 567 548 567 548 583 516 c 1,50,51
 601 543 601 543 614 568 c 128,-1,52
 627 593 627 593 633 613 c 1,53,54
 679 613 679 613 693 581 c 1,55,56
 670 549 670 549 646.5 517 c 128,-1,57
 623 485 623 485 599 453 c 1,58,59
 600 450 600 450 600 446.5 c 128,-1,60
 600 443 600 443 600 440 c 0,0,1
505 509 m 0,61,62
 467 509 467 509 434.5 483 c 128,-1,63
 402 457 402 457 377.5 416.5 c 128,-1,64
 353 376 353 376 339 327 c 128,-1,65
 325 278 325 278 325 231 c 0,66,67
 325 196 325 196 336.5 180.5 c 128,-1,68
 348 165 348 165 363 165 c 0,69,70
 382 165 382 165 403.5 180 c 128,-1,71
 425 195 425 195 445 219.5 c 128,-1,72
 465 244 465 244 483.5 275.5 c 128,-1,73
 502 307 502 307 516 339.5 c 128,-1,74
 530 372 530 372 538 402.5 c 128,-1,75
 546 433 546 433 546 457 c 0,76,77
 546 509 546 509 505 509 c 0,61,62
EndSplineSet
EndChar

StartChar: yen
Encoding: 165 165 386
Width: 681
Flags: W
LayerCount: 2
Fore
SplineSet
342 250 m 0,0,1
 307 250 307 250 291.5 266.5 c 128,-1,2
 276 283 276 283 276 309 c 0,3,4
 276 325 276 325 280 338 c 1,5,6
 297 336 297 336 312 334 c 128,-1,7
 327 332 327 332 351 332 c 0,8,9
 365 332 365 332 379.5 332 c 128,-1,10
 394 332 394 332 408 333 c 1,11,12
 385 402 385 402 364 462.5 c 128,-1,13
 343 523 343 523 323.5 571.5 c 128,-1,14
 304 620 304 620 285.5 656 c 128,-1,15
 267 692 267 692 250 711 c 1,16,17
 260 715 260 715 280.5 719 c 128,-1,18
 301 723 301 723 325.5 727 c 128,-1,19
 350 731 350 731 375.5 733.5 c 128,-1,20
 401 736 401 736 421 737 c 1,21,22
 421 712 421 712 425.5 676 c 128,-1,23
 430 640 430 640 437.5 599 c 128,-1,24
 445 558 445 558 455 516 c 128,-1,25
 465 474 465 474 475 439 c 128,-1,26
 485 404 485 404 494.5 378.5 c 128,-1,27
 504 353 504 353 511 345 c 1,28,29
 586 427 586 427 645.5 519 c 128,-1,30
 705 611 705 611 756 726 c 1,31,32
 782 723 782 723 806 712 c 128,-1,33
 830 701 830 701 844 687 c 1,34,35
 798 632 798 632 760 586 c 128,-1,36
 722 540 722 540 689 499 c 128,-1,37
 656 458 656 458 628 420.5 c 128,-1,38
 600 383 600 383 574 347 c 1,39,40
 593 349 593 349 606.5 350.5 c 128,-1,41
 620 352 620 352 629 352 c 0,42,43
 648 352 648 352 662.5 334 c 128,-1,44
 677 316 677 316 684 274 c 1,45,46
 659 277 659 277 643 278 c 128,-1,47
 627 279 627 279 615 279 c 0,48,49
 592 279 592 279 570.5 277.5 c 128,-1,50
 549 276 549 276 529 274 c 1,51,52
 522 251 522 251 516 227.5 c 128,-1,53
 510 204 510 204 504 181 c 1,54,55
 531 184 531 184 550.5 186.5 c 128,-1,56
 570 189 570 189 581 189 c 0,57,58
 600 189 600 189 614.5 171 c 128,-1,59
 629 153 629 153 636 111 c 1,60,61
 611 114 611 114 595 115 c 128,-1,62
 579 116 579 116 567 116 c 0,63,64
 545 116 545 116 525.5 114.5 c 128,-1,65
 506 113 506 113 487 111 c 1,66,67
 475 55 475 55 468 7.5 c 128,-1,68
 461 -40 461 -40 461 -73 c 1,69,70
 450 -73 450 -73 426 -68.5 c 128,-1,71
 402 -64 402 -64 377 -58 c 128,-1,72
 352 -52 352 -52 331.5 -46 c 128,-1,73
 311 -40 311 -40 307 -36 c 1,74,75
 321 -12 321 -12 334.5 21 c 128,-1,76
 348 54 348 54 362 92 c 1,77,78
 345 90 345 90 328 88.5 c 128,-1,79
 311 87 311 87 294 87 c 0,80,81
 259 87 259 87 243.5 103.5 c 128,-1,82
 228 120 228 120 228 146 c 0,83,84
 228 162 228 162 232 175 c 1,85,86
 249 173 249 173 264 171 c 128,-1,87
 279 169 279 169 303 169 c 0,88,89
 326 169 326 169 347 169.5 c 128,-1,90
 368 170 368 170 388 171 c 1,91,92
 396 193 396 193 402 214.5 c 128,-1,93
 408 236 408 236 415 256 c 1,94,95
 397 254 397 254 378.5 252 c 128,-1,96
 360 250 360 250 342 250 c 0,0,1
EndSplineSet
EndChar

StartChar: brokenbar
Encoding: 166 166 160
Width: 268
Flags: W
LayerCount: 2
Fore
SplineSet
212 435 m 1,0,1
 228 499 228 499 247.5 559 c 128,-1,2
 267 619 267 619 287.5 671 c 128,-1,3
 308 723 308 723 328.5 763.5 c 128,-1,4
 349 804 349 804 368 830 c 1,5,6
 380 828 380 828 399 820 c 128,-1,7
 418 812 418 812 436.5 802.5 c 128,-1,8
 455 793 455 793 470 783 c 128,-1,9
 485 773 485 773 489 767 c 1,10,11
 460 735 460 735 433 693 c 128,-1,12
 406 651 406 651 381.5 602.5 c 128,-1,13
 357 554 357 554 335.5 499.5 c 128,-1,14
 314 445 314 445 295 388 c 1,15,-1
 212 435 l 1,0,1
155 334 m 1,16,17
 165 334 165 334 181.5 329 c 128,-1,18
 198 324 198 324 216 316.5 c 128,-1,19
 234 309 234 309 250.5 300 c 128,-1,20
 267 291 267 291 277 283 c 1,21,22
 230 169 230 169 207 69.5 c 128,-1,23
 184 -30 184 -30 179 -130 c 1,24,-1
 99 -91 l 1,25,26
 99 -65 99 -65 101 -29 c 128,-1,27
 103 7 103 7 106.5 47.5 c 128,-1,28
 110 88 110 88 114.5 130.5 c 128,-1,29
 119 173 119 173 125 211.5 c 128,-1,30
 131 250 131 250 138.5 282 c 128,-1,31
 146 314 146 314 155 334 c 1,16,17
EndSplineSet
EndChar

StartChar: section
Encoding: 167 167 377
Width: 415
Flags: W
LayerCount: 2
Fore
SplineSet
392 629 m 1,0,1
 424 627 424 627 453.5 609 c 128,-1,2
 483 591 483 591 502 565 c 1,3,4
 475 561 475 561 449 549.5 c 128,-1,5
 423 538 423 538 402.5 521.5 c 128,-1,6
 382 505 382 505 369 484 c 128,-1,7
 356 463 356 463 356 441 c 0,8,9
 356 417 356 417 370 397.5 c 128,-1,10
 384 378 384 378 401 359.5 c 128,-1,11
 418 341 418 341 432 321 c 128,-1,12
 446 301 446 301 446 276 c 0,13,14
 446 253 446 253 433 232 c 128,-1,15
 420 211 420 211 398.5 194 c 128,-1,16
 377 177 377 177 349.5 165 c 128,-1,17
 322 153 322 153 294 148 c 1,18,19
 289 153 289 153 285 160 c 128,-1,20
 281 167 281 167 281 176 c 1,21,22
 290 183 290 183 304 193.5 c 128,-1,23
 318 204 318 204 330.5 217.5 c 128,-1,24
 343 231 343 231 352.5 247 c 128,-1,25
 362 263 362 263 362 283 c 256,26,27
 362 303 362 303 351.5 318 c 128,-1,28
 341 333 341 333 325 345.5 c 128,-1,29
 309 358 309 358 290 369 c 128,-1,30
 271 380 271 380 255 393.5 c 128,-1,31
 239 407 239 407 228.5 423.5 c 128,-1,32
 218 440 218 440 218 463 c 0,33,34
 218 495 218 495 237.5 522.5 c 128,-1,35
 257 550 257 550 284.5 571 c 128,-1,36
 312 592 312 592 342 606.5 c 128,-1,37
 372 621 372 621 392 629 c 1,0,1
252 347 m 1,38,39
 267 343 267 343 287 330.5 c 128,-1,40
 307 318 307 318 325 301 c 1,41,42
 310 295 310 295 293 284 c 128,-1,43
 276 273 276 273 262.5 259 c 128,-1,44
 249 245 249 245 240 228.5 c 128,-1,45
 231 212 231 212 231 195 c 0,46,47
 231 168 231 168 252.5 148.5 c 128,-1,48
 274 129 274 129 299.5 110.5 c 128,-1,49
 325 92 325 92 346.5 71.5 c 128,-1,50
 368 51 368 51 368 21 c 0,51,52
 368 -7 368 -7 348 -35.5 c 128,-1,53
 328 -64 328 -64 296.5 -87 c 128,-1,54
 265 -110 265 -110 227 -124.5 c 128,-1,55
 189 -139 189 -139 153 -139 c 0,56,57
 116 -139 116 -139 101 -124.5 c 128,-1,58
 86 -110 86 -110 86 -90 c 0,59,60
 86 -73 86 -73 95 -56 c 128,-1,61
 104 -39 104 -39 121 -25 c 1,62,63
 118 -36 118 -36 117 -44 c 128,-1,64
 116 -52 116 -52 116 -59 c 0,65,66
 116 -81 116 -81 125.5 -89 c 128,-1,67
 135 -97 135 -97 149 -97 c 0,68,69
 168 -97 168 -97 190 -84.5 c 128,-1,70
 212 -72 212 -72 230.5 -54 c 128,-1,71
 249 -36 249 -36 261 -15 c 128,-1,72
 273 6 273 6 273 24 c 0,73,74
 273 41 273 41 261 52 c 128,-1,75
 249 63 249 63 231.5 71.5 c 128,-1,76
 214 80 214 80 193 88.5 c 128,-1,77
 172 97 172 97 154.5 109 c 128,-1,78
 137 121 137 121 125 138.5 c 128,-1,79
 113 156 113 156 113 184 c 0,80,81
 113 211 113 211 124.5 236.5 c 128,-1,82
 136 262 136 262 155 284 c 128,-1,83
 174 306 174 306 199 322.5 c 128,-1,84
 224 339 224 339 252 347 c 1,38,39
EndSplineSet
EndChar

StartChar: dieresis
Encoding: 168 168 180
Width: 305
Flags: W
LayerCount: 2
Fore
SplineSet
20 605 m 1,0,1
 20 620 20 620 22 636.5 c 128,-1,2
 24 653 24 653 30 666.5 c 128,-1,3
 36 680 36 680 47.5 689.5 c 128,-1,4
 59 699 59 699 78 700 c 1,5,6
 91 698 91 698 113.5 685.5 c 128,-1,7
 136 673 136 673 146 656 c 1,8,9
 146 656 146 656 136 640 c 128,-1,10
 126 624 126 624 113.5 604.5 c 128,-1,11
 101 585 101 585 88.5 567.5 c 128,-1,12
 76 550 76 550 71 546 c 1,13,14
 50 555 50 555 37.5 571 c 128,-1,15
 25 587 25 587 20 605 c 1,0,1
151 583 m 1,16,17
 151 599 151 599 153 615.5 c 128,-1,18
 155 632 155 632 161 645.5 c 128,-1,19
 167 659 167 659 178 668 c 128,-1,20
 189 677 189 677 207 678 c 0,21,22
 213 678 213 678 222.5 674 c 128,-1,23
 232 670 232 670 242 664 c 128,-1,24
 252 658 252 658 261 650 c 128,-1,25
 270 642 270 642 276 634 c 0,26,27
 276 633 276 633 266.5 617 c 128,-1,28
 257 601 257 601 244 582 c 128,-1,29
 231 563 231 563 218 546 c 128,-1,30
 205 529 205 529 199 526 c 1,31,32
 179 534 179 534 167.5 550 c 128,-1,33
 156 566 156 566 151 583 c 1,16,17
EndSplineSet
EndChar

StartChar: copyright
Encoding: 169 169 394
Width: 667
Flags: W
LayerCount: 2
Fore
SplineSet
536 467 m 0,0,1
 572 467 572 467 590 445 c 128,-1,2
 608 423 608 423 608 396 c 0,3,4
 608 370 608 370 590 348 c 128,-1,5
 572 326 572 326 531 325 c 1,6,7
 533 328 533 328 540 336 c 128,-1,8
 547 344 547 344 554.5 353.5 c 128,-1,9
 562 363 562 363 568 373 c 128,-1,10
 574 383 574 383 574 391 c 256,11,12
 574 399 574 399 569.5 404 c 128,-1,13
 565 409 565 409 551 411 c 1,14,15
 529 406 529 406 506 389 c 128,-1,16
 483 372 483 372 464.5 349.5 c 128,-1,17
 446 327 446 327 434.5 303.5 c 128,-1,18
 423 280 423 280 423 264 c 0,19,20
 423 236 423 236 453 236 c 0,21,22
 465 236 465 236 477 240.5 c 128,-1,23
 489 245 489 245 501 250.5 c 128,-1,24
 513 256 513 256 524.5 261 c 128,-1,25
 536 266 536 266 546 267 c 0,26,27
 552 267 552 267 554 258 c 1,28,29
 553 255 553 255 539.5 246 c 128,-1,30
 526 237 526 237 507.5 226.5 c 128,-1,31
 489 216 489 216 468 206.5 c 128,-1,32
 447 197 447 197 431 195 c 1,33,34
 392 200 392 200 373 219 c 128,-1,35
 354 238 354 238 354 268 c 0,36,37
 354 297 354 297 370 331.5 c 128,-1,38
 386 366 386 366 411.5 396 c 128,-1,39
 437 426 437 426 470 446.5 c 128,-1,40
 503 467 503 467 536 467 c 0,0,1
679 248 m 1,41,42
 655 205 655 205 621.5 167.5 c 128,-1,43
 588 130 588 130 546 102.5 c 128,-1,44
 504 75 504 75 455 59 c 128,-1,45
 406 43 406 43 351 43 c 0,46,47
 300 43 300 43 261.5 57 c 128,-1,48
 223 71 223 71 197.5 95.5 c 128,-1,49
 172 120 172 120 159 153 c 128,-1,50
 146 186 146 186 146 224 c 0,51,52
 146 265 146 265 159.5 309.5 c 128,-1,53
 173 354 173 354 196.5 397 c 128,-1,54
 220 440 220 440 252 478.5 c 128,-1,55
 284 517 284 517 322 546.5 c 128,-1,56
 360 576 360 576 401.5 593.5 c 128,-1,57
 443 611 443 611 485 611 c 0,58,59
 528 611 528 611 571 592.5 c 128,-1,60
 614 574 614 574 648.5 542.5 c 128,-1,61
 683 511 683 511 705 468 c 128,-1,62
 727 425 727 425 727 376 c 0,63,64
 727 352 727 352 719.5 324.5 c 128,-1,65
 712 297 712 297 690 265 c 1,66,-1
 688 272 l 1,67,68
 696 291 696 291 699.5 315.5 c 128,-1,69
 703 340 703 340 703 356 c 0,70,71
 703 395 703 395 686.5 430.5 c 128,-1,72
 670 466 670 466 644.5 493 c 128,-1,73
 619 520 619 520 588.5 536 c 128,-1,74
 558 552 558 552 530 552 c 256,75,76
 502 552 502 552 470.5 536 c 128,-1,77
 439 520 439 520 408 494 c 128,-1,78
 377 468 377 468 348.5 433.5 c 128,-1,79
 320 399 320 399 298.5 362 c 128,-1,80
 277 325 277 325 264.5 288 c 128,-1,81
 252 251 252 251 252 220 c 0,82,83
 252 171 252 171 286.5 140 c 128,-1,84
 321 109 321 109 394 109 c 0,85,86
 430 109 430 109 467.5 117.5 c 128,-1,87
 505 126 505 126 542 143.5 c 128,-1,88
 579 161 579 161 612.5 188 c 128,-1,89
 646 215 646 215 674 252 c 1,90,-1
 679 248 l 1,41,42
EndSplineSet
EndChar

StartChar: ordfeminine
Encoding: 170 170 411
Width: 371
Flags: W
LayerCount: 2
Fore
SplineSet
469 682 m 1,0,1
 476 682 476 682 485.5 679.5 c 128,-1,2
 495 677 495 677 503.5 674 c 128,-1,3
 512 671 512 671 517 667 c 128,-1,4
 522 663 522 663 522 660 c 1,5,6
 493 608 493 608 475 557.5 c 128,-1,7
 457 507 457 507 457 475 c 0,8,9
 457 439 457 439 476 430 c 1,10,11
 468 425 468 425 454 422 c 128,-1,12
 440 419 440 419 429 419 c 0,13,14
 390 419 390 419 390 465 c 0,15,16
 390 501 390 501 417 561 c 1,17,18
 401 533 401 533 381.5 508 c 128,-1,19
 362 483 362 483 341.5 463.5 c 128,-1,20
 321 444 321 444 300.5 432 c 128,-1,21
 280 420 280 420 262 418 c 1,22,23
 236 419 236 419 219.5 440 c 128,-1,24
 203 461 203 461 203 493 c 0,25,26
 203 527 203 527 220.5 565.5 c 128,-1,27
 238 604 238 604 265.5 637 c 128,-1,28
 293 670 293 670 325.5 691.5 c 128,-1,29
 358 713 358 713 388 715 c 1,30,31
 395 713 395 713 404.5 707.5 c 128,-1,32
 414 702 414 702 422 695 c 128,-1,33
 430 688 430 688 435.5 680 c 128,-1,34
 441 672 441 672 442 666 c 1,35,36
 412 662 412 662 381 641.5 c 128,-1,37
 350 621 350 621 324.5 592.5 c 128,-1,38
 299 564 299 564 283 531 c 128,-1,39
 267 498 267 498 267 470 c 0,40,41
 267 457 267 457 277 455 c 1,42,43
 298 459 298 459 328.5 485.5 c 128,-1,44
 359 512 359 512 399 569 c 0,45,46
 415 592 415 592 434.5 622.5 c 128,-1,47
 454 653 454 653 469 682 c 1,0,1
EndSplineSet
EndChar

StartChar: guillemotleft
Encoding: 171 171 223
Width: 1074
Flags: W
LayerCount: 2
Fore
SplineSet
470 52 m 1,0,1
 398 68 398 68 337 87 c 128,-1,2
 276 106 276 106 216 141 c 0,3,4
 193 155 193 155 173.5 171.5 c 128,-1,5
 154 188 154 188 137 214 c 0,6,7
 129 226 129 226 122.5 242.5 c 128,-1,8
 116 259 116 259 115 278 c 1,9,10
 125 289 125 289 145 297.5 c 128,-1,11
 165 306 165 306 189.5 313 c 128,-1,12
 214 320 214 320 241 326 c 128,-1,13
 268 332 268 332 292 339 c 0,14,15
 329 349 329 349 359.5 361 c 128,-1,16
 390 373 390 373 421.5 389 c 128,-1,17
 453 405 453 405 488.5 425.5 c 128,-1,18
 524 446 524 446 570 475 c 1,19,20
 584 469 584 469 597.5 457 c 128,-1,21
 611 445 611 445 622 431.5 c 128,-1,22
 633 418 633 418 639.5 404 c 128,-1,23
 646 390 646 390 646 380 c 0,24,25
 646 362 646 362 636 346 c 128,-1,26
 626 330 626 330 615 317 c 1,27,28
 608 330 608 330 593 330 c 0,29,30
 582 330 582 330 567.5 327 c 128,-1,31
 553 324 553 324 543 322 c 0,32,33
 511 314 511 314 466 300 c 128,-1,34
 421 286 421 286 374.5 270.5 c 128,-1,35
 328 255 328 255 287 240.5 c 128,-1,36
 246 226 246 226 221 219 c 1,37,38
 225 211 225 211 231.5 204 c 128,-1,39
 238 197 238 197 248.5 189 c 128,-1,40
 259 181 259 181 276 171 c 128,-1,41
 293 161 293 161 319 147 c 0,42,43
 330 141 330 141 347.5 133.5 c 128,-1,44
 365 126 365 126 384.5 118.5 c 128,-1,45
 404 111 404 111 423.5 104.5 c 128,-1,46
 443 98 443 98 458 93 c 0,47,48
 464 91 464 91 477.5 87.5 c 128,-1,49
 491 84 491 84 496 82 c 1,50,51
 495 73 495 73 486.5 64 c 128,-1,52
 478 55 478 55 470 52 c 1,0,1
980 52 m 1,53,54
 908 68 908 68 847 87 c 128,-1,55
 786 106 786 106 726 141 c 0,56,57
 703 155 703 155 683.5 171.5 c 128,-1,58
 664 188 664 188 647 214 c 0,59,60
 639 226 639 226 632.5 242.5 c 128,-1,61
 626 259 626 259 625 278 c 1,62,63
 635 289 635 289 655 297.5 c 128,-1,64
 675 306 675 306 699.5 313 c 128,-1,65
 724 320 724 320 751 326 c 128,-1,66
 778 332 778 332 802 339 c 0,67,68
 839 349 839 349 869.5 361 c 128,-1,69
 900 373 900 373 931.5 389 c 128,-1,70
 963 405 963 405 998.5 425.5 c 128,-1,71
 1034 446 1034 446 1080 475 c 1,72,73
 1094 469 1094 469 1107.5 457 c 128,-1,74
 1121 445 1121 445 1132 431.5 c 128,-1,75
 1143 418 1143 418 1149.5 404 c 128,-1,76
 1156 390 1156 390 1156 380 c 0,77,78
 1156 362 1156 362 1146 346 c 128,-1,79
 1136 330 1136 330 1125 317 c 1,80,81
 1118 330 1118 330 1103 330 c 0,82,83
 1092 330 1092 330 1077.5 327 c 128,-1,84
 1063 324 1063 324 1053 322 c 0,85,86
 1021 314 1021 314 976 300 c 128,-1,87
 931 286 931 286 884.5 270.5 c 128,-1,88
 838 255 838 255 797 240.5 c 128,-1,89
 756 226 756 226 731 219 c 1,90,91
 735 211 735 211 741.5 204 c 128,-1,92
 748 197 748 197 758.5 189 c 128,-1,93
 769 181 769 181 786 171 c 128,-1,94
 803 161 803 161 829 147 c 0,95,96
 840 141 840 141 857.5 133.5 c 128,-1,97
 875 126 875 126 894.5 118.5 c 128,-1,98
 914 111 914 111 933.5 104.5 c 128,-1,99
 953 98 953 98 968 93 c 0,100,101
 974 91 974 91 987.5 87.5 c 128,-1,102
 1001 84 1001 84 1006 82 c 1,103,104
 1005 73 1005 73 996.5 64 c 128,-1,105
 988 55 988 55 980 52 c 1,53,54
EndSplineSet
EndChar

StartChar: logicalnot
Encoding: 172 172 254
Width: 602
Flags: W
LayerCount: 2
Fore
SplineSet
581 328 m 0,0,1
 581 311 581 311 584 290 c 128,-1,2
 587 269 587 269 590.5 246.5 c 128,-1,3
 594 224 594 224 597 200.5 c 128,-1,4
 600 177 600 177 600 156 c 0,5,6
 600 122 600 122 588.5 99.5 c 128,-1,7
 577 77 577 77 543 77 c 0,8,9
 538 77 538 77 528 79 c 128,-1,10
 518 81 518 81 513 83 c 1,11,12
 520 118 520 118 520 161 c 0,13,14
 520 196 520 196 515.5 231.5 c 128,-1,15
 511 267 511 267 504 300 c 1,16,17
 461 300 461 300 420.5 295.5 c 128,-1,18
 380 291 380 291 343.5 285 c 128,-1,19
 307 279 307 279 276 274.5 c 128,-1,20
 245 270 245 270 220 270 c 0,21,22
 186 270 186 270 167 284 c 128,-1,23
 148 298 148 298 148 338 c 0,24,25
 148 343 148 343 150 353 c 128,-1,26
 152 363 152 363 154 368 c 1,27,28
 171 365 171 365 186 364.5 c 128,-1,29
 201 364 201 364 225 364 c 0,30,31
 302 364 302 364 357.5 366.5 c 128,-1,32
 413 369 413 369 454.5 373.5 c 128,-1,33
 496 378 496 378 527 384 c 128,-1,34
 558 390 558 390 586 397 c 1,35,36
 583 372 583 372 582 356 c 128,-1,37
 581 340 581 340 581 328 c 0,0,1
EndSplineSet
EndChar

StartChar: uni00AD
Encoding: 173 173 335
Width: 526
Flags: W
LayerCount: 2
Fore
SplineSet
204 186 m 0,0,1
 173 186 173 186 154.5 203.5 c 128,-1,2
 136 221 136 221 136 252 c 0,3,4
 136 257 136 257 138 267 c 128,-1,5
 140 277 140 277 142 282 c 1,6,7
 159 279 159 279 174 278.5 c 128,-1,8
 189 278 189 278 213 278 c 0,9,10
 264 278 264 278 308.5 281 c 128,-1,11
 353 284 353 284 389 288 c 128,-1,12
 425 292 425 292 451 295 c 128,-1,13
 477 298 477 298 491 298 c 0,14,15
 510 298 510 298 524.5 275 c 128,-1,16
 539 252 539 252 546 209 c 1,17,18
 521 212 521 212 505 213 c 128,-1,19
 489 214 489 214 477 214 c 0,20,21
 434 214 434 214 397 209.5 c 128,-1,22
 360 205 360 205 327 200 c 128,-1,23
 294 195 294 195 264 190.5 c 128,-1,24
 234 186 234 186 204 186 c 0,0,1
EndSplineSet
EndChar

StartChar: registered
Encoding: 174 174 395
Width: 666
Flags: W
LayerCount: 2
Fore
SplineSet
679 248 m 1,0,1
 655 205 655 205 621 167.5 c 128,-1,2
 587 130 587 130 545 102.5 c 128,-1,3
 503 75 503 75 454 59 c 128,-1,4
 405 43 405 43 350 43 c 0,5,6
 299 43 299 43 260.5 57 c 128,-1,7
 222 71 222 71 196.5 95.5 c 128,-1,8
 171 120 171 120 158.5 153 c 128,-1,9
 146 186 146 186 146 224 c 0,10,11
 146 265 146 265 159.5 309.5 c 128,-1,12
 173 354 173 354 196.5 397 c 128,-1,13
 220 440 220 440 252 478.5 c 128,-1,14
 284 517 284 517 322 546.5 c 128,-1,15
 360 576 360 576 401.5 593.5 c 128,-1,16
 443 611 443 611 485 611 c 0,17,18
 528 611 528 611 571 592.5 c 128,-1,19
 614 574 614 574 648.5 542.5 c 128,-1,20
 683 511 683 511 705 468 c 128,-1,21
 727 425 727 425 727 376 c 0,22,23
 727 352 727 352 719.5 324.5 c 128,-1,24
 712 297 712 297 689 265 c 1,25,-1
 687 272 l 1,26,27
 696 291 696 291 699.5 315.5 c 128,-1,28
 703 340 703 340 703 356 c 0,29,30
 703 395 703 395 686.5 430.5 c 128,-1,31
 670 466 670 466 644.5 493 c 128,-1,32
 619 520 619 520 588.5 536 c 128,-1,33
 558 552 558 552 530 552 c 256,34,35
 502 552 502 552 470 536 c 128,-1,36
 438 520 438 520 407 494 c 128,-1,37
 376 468 376 468 348 433.5 c 128,-1,38
 320 399 320 399 298.5 362 c 128,-1,39
 277 325 277 325 264 288 c 128,-1,40
 251 251 251 251 251 220 c 0,41,42
 251 171 251 171 286 140 c 128,-1,43
 321 109 321 109 394 109 c 0,44,45
 430 109 430 109 467.5 117.5 c 128,-1,46
 505 126 505 126 542 143.5 c 128,-1,47
 579 161 579 161 612.5 188 c 128,-1,48
 646 215 646 215 674 252 c 1,49,-1
 679 248 l 1,0,1
430 277 m 1,50,51
 412 261 412 261 397.5 241 c 128,-1,52
 383 221 383 221 378 195 c 1,53,54
 361 195 361 195 346.5 201 c 128,-1,55
 332 207 332 207 321 226 c 1,56,57
 345 245 345 245 367 269.5 c 128,-1,58
 389 294 389 294 409 319.5 c 128,-1,59
 429 345 429 345 447.5 369.5 c 128,-1,60
 466 394 466 394 481 414 c 1,61,62
 464 412 464 412 450 406 c 128,-1,63
 436 400 436 400 426 390 c 1,64,65
 415 394 415 394 405 405.5 c 128,-1,66
 395 417 395 417 393 431 c 1,67,68
 411 446 411 446 436.5 453.5 c 128,-1,69
 462 461 462 461 490 461 c 0,70,71
 532 461 532 461 568.5 443 c 128,-1,72
 605 425 605 425 618 387 c 1,73,74
 616 358 616 358 601 339.5 c 128,-1,75
 586 321 586 321 564.5 310 c 128,-1,76
 543 299 543 299 518.5 295 c 128,-1,77
 494 291 494 291 474 291 c 1,78,79
 488 275 488 275 507.5 265 c 128,-1,80
 527 255 527 255 549 255 c 0,81,82
 560 255 560 255 571 258 c 128,-1,83
 582 261 582 261 593 269 c 1,84,85
 593 244 593 244 578 226.5 c 128,-1,86
 563 209 563 209 532 209 c 0,87,88
 510 209 510 209 498 217.5 c 128,-1,89
 486 226 486 226 477 237 c 128,-1,90
 468 248 468 248 458 259.5 c 128,-1,91
 448 271 448 271 430 277 c 1,50,51
466 316 m 1,92,93
 467 315 467 315 471 315 c 0,94,95
 483 315 483 315 500 316.5 c 128,-1,96
 517 318 517 318 534 323 c 128,-1,97
 551 328 551 328 566 339 c 128,-1,98
 581 350 581 350 589 369 c 1,99,100
 587 380 587 380 576 391 c 128,-1,101
 565 402 565 402 548 410 c 1,102,103
 537 400 537 400 524.5 387.5 c 128,-1,104
 512 375 512 375 500.5 362 c 128,-1,105
 489 349 489 349 480 337 c 128,-1,106
 471 325 471 325 466 316 c 1,92,93
EndSplineSet
EndChar

StartChar: macron
Encoding: 175 175 257
Width: 346
Flags: W
LayerCount: 2
Fore
SplineSet
22 628 m 1,0,1
 67 625 67 625 113 625 c 0,2,3
 219 625 219 625 308 645 c 1,4,5
 315 632 315 632 320.5 605.5 c 128,-1,6
 326 579 326 579 326 558 c 1,7,8
 252 549 252 549 172 549 c 0,9,10
 79 549 79 549 20 562 c 1,11,12
 21 572 21 572 21.5 586 c 128,-1,13
 22 600 22 600 22 628 c 1,0,1
EndSplineSet
EndChar

StartChar: degree
Encoding: 176 176 408
Width: 384
Flags: W
LayerCount: 2
Fore
SplineSet
327 403 m 0,0,1
 271 403 271 403 241 431.5 c 128,-1,2
 211 460 211 460 211 513 c 0,3,4
 211 554 211 554 226 593.5 c 128,-1,5
 241 633 241 633 266 663.5 c 128,-1,6
 291 694 291 694 322.5 713 c 128,-1,7
 354 732 354 732 387 732 c 0,8,9
 416 732 416 732 442.5 720 c 128,-1,10
 469 708 469 708 489.5 687.5 c 128,-1,11
 510 667 510 667 522 640.5 c 128,-1,12
 534 614 534 614 534 585 c 0,13,14
 534 549 534 549 517 516 c 128,-1,15
 500 483 500 483 471.5 458 c 128,-1,16
 443 433 443 433 405.5 418 c 128,-1,17
 368 403 368 403 327 403 c 0,0,1
475 595 m 0,18,19
 475 631 475 631 454 653.5 c 128,-1,20
 433 676 433 676 398 676 c 0,21,22
 374 676 374 676 352 663 c 128,-1,23
 330 650 330 650 312.5 628.5 c 128,-1,24
 295 607 295 607 285 579 c 128,-1,25
 275 551 275 551 275 520 c 0,26,27
 275 453 275 453 337 453 c 0,28,29
 364 453 364 453 389 464.5 c 128,-1,30
 414 476 414 476 433 495.5 c 128,-1,31
 452 515 452 515 463.5 541 c 128,-1,32
 475 567 475 567 475 595 c 0,18,19
EndSplineSet
EndChar

StartChar: plusminus
Encoding: 177 177 290
Width: 617
Flags: W
LayerCount: 2
Fore
SplineSet
376 169 m 1,0,1
 356 172 356 172 334.5 185 c 128,-1,2
 313 198 313 198 293 216 c 1,3,4
 300 240 300 240 307 264 c 128,-1,5
 314 288 314 288 322 311 c 1,6,7
 302 309 302 309 283 307.5 c 128,-1,8
 264 306 264 306 245 306 c 0,9,10
 209 306 209 306 187.5 323.5 c 128,-1,11
 166 341 166 341 166 372 c 0,12,13
 166 377 166 377 168.5 387.5 c 128,-1,14
 171 398 171 398 173 403 c 1,15,16
 192 400 192 400 209.5 399 c 128,-1,17
 227 398 227 398 255 398 c 0,18,19
 281 398 281 398 306.5 398.5 c 128,-1,20
 332 399 332 399 356 400 c 1,21,22
 379 457 379 457 402.5 501 c 128,-1,23
 426 545 426 545 449 571 c 1,24,25
 461 569 461 569 480 561 c 128,-1,26
 499 553 499 553 517.5 543.5 c 128,-1,27
 536 534 536 534 551 524 c 128,-1,28
 566 514 566 514 570 508 c 1,29,30
 549 485 549 485 530 461 c 128,-1,31
 511 437 511 437 493 411 c 1,32,33
 522 413 522 413 543.5 415.5 c 128,-1,34
 565 418 565 418 578 418 c 0,35,36
 600 418 600 418 617 395 c 128,-1,37
 634 372 634 372 642 329 c 1,38,39
 613 332 613 332 594.5 333 c 128,-1,40
 576 334 576 334 562 334 c 0,41,42
 530 334 530 334 500.5 332 c 128,-1,43
 471 330 471 330 444 327 c 1,44,45
 427 294 427 294 410 255 c 128,-1,46
 393 216 393 216 376 169 c 1,0,1
205 46 m 0,47,48
 169 46 169 46 147.5 63.5 c 128,-1,49
 126 81 126 81 126 112 c 0,50,51
 126 117 126 117 128.5 127.5 c 128,-1,52
 131 138 131 138 133 143 c 1,53,54
 152 140 152 140 169.5 139 c 128,-1,55
 187 138 187 138 215 138 c 0,56,57
 274 138 274 138 326 141 c 128,-1,58
 378 144 378 144 420 148 c 128,-1,59
 462 152 462 152 492 155 c 128,-1,60
 522 158 522 158 538 158 c 0,61,62
 560 158 560 158 577 135 c 128,-1,63
 594 112 594 112 602 69 c 1,64,65
 573 72 573 72 554.5 73 c 128,-1,66
 536 74 536 74 522 74 c 0,67,68
 472 74 472 74 429 69.5 c 128,-1,69
 386 65 386 65 348 60 c 128,-1,70
 310 55 310 55 275 50.5 c 128,-1,71
 240 46 240 46 205 46 c 0,47,48
EndSplineSet
EndChar

StartChar: twosuperior
Encoding: 178 178 402
Width: 360
Flags: W
LayerCount: 2
Fore
SplineSet
508 639 m 0,0,1
 508 620 508 620 495.5 602 c 128,-1,2
 483 584 483 584 461 565.5 c 128,-1,3
 439 547 439 547 410 527.5 c 128,-1,4
 381 508 381 508 347 487 c 0,5,6
 326 473 326 473 311.5 462.5 c 128,-1,7
 297 452 297 452 288 441 c 1,8,9
 328 444 328 444 367.5 456.5 c 128,-1,10
 407 469 407 469 437 489 c 1,11,12
 445 482 445 482 454 468 c 128,-1,13
 463 454 463 454 463 441 c 0,14,15
 463 419 463 419 436 413 c 128,-1,16
 409 407 409 407 371.5 406.5 c 128,-1,17
 334 406 334 406 295.5 405 c 128,-1,18
 257 404 257 404 233 392 c 1,19,20
 216 397 216 397 202 407 c 128,-1,21
 188 417 188 417 183 430 c 1,22,23
 187 442 187 442 196 452 c 128,-1,24
 205 462 205 462 220 473 c 128,-1,25
 235 484 235 484 256 497 c 128,-1,26
 277 510 277 510 306 527 c 0,27,28
 365 562 365 562 401.5 591 c 128,-1,29
 438 620 438 620 438 648 c 0,30,31
 438 664 438 664 427 673.5 c 128,-1,32
 416 683 416 683 398 683 c 0,33,34
 370 683 370 683 347.5 665.5 c 128,-1,35
 325 648 325 648 325 623 c 0,36,37
 325 607 325 607 348 587 c 1,38,39
 333 584 333 584 327.5 583.5 c 128,-1,40
 322 583 322 583 319 583 c 0,41,42
 289 583 289 583 269 596.5 c 128,-1,43
 249 610 249 610 249 630 c 0,44,45
 249 646 249 646 262 660.5 c 128,-1,46
 275 675 275 675 296 686 c 128,-1,47
 317 697 317 697 343.5 703.5 c 128,-1,48
 370 710 370 710 397 710 c 0,49,50
 448 710 448 710 478 690.5 c 128,-1,51
 508 671 508 671 508 639 c 0,0,1
EndSplineSet
EndChar

StartChar: threesuperior
Encoding: 179 179 403
Width: 342
Flags: W
LayerCount: 2
Fore
SplineSet
265 682 m 1,0,1
 275 687 275 687 290.5 691.5 c 128,-1,2
 306 696 306 696 323 699 c 128,-1,3
 340 702 340 702 357.5 703.5 c 128,-1,4
 375 705 375 705 388 705 c 0,5,6
 439 705 439 705 460 687 c 128,-1,7
 481 669 481 669 481 649 c 0,8,9
 481 630 481 630 464 608.5 c 128,-1,10
 447 587 447 587 417 570 c 1,11,12
 449 565 449 565 462 552 c 128,-1,13
 475 539 475 539 475 517 c 0,14,15
 475 485 475 485 451.5 463 c 128,-1,16
 428 441 428 441 392 427.5 c 128,-1,17
 356 414 356 414 314 407.5 c 128,-1,18
 272 401 272 401 235 401 c 1,19,20
 211 405 211 405 198.5 419.5 c 128,-1,21
 186 434 186 434 186 454 c 0,22,23
 186 455 186 455 186.5 459.5 c 128,-1,24
 187 464 187 464 187 465 c 1,25,26
 200 463 200 463 214.5 461 c 128,-1,27
 229 459 229 459 240 459 c 0,28,29
 266 459 266 459 296.5 463.5 c 128,-1,30
 327 468 327 468 353 476 c 128,-1,31
 379 484 379 484 396 496.5 c 128,-1,32
 413 509 413 509 413 525 c 0,33,34
 413 544 413 544 377 550 c 1,35,36
 360 544 360 544 344.5 541 c 128,-1,37
 329 538 329 538 320 538 c 0,38,39
 304 538 304 538 292 548.5 c 128,-1,40
 280 559 280 559 280 582 c 1,41,42
 305 582 305 582 332 585.5 c 128,-1,43
 359 589 359 589 382.5 597.5 c 128,-1,44
 406 606 406 606 421.5 620.5 c 128,-1,45
 437 635 437 635 438 657 c 1,46,47
 431 667 431 667 411 667 c 0,48,49
 386 667 386 667 353.5 656 c 128,-1,50
 321 645 321 645 298 628 c 1,51,52
 263 642 263 642 263 672 c 0,53,54
 263 678 263 678 265 682 c 1,0,1
EndSplineSet
EndChar

StartChar: acute
Encoding: 180 180 136
Width: 285
Flags: W
LayerCount: 2
Fore
SplineSet
207 729 m 1,0,1
 217 723 217 723 227.5 709.5 c 128,-1,2
 238 696 238 696 246.5 679.5 c 128,-1,3
 255 663 255 663 260 646 c 128,-1,4
 265 629 265 629 265 615 c 1,5,6
 227 589 227 589 198.5 572 c 128,-1,7
 170 555 170 555 147.5 544.5 c 128,-1,8
 125 534 125 534 108 529.5 c 128,-1,9
 91 525 91 525 75 525 c 0,10,11
 43 525 43 525 20 544 c 1,12,13
 42 552 42 552 66 569 c 128,-1,14
 90 586 90 586 114.5 610 c 128,-1,15
 139 634 139 634 162.5 664 c 128,-1,16
 186 694 186 694 207 729 c 1,0,1
EndSplineSet
EndChar

StartChar: mu
Encoding: 181 181 260
Width: 519
Flags: W
LayerCount: 2
Fore
SplineSet
384 22 m 1,0,1
 365 38 365 38 358.5 62 c 128,-1,2
 352 86 352 86 352 103 c 0,3,4
 352 124 352 124 357 139 c 1,5,6
 353 139 353 139 339 122.5 c 128,-1,7
 325 106 325 106 308.5 84.5 c 128,-1,8
 292 63 292 63 276.5 41.5 c 128,-1,9
 261 20 261 20 252 11 c 0,10,11
 240 -3 240 -3 227.5 -11 c 128,-1,12
 215 -19 215 -19 209 -20 c 1,13,14
 198 -19 198 -19 184.5 -13 c 128,-1,15
 171 -7 171 -7 167 10 c 1,16,17
 150 -41 150 -41 141.5 -81 c 128,-1,18
 133 -121 133 -121 133 -150 c 0,19,20
 133 -185 133 -185 145.5 -207.5 c 128,-1,21
 158 -230 158 -230 185 -237 c 1,22,23
 184 -242 184 -242 182 -248.5 c 128,-1,24
 180 -255 180 -255 178 -260 c 1,25,26
 114 -249 114 -249 84.5 -223 c 128,-1,27
 55 -197 55 -197 55 -143 c 0,28,29
 55 -130 55 -130 62.5 -88.5 c 128,-1,30
 70 -47 70 -47 83.5 11 c 128,-1,31
 97 69 97 69 117 136.5 c 128,-1,32
 137 204 137 204 162 268.5 c 128,-1,33
 187 333 187 333 216.5 387.5 c 128,-1,34
 246 442 246 442 280 474 c 1,35,36
 289 474 289 474 302 472.5 c 128,-1,37
 315 471 315 471 329 467 c 128,-1,38
 343 463 343 463 355.5 457.5 c 128,-1,39
 368 452 368 452 376 443 c 1,40,41
 367 433 367 433 330.5 376 c 128,-1,42
 294 319 294 319 249 212 c 0,43,44
 244 201 244 201 237 180 c 128,-1,45
 230 159 230 159 223 136 c 128,-1,46
 216 113 216 113 211.5 91 c 128,-1,47
 207 69 207 69 207 56 c 0,48,49
 207 48 207 48 209.5 44 c 128,-1,50
 212 40 212 40 214 38 c 1,51,52
 229 44 229 44 252 71 c 128,-1,53
 275 98 275 98 316 154 c 0,54,55
 326 168 326 168 339.5 186 c 128,-1,56
 353 204 353 204 367 224.5 c 128,-1,57
 381 245 381 245 393.5 267 c 128,-1,58
 406 289 406 289 414 311 c 0,59,60
 418 323 418 323 424.5 339.5 c 128,-1,61
 431 356 431 356 440.5 374 c 128,-1,62
 450 392 450 392 462.5 410.5 c 128,-1,63
 475 429 475 429 492 445 c 1,64,65
 505 445 505 445 520 442 c 128,-1,66
 535 439 535 439 548.5 434.5 c 128,-1,67
 562 430 562 430 572 424.5 c 128,-1,68
 582 419 582 419 587 413 c 1,69,70
 569 369 569 369 547 326 c 128,-1,71
 525 283 525 283 506 241.5 c 128,-1,72
 487 200 487 200 474 159 c 128,-1,73
 461 118 461 118 461 79 c 0,74,75
 461 58 461 58 464.5 42.5 c 128,-1,76
 468 27 468 27 472 16.5 c 128,-1,77
 476 6 476 6 479.5 -1 c 128,-1,78
 483 -8 483 -8 483 -13 c 0,79,80
 483 -14 483 -14 481 -16 c 0,81,82
 480 -17 480 -17 479 -17 c 0,83,84
 472 -17 472 -17 461 -14 c 128,-1,85
 450 -11 450 -11 436.5 -5.5 c 128,-1,86
 423 0 423 0 409.5 7 c 128,-1,87
 396 14 396 14 384 22 c 1,0,1
EndSplineSet
EndChar

StartChar: paragraph
Encoding: 182 182 378
Width: 610
Flags: W
LayerCount: 2
Fore
SplineSet
500 512 m 1,0,1
 532 512 532 512 552 505.5 c 128,-1,2
 572 499 572 499 584 492 c 1,3,4
 560 444 560 444 535.5 386 c 128,-1,5
 511 328 511 328 488 267 c 128,-1,6
 465 206 465 206 445 146 c 128,-1,7
 425 86 425 86 410 34 c 128,-1,8
 395 -18 395 -18 386.5 -57.5 c 128,-1,9
 378 -97 378 -97 378 -117 c 0,10,11
 378 -125 378 -125 379 -136 c 128,-1,12
 380 -147 380 -147 382 -150 c 1,13,14
 347 -144 347 -144 323.5 -132 c 128,-1,15
 300 -120 300 -120 288 -95 c 1,16,17
 288 -90 288 -90 295 -68 c 128,-1,18
 302 -46 302 -46 314 -12.5 c 128,-1,19
 326 21 326 21 342 63 c 128,-1,20
 358 105 358 105 375 151 c 128,-1,21
 392 197 392 197 409.5 244 c 128,-1,22
 427 291 427 291 443 334 c 1,23,24
 395 302 395 302 358 285 c 128,-1,25
 321 268 321 268 289 268 c 0,26,27
 270 268 270 268 250.5 274.5 c 128,-1,28
 231 281 231 281 214.5 296 c 128,-1,29
 198 311 198 311 187.5 336 c 128,-1,30
 177 361 177 361 177 397 c 0,31,32
 177 450 177 450 196.5 495.5 c 128,-1,33
 216 541 216 541 249 578 c 128,-1,34
 282 615 282 615 326 643.5 c 128,-1,35
 370 672 370 672 419.5 692.5 c 128,-1,36
 469 713 469 713 520 724.5 c 128,-1,37
 571 736 571 736 619 739 c 1,38,39
 646 739 646 739 668.5 729.5 c 128,-1,40
 691 720 691 720 706.5 704 c 128,-1,41
 722 688 722 688 730.5 666.5 c 128,-1,42
 739 645 739 645 739 620 c 0,43,44
 739 598 739 598 734 582 c 128,-1,45
 729 566 729 566 714 566 c 1,46,47
 712 590 712 590 702.5 599.5 c 128,-1,48
 693 609 693 609 669 609 c 0,49,50
 637 609 637 609 595 599 c 128,-1,51
 553 589 553 589 508.5 571 c 128,-1,52
 464 553 464 553 421 529 c 128,-1,53
 378 505 378 505 344.5 477 c 128,-1,54
 311 449 311 449 290.5 418.5 c 128,-1,55
 270 388 270 388 270 357 c 0,56,57
 270 333 270 333 283.5 327 c 128,-1,58
 297 321 297 321 310 321 c 0,59,60
 347 321 347 321 386.5 336 c 128,-1,61
 426 351 426 351 455 367 c 1,62,63
 475 421 475 421 487 460.5 c 128,-1,64
 499 500 499 500 500 512 c 1,0,1
698 511 m 1,65,66
 687 478 687 478 670 434.5 c 128,-1,67
 653 391 653 391 633 343.5 c 128,-1,68
 613 296 613 296 593 246 c 128,-1,69
 573 196 573 196 556.5 150.5 c 128,-1,70
 540 105 540 105 530 66 c 128,-1,71
 520 27 520 27 520 1 c 0,72,73
 520 -21 520 -21 526 -36 c 1,74,75
 512 -36 512 -36 498 -31.5 c 128,-1,76
 484 -27 484 -27 473 -18.5 c 128,-1,77
 462 -10 462 -10 455 2.5 c 128,-1,78
 448 15 448 15 448 31 c 0,79,80
 448 53 448 53 458 90.5 c 128,-1,81
 468 128 468 128 484 173 c 128,-1,82
 500 218 500 218 519.5 268 c 128,-1,83
 539 318 539 318 557.5 365.5 c 128,-1,84
 576 413 576 413 591 456 c 128,-1,85
 606 499 606 499 613 530 c 1,86,87
 640 530 640 530 662 523.5 c 128,-1,88
 684 517 684 517 698 511 c 1,65,66
EndSplineSet
EndChar

StartChar: periodcentered
Encoding: 183 183 288
Width: 227
Flags: W
LayerCount: 2
Fore
SplineSet
184 191 m 1,0,1
 171 193 171 193 156 203 c 128,-1,2
 141 213 141 213 137 224 c 1,3,4
 137 234 137 234 140 250 c 128,-1,5
 143 266 143 266 147.5 282 c 128,-1,6
 152 298 152 298 156 312.5 c 128,-1,7
 160 327 160 327 162 334 c 1,8,9
 171 334 171 334 186.5 329 c 128,-1,10
 202 324 202 324 218.5 315.5 c 128,-1,11
 235 307 235 307 249 296 c 128,-1,12
 263 285 263 285 271 273 c 1,13,14
 264 256 264 256 252 241 c 128,-1,15
 240 226 240 226 227.5 215 c 128,-1,16
 215 204 215 204 203 197.5 c 128,-1,17
 191 191 191 191 184 191 c 1,0,1
EndSplineSet
EndChar

StartChar: cedilla
Encoding: 184 184 171
Width: 255
Flags: W
LayerCount: 2
Fore
SplineSet
159 14 m 1,0,1
 134 -15 134 -15 110.5 -50.5 c 128,-1,2
 87 -86 87 -86 77 -111 c 1,3,4
 86 -106 86 -106 99.5 -101.5 c 128,-1,5
 113 -97 113 -97 127 -93 c 128,-1,6
 141 -89 141 -89 154.5 -87 c 128,-1,7
 168 -85 168 -85 177 -85 c 0,8,9
 181 -85 181 -85 191 -91.5 c 128,-1,10
 201 -98 201 -98 210.5 -106 c 128,-1,11
 220 -114 220 -114 227.5 -122 c 128,-1,12
 235 -130 235 -130 235 -134 c 0,13,14
 235 -141 235 -141 223 -156 c 128,-1,15
 211 -171 211 -171 192.5 -189 c 128,-1,16
 174 -207 174 -207 151 -227 c 128,-1,17
 128 -247 128 -247 107 -263 c 128,-1,18
 86 -279 86 -279 68.5 -289.5 c 128,-1,19
 51 -300 51 -300 43 -300 c 0,20,21
 41 -300 41 -300 37.5 -295.5 c 128,-1,22
 34 -291 34 -291 30.5 -285 c 128,-1,23
 27 -279 27 -279 24.5 -273 c 128,-1,24
 22 -267 22 -267 22 -264 c 1,25,26
 45 -245 45 -245 62 -229 c 128,-1,27
 79 -213 79 -213 93 -198 c 128,-1,28
 107 -183 107 -183 119 -166 c 128,-1,29
 131 -149 131 -149 144 -128 c 1,30,31
 136 -130 136 -130 121 -133.5 c 128,-1,32
 106 -137 106 -137 89.5 -142.5 c 128,-1,33
 73 -148 73 -148 56.5 -153.5 c 128,-1,34
 40 -159 40 -159 28 -163 c 1,35,36
 25 -161 25 -161 23 -157.5 c 128,-1,37
 21 -154 21 -154 20 -151 c 1,38,39
 24 -140 24 -140 35 -120 c 128,-1,40
 46 -100 46 -100 61.5 -76.5 c 128,-1,41
 77 -53 77 -53 96 -28 c 128,-1,42
 115 -3 115 -3 134 17 c 1,43,-1
 159 14 l 1,0,1
EndSplineSet
EndChar

StartChar: onesuperior
Encoding: 185 185 401
Width: 312
Flags: W
LayerCount: 2
Fore
SplineSet
365 455 m 0,0,1
 388 455 388 455 400.5 447.5 c 128,-1,2
 413 440 413 440 413 426 c 0,3,4
 413 424 413 424 411 417.5 c 128,-1,5
 409 411 409 411 408 406 c 1,6,7
 397 407 397 407 385.5 408 c 128,-1,8
 374 409 374 409 364 409 c 0,9,10
 332 409 332 409 299 404 c 128,-1,11
 266 399 266 399 237 399 c 0,12,13
 213 399 213 399 194.5 407 c 128,-1,14
 176 415 176 415 169 429 c 1,15,16
 174 433 174 433 201.5 437.5 c 128,-1,17
 229 442 229 442 262 447 c 1,18,19
 276 491 276 491 294.5 535 c 128,-1,20
 313 579 313 579 333 622 c 1,21,22
 319 616 319 616 305 608.5 c 128,-1,23
 291 601 291 601 280 593 c 1,24,25
 262 597 262 597 262 612 c 1,26,27
 277 627 277 627 294 638.5 c 128,-1,28
 311 650 311 650 327 661 c 128,-1,29
 343 672 343 672 357.5 684.5 c 128,-1,30
 372 697 372 697 382 712 c 1,31,32
 414 706 414 706 439 699.5 c 128,-1,33
 464 693 464 693 474 682 c 1,34,35
 461 676 461 676 444.5 653.5 c 128,-1,36
 428 631 428 631 410 599 c 128,-1,37
 392 567 392 567 374 529 c 128,-1,38
 356 491 356 491 340 454 c 1,39,40
 347 454 347 454 353.5 454.5 c 128,-1,41
 360 455 360 455 365 455 c 0,0,1
EndSplineSet
EndChar

StartChar: ordmasculine
Encoding: 186 186 412
Width: 336
Flags: W
LayerCount: 2
Fore
SplineSet
296 411 m 1,0,1
 255 414 255 414 230.5 441.5 c 128,-1,2
 206 469 206 469 206 511 c 0,3,4
 206 536 206 536 215 562.5 c 128,-1,5
 224 589 224 589 239.5 614 c 128,-1,6
 255 639 255 639 276.5 661.5 c 128,-1,7
 298 684 298 684 324 700 c 0,8,9
 362 725 362 725 398 725 c 1,10,11
 421 716 421 716 443 681 c 1,12,13
 446 681 446 681 449.5 681.5 c 128,-1,14
 453 682 453 682 456 682 c 0,15,16
 494 682 494 682 494 624 c 0,17,18
 494 585 494 585 479 550 c 128,-1,19
 464 515 464 515 438 486.5 c 128,-1,20
 412 458 412 458 375.5 438.5 c 128,-1,21
 339 419 339 419 296 411 c 1,0,1
333 606 m 0,22,23
 308 577 308 577 291.5 541 c 128,-1,24
 275 505 275 505 275 480 c 0,25,26
 275 465 275 465 280.5 451.5 c 128,-1,27
 286 438 286 438 293 436 c 1,28,29
 325 442 325 442 352.5 459 c 128,-1,30
 380 476 380 476 400 501.5 c 128,-1,31
 420 527 420 527 431 559.5 c 128,-1,32
 442 592 442 592 442 628 c 0,33,34
 442 657 442 657 432 670 c 1,35,36
 401 662 401 662 376 644 c 128,-1,37
 351 626 351 626 333 606 c 0,22,23
EndSplineSet
EndChar

StartChar: guillemotright
Encoding: 187 187 224
Width: 1043
Flags: W
LayerCount: 2
Fore
SplineSet
193 437 m 1,0,1
 238 437 238 437 279 429.5 c 128,-1,2
 320 422 320 422 358.5 409 c 128,-1,3
 397 396 397 396 433.5 380 c 128,-1,4
 470 364 470 364 507 346 c 1,5,6
 523 337 523 337 540 323.5 c 128,-1,7
 557 310 557 310 572 293 c 128,-1,8
 587 276 587 276 597 255 c 128,-1,9
 607 234 607 234 608 209 c 1,10,11
 598 198 598 198 578 189.5 c 128,-1,12
 558 181 558 181 533.5 174 c 128,-1,13
 509 167 509 167 482 161 c 128,-1,14
 455 155 455 155 431 148 c 0,15,16
 394 137 394 137 363.5 125.5 c 128,-1,17
 333 114 333 114 301.5 98 c 128,-1,18
 270 82 270 82 234.5 61 c 128,-1,19
 199 40 199 40 153 12 c 1,20,21
 124 35 124 35 110.5 55.5 c 128,-1,22
 97 76 97 76 97 94 c 0,23,24
 97 117 97 117 120 135 c 128,-1,25
 143 153 143 153 180 165 c 0,26,27
 211 175 211 175 256 190 c 128,-1,28
 301 205 301 205 347.5 219.5 c 128,-1,29
 394 234 394 234 435.5 247 c 128,-1,30
 477 260 477 260 502 268 c 1,31,32
 497 276 497 276 491 283 c 128,-1,33
 485 290 485 290 474.5 298 c 128,-1,34
 464 306 464 306 447 316 c 128,-1,35
 430 326 430 326 404 340 c 0,36,37
 380 353 380 353 350.5 364.5 c 128,-1,38
 321 376 321 376 290 385 c 128,-1,39
 259 394 259 394 227.5 399.5 c 128,-1,40
 196 405 196 405 167 405 c 1,41,42
 168 414 168 414 176.5 424 c 128,-1,43
 185 434 185 434 193 437 c 1,0,1
673 437 m 1,44,45
 718 437 718 437 759 429.5 c 128,-1,46
 800 422 800 422 838.5 409 c 128,-1,47
 877 396 877 396 913.5 380 c 128,-1,48
 950 364 950 364 987 346 c 1,49,50
 1003 337 1003 337 1020 323.5 c 128,-1,51
 1037 310 1037 310 1052 293 c 128,-1,52
 1067 276 1067 276 1077 255 c 128,-1,53
 1087 234 1087 234 1088 209 c 1,54,55
 1078 198 1078 198 1058 189.5 c 128,-1,56
 1038 181 1038 181 1013.5 174 c 128,-1,57
 989 167 989 167 962 161 c 128,-1,58
 935 155 935 155 911 148 c 0,59,60
 874 137 874 137 843.5 125.5 c 128,-1,61
 813 114 813 114 781.5 98 c 128,-1,62
 750 82 750 82 714.5 61 c 128,-1,63
 679 40 679 40 633 12 c 1,64,65
 604 35 604 35 590.5 55.5 c 128,-1,66
 577 76 577 76 577 94 c 0,67,68
 577 117 577 117 600 135 c 128,-1,69
 623 153 623 153 660 165 c 0,70,71
 691 175 691 175 736 190 c 128,-1,72
 781 205 781 205 827.5 219.5 c 128,-1,73
 874 234 874 234 915.5 247 c 128,-1,74
 957 260 957 260 982 268 c 1,75,76
 977 276 977 276 971 283 c 128,-1,77
 965 290 965 290 954.5 298 c 128,-1,78
 944 306 944 306 927 316 c 128,-1,79
 910 326 910 326 884 340 c 0,80,81
 860 353 860 353 830.5 364.5 c 128,-1,82
 801 376 801 376 770 385 c 128,-1,83
 739 394 739 394 707.5 399.5 c 128,-1,84
 676 405 676 405 647 405 c 1,85,86
 648 414 648 414 656.5 424 c 128,-1,87
 665 434 665 434 673 437 c 1,44,45
EndSplineSet
EndChar

StartChar: onequarter
Encoding: 188 188 405
Width: 787
Flags: W
LayerCount: 2
Fore
SplineSet
827 713 m 1,0,1
 777 638 777 638 721.5 562 c 128,-1,2
 666 486 666 486 609.5 413.5 c 128,-1,3
 553 341 553 341 497.5 273.5 c 128,-1,4
 442 206 442 206 391 147.5 c 128,-1,5
 340 89 340 89 295.5 41.5 c 128,-1,6
 251 -6 251 -6 217 -39 c 1,7,8
 206 -37 206 -37 192.5 -23.5 c 128,-1,9
 179 -10 179 -10 175 7 c 1,10,11
 214 42 214 42 262 95.5 c 128,-1,12
 310 149 310 149 361.5 213.5 c 128,-1,13
 413 278 413 278 465.5 349.5 c 128,-1,14
 518 421 518 421 567 493 c 128,-1,15
 616 565 616 565 658 634 c 128,-1,16
 700 703 700 703 731 761 c 1,17,18
 743 761 743 761 758 756.5 c 128,-1,19
 773 752 773 752 787.5 745 c 128,-1,20
 802 738 802 738 813 729.5 c 128,-1,21
 824 721 824 721 827 713 c 1,0,1
373 455 m 0,22,23
 396 455 396 455 408.5 447.5 c 128,-1,24
 421 440 421 440 421 426 c 0,25,26
 421 424 421 424 419 417.5 c 128,-1,27
 417 411 417 411 416 406 c 1,28,29
 405 407 405 407 393.5 408 c 128,-1,30
 382 409 382 409 372 409 c 0,31,32
 340 409 340 409 307 404 c 128,-1,33
 274 399 274 399 245 399 c 0,34,35
 221 399 221 399 202.5 407 c 128,-1,36
 184 415 184 415 177 429 c 1,37,38
 182 433 182 433 209.5 437.5 c 128,-1,39
 237 442 237 442 270 447 c 1,40,41
 284 491 284 491 302.5 535 c 128,-1,42
 321 579 321 579 341 622 c 1,43,44
 327 616 327 616 313 608.5 c 128,-1,45
 299 601 299 601 288 593 c 1,46,47
 270 597 270 597 270 612 c 1,48,49
 285 627 285 627 302 638.5 c 128,-1,50
 319 650 319 650 335 661 c 128,-1,51
 351 672 351 672 365.5 684.5 c 128,-1,52
 380 697 380 697 390 712 c 1,53,54
 422 706 422 706 447 699.5 c 128,-1,55
 472 693 472 693 482 682 c 1,56,57
 469 676 469 676 452.5 653.5 c 128,-1,58
 436 631 436 631 418 599 c 128,-1,59
 400 567 400 567 382 529 c 128,-1,60
 364 491 364 491 348 454 c 1,61,62
 355 454 355 454 361.5 454.5 c 128,-1,63
 368 455 368 455 373 455 c 0,22,23
749 244 m 1,64,65
 774 242 774 242 794.5 235 c 128,-1,66
 815 228 815 228 827 214 c 1,67,68
 772 159 772 159 730 101 c 1,69,70
 738 103 738 103 745 103 c 1,71,72
 755 96 755 96 758 85 c 1,73,-1
 711 72 l 1,74,75
 676 18 676 18 654 -47 c 1,76,77
 632 -46 632 -46 612 -43 c 128,-1,78
 592 -40 592 -40 577 -27 c 1,79,80
 595 16 595 16 620 56 c 1,81,82
 591 56 591 56 570.5 57 c 128,-1,83
 550 58 550 58 532.5 62 c 128,-1,84
 515 66 515 66 499 72 c 128,-1,85
 483 78 483 78 464 89 c 1,86,87
 509 124 509 124 547.5 167.5 c 128,-1,88
 586 211 586 211 615 256 c 1,89,90
 637 251 637 251 659.5 243.5 c 128,-1,91
 682 236 682 236 703 222 c 1,92,93
 684 207 684 207 663.5 189.5 c 128,-1,94
 643 172 643 172 623 155 c 128,-1,95
 603 138 603 138 585.5 122.5 c 128,-1,96
 568 107 568 107 556 95 c 1,97,98
 568 93 568 93 579.5 92 c 128,-1,99
 591 91 591 91 602 91 c 0,100,101
 612 91 612 91 622 91 c 128,-1,102
 632 91 632 91 643 92 c 1,103,104
 669 130 669 130 695 168 c 128,-1,105
 721 206 721 206 749 244 c 1,64,65
EndSplineSet
Ligature2: "'frac' Diagonal Fractions in Latin lookup 6 subtable" one fraction four
Ligature2: "'frac' Diagonal Fractions in Latin lookup 6 subtable" one slash four
EndChar

StartChar: onehalf
Encoding: 189 189 406
Width: 810
Flags: W
LayerCount: 2
Fore
SplineSet
827 713 m 1,0,1
 777 638 777 638 721.5 562 c 128,-1,2
 666 486 666 486 609.5 413.5 c 128,-1,3
 553 341 553 341 497.5 273.5 c 128,-1,4
 442 206 442 206 391 147.5 c 128,-1,5
 340 89 340 89 295.5 41.5 c 128,-1,6
 251 -6 251 -6 217 -39 c 1,7,8
 206 -37 206 -37 192.5 -23.5 c 128,-1,9
 179 -10 179 -10 175 7 c 1,10,11
 214 42 214 42 262 95.5 c 128,-1,12
 310 149 310 149 361.5 213.5 c 128,-1,13
 413 278 413 278 465.5 349.5 c 128,-1,14
 518 421 518 421 567 493 c 128,-1,15
 616 565 616 565 658 634 c 128,-1,16
 700 703 700 703 731 761 c 1,17,18
 743 761 743 761 758 756.5 c 128,-1,19
 773 752 773 752 787.5 745 c 128,-1,20
 802 738 802 738 813 729.5 c 128,-1,21
 824 721 824 721 827 713 c 1,0,1
373 455 m 0,22,23
 396 455 396 455 408.5 447.5 c 128,-1,24
 421 440 421 440 421 426 c 0,25,26
 421 424 421 424 419 417.5 c 128,-1,27
 417 411 417 411 416 406 c 1,28,29
 405 407 405 407 393.5 408 c 128,-1,30
 382 409 382 409 372 409 c 0,31,32
 340 409 340 409 307 404 c 128,-1,33
 274 399 274 399 245 399 c 0,34,35
 221 399 221 399 202.5 407 c 128,-1,36
 184 415 184 415 177 429 c 1,37,38
 182 433 182 433 209.5 437.5 c 128,-1,39
 237 442 237 442 270 447 c 1,40,41
 284 491 284 491 302.5 535 c 128,-1,42
 321 579 321 579 341 622 c 1,43,44
 327 616 327 616 313 608.5 c 128,-1,45
 299 601 299 601 288 593 c 1,46,47
 270 597 270 597 270 612 c 1,48,49
 285 627 285 627 302 638.5 c 128,-1,50
 319 650 319 650 335 661 c 128,-1,51
 351 672 351 672 365.5 684.5 c 128,-1,52
 380 697 380 697 390 712 c 1,53,54
 422 706 422 706 447 699.5 c 128,-1,55
 472 693 472 693 482 682 c 1,56,57
 469 676 469 676 452.5 653.5 c 128,-1,58
 436 631 436 631 418 599 c 128,-1,59
 400 567 400 567 382 529 c 128,-1,60
 364 491 364 491 348 454 c 1,61,62
 355 454 355 454 361.5 454.5 c 128,-1,63
 368 455 368 455 373 455 c 0,22,23
820 189 m 0,64,65
 820 170 820 170 807.5 152 c 128,-1,66
 795 134 795 134 773 115.5 c 128,-1,67
 751 97 751 97 722 77.5 c 128,-1,68
 693 58 693 58 659 37 c 0,69,70
 638 23 638 23 623.5 12.5 c 128,-1,71
 609 2 609 2 600 -9 c 1,72,73
 640 -6 640 -6 679.5 6.5 c 128,-1,74
 719 19 719 19 749 39 c 1,75,76
 757 32 757 32 766 18 c 128,-1,77
 775 4 775 4 775 -9 c 0,78,79
 775 -31 775 -31 748 -37 c 128,-1,80
 721 -43 721 -43 683.5 -43.5 c 128,-1,81
 646 -44 646 -44 607.5 -45 c 128,-1,82
 569 -46 569 -46 545 -58 c 1,83,84
 528 -53 528 -53 514 -43 c 128,-1,85
 500 -33 500 -33 495 -20 c 1,86,87
 499 -8 499 -8 508 2 c 128,-1,88
 517 12 517 12 532 23 c 128,-1,89
 547 34 547 34 568 47 c 128,-1,90
 589 60 589 60 618 77 c 0,91,92
 677 112 677 112 713.5 141 c 128,-1,93
 750 170 750 170 750 198 c 0,94,95
 750 214 750 214 739 223.5 c 128,-1,96
 728 233 728 233 710 233 c 0,97,98
 682 233 682 233 659.5 215.5 c 128,-1,99
 637 198 637 198 637 173 c 0,100,101
 637 157 637 157 660 137 c 1,102,103
 645 134 645 134 639.5 133.5 c 128,-1,104
 634 133 634 133 631 133 c 0,105,106
 601 133 601 133 581 146.5 c 128,-1,107
 561 160 561 160 561 180 c 0,108,109
 561 196 561 196 574 210.5 c 128,-1,110
 587 225 587 225 608 236 c 128,-1,111
 629 247 629 247 655.5 253.5 c 128,-1,112
 682 260 682 260 709 260 c 0,113,114
 760 260 760 260 790 240.5 c 128,-1,115
 820 221 820 221 820 189 c 0,64,65
EndSplineSet
Ligature2: "'frac' Diagonal Fractions in Latin lookup 6 subtable" one fraction two
Ligature2: "'frac' Diagonal Fractions in Latin lookup 6 subtable" one slash two
EndChar

StartChar: threequarters
Encoding: 190 190 407
Width: 797
Flags: W
LayerCount: 2
Fore
SplineSet
837 713 m 1,0,1
 786 638 786 638 731 562 c 128,-1,2
 676 486 676 486 619.5 413.5 c 128,-1,3
 563 341 563 341 507.5 273.5 c 128,-1,4
 452 206 452 206 401 147.5 c 128,-1,5
 350 89 350 89 305.5 41.5 c 128,-1,6
 261 -6 261 -6 227 -39 c 1,7,8
 216 -37 216 -37 202.5 -23.5 c 128,-1,9
 189 -10 189 -10 185 7 c 1,10,11
 224 42 224 42 272 95.5 c 128,-1,12
 320 149 320 149 371.5 213.5 c 128,-1,13
 423 278 423 278 475.5 349.5 c 128,-1,14
 528 421 528 421 577 493 c 128,-1,15
 626 565 626 565 668 634 c 128,-1,16
 710 703 710 703 741 761 c 1,17,18
 753 761 753 761 768 756.5 c 128,-1,19
 783 752 783 752 797.5 745 c 128,-1,20
 812 738 812 738 823 729.5 c 128,-1,21
 834 721 834 721 837 713 c 1,0,1
269 682 m 1,22,23
 279 687 279 687 294.5 691.5 c 128,-1,24
 310 696 310 696 327 699 c 128,-1,25
 344 702 344 702 361.5 703.5 c 128,-1,26
 379 705 379 705 392 705 c 0,27,28
 443 705 443 705 464 687 c 128,-1,29
 485 669 485 669 485 649 c 0,30,31
 485 630 485 630 468 608.5 c 128,-1,32
 451 587 451 587 421 570 c 1,33,34
 453 565 453 565 466 552 c 128,-1,35
 479 539 479 539 479 517 c 0,36,37
 479 485 479 485 455.5 463 c 128,-1,38
 432 441 432 441 396 427.5 c 128,-1,39
 360 414 360 414 318 407.5 c 128,-1,40
 276 401 276 401 239 401 c 1,41,42
 215 405 215 405 202.5 419.5 c 128,-1,43
 190 434 190 434 190 454 c 0,44,45
 190 455 190 455 190.5 459.5 c 128,-1,46
 191 464 191 464 191 465 c 1,47,48
 204 463 204 463 218.5 461 c 128,-1,49
 233 459 233 459 244 459 c 0,50,51
 270 459 270 459 300.5 463.5 c 128,-1,52
 331 468 331 468 357 476 c 128,-1,53
 383 484 383 484 400 496.5 c 128,-1,54
 417 509 417 509 417 525 c 0,55,56
 417 544 417 544 381 550 c 1,57,58
 364 544 364 544 348.5 541 c 128,-1,59
 333 538 333 538 324 538 c 0,60,61
 308 538 308 538 296 548.5 c 128,-1,62
 284 559 284 559 284 582 c 1,63,64
 309 582 309 582 336 585.5 c 128,-1,65
 363 589 363 589 386.5 597.5 c 128,-1,66
 410 606 410 606 425.5 620.5 c 128,-1,67
 441 635 441 635 442 657 c 1,68,69
 435 667 435 667 415 667 c 0,70,71
 390 667 390 667 357.5 656 c 128,-1,72
 325 645 325 645 302 628 c 1,73,74
 267 642 267 642 267 672 c 0,75,76
 267 678 267 678 269 682 c 1,22,23
759 244 m 1,77,78
 784 242 784 242 804.5 235 c 128,-1,79
 825 228 825 228 837 214 c 1,80,81
 782 159 782 159 740 101 c 1,82,83
 748 103 748 103 755 103 c 1,84,85
 765 96 765 96 768 85 c 1,86,-1
 721 72 l 1,87,88
 686 18 686 18 664 -47 c 1,89,90
 642 -46 642 -46 622 -43 c 128,-1,91
 602 -40 602 -40 587 -27 c 1,92,93
 605 16 605 16 630 56 c 1,94,95
 601 56 601 56 580.5 57 c 128,-1,96
 560 58 560 58 542.5 62 c 128,-1,97
 525 66 525 66 509 72 c 128,-1,98
 493 78 493 78 474 89 c 1,99,100
 519 124 519 124 557.5 167.5 c 128,-1,101
 596 211 596 211 625 256 c 1,102,103
 647 251 647 251 669.5 243.5 c 128,-1,104
 692 236 692 236 713 222 c 1,105,106
 694 207 694 207 673.5 189.5 c 128,-1,107
 653 172 653 172 633 155 c 128,-1,108
 613 138 613 138 595.5 122.5 c 128,-1,109
 578 107 578 107 566 95 c 1,110,111
 578 93 578 93 589.5 92 c 128,-1,112
 601 91 601 91 612 91 c 0,113,114
 622 91 622 91 632 91 c 128,-1,115
 642 91 642 91 653 92 c 1,116,117
 679 130 679 130 705 168 c 128,-1,118
 731 206 731 206 759 244 c 1,77,78
EndSplineSet
Ligature2: "'frac' Diagonal Fractions in Latin lookup 6 subtable" three fraction four
Ligature2: "'frac' Diagonal Fractions in Latin lookup 6 subtable" three slash four
EndChar

StartChar: questiondown
Encoding: 191 191 293
Width: 472
Flags: W
LayerCount: 2
Fore
SplineSet
199 -363 m 1,0,1
 160 -360 160 -360 123.5 -343 c 128,-1,2
 87 -326 87 -326 59 -300 c 128,-1,3
 31 -274 31 -274 14 -240 c 128,-1,4
 -3 -206 -3 -206 -3 -169 c 0,5,6
 -3 -131 -3 -131 10.5 -98 c 128,-1,7
 24 -65 24 -65 50 -31 c 128,-1,8
 76 3 76 3 114 39.5 c 128,-1,9
 152 76 152 76 200 122 c 0,10,11
 247 166 247 166 271 211.5 c 128,-1,12
 295 257 295 257 295 294 c 0,13,14
 295 299 295 299 294.5 304 c 128,-1,15
 294 309 294 309 293 315 c 1,16,17
 310 314 310 314 329 307 c 128,-1,18
 348 300 348 300 365.5 288.5 c 128,-1,19
 383 277 383 277 396.5 263.5 c 128,-1,20
 410 250 410 250 416 236 c 1,21,22
 416 213 416 213 405 180.5 c 128,-1,23
 394 148 394 148 371.5 112.5 c 128,-1,24
 349 77 349 77 313.5 41 c 128,-1,25
 278 5 278 5 229 -24 c 0,26,27
 150 -71 150 -71 111 -115 c 128,-1,28
 72 -159 72 -159 72 -194 c 0,29,30
 72 -210 72 -210 78.5 -225 c 128,-1,31
 85 -240 85 -240 95 -252 c 128,-1,32
 105 -264 105 -264 118 -271.5 c 128,-1,33
 131 -279 131 -279 145 -279 c 0,34,35
 160 -279 160 -279 178.5 -264 c 128,-1,36
 197 -249 197 -249 213 -227 c 128,-1,37
 229 -205 229 -205 240 -179 c 128,-1,38
 251 -153 251 -153 251 -132 c 0,39,40
 251 -119 251 -119 248 -114 c 1,41,42
 256 -112 256 -112 261 -112 c 128,-1,43
 266 -112 266 -112 271 -112 c 0,44,45
 290 -112 290 -112 310 -116 c 128,-1,46
 330 -120 330 -120 346.5 -126 c 128,-1,47
 363 -132 363 -132 374.5 -140.5 c 128,-1,48
 386 -149 386 -149 389 -158 c 1,49,50
 381 -191 381 -191 360.5 -226 c 128,-1,51
 340 -261 340 -261 313 -290.5 c 128,-1,52
 286 -320 286 -320 256 -340 c 128,-1,53
 226 -360 226 -360 199 -363 c 1,0,1
414 369 m 0,54,55
 402 369 402 369 391 374.5 c 128,-1,56
 380 380 380 380 371.5 387.5 c 128,-1,57
 363 395 363 395 358 403.5 c 128,-1,58
 353 412 353 412 353 417 c 0,59,60
 353 429 353 429 356 448 c 128,-1,61
 359 467 359 467 365 484.5 c 128,-1,62
 371 502 371 502 380 514.5 c 128,-1,63
 389 527 389 527 400 527 c 0,64,65
 428 527 428 527 456.5 507.5 c 128,-1,66
 485 488 485 488 499 464 c 1,67,68
 487 451 487 451 478 434.5 c 128,-1,69
 469 418 469 418 460 403.5 c 128,-1,70
 451 389 451 389 440 379 c 128,-1,71
 429 369 429 369 414 369 c 0,54,55
EndSplineSet
EndChar

StartChar: Agrave
Encoding: 192 192 8
Width: 642
Flags: W
LayerCount: 2
Fore
SplineSet
146 -76 m 1,0,1
 98 -62 98 -62 79.5 -48 c 128,-1,2
 61 -34 61 -34 61 -13 c 0,3,4
 61 3 61 3 70 32 c 128,-1,5
 79 61 79 61 96.5 100.5 c 128,-1,6
 114 140 114 140 138.5 188 c 128,-1,7
 163 236 163 236 194 291 c 1,8,9
 168 292 168 292 147.5 292.5 c 128,-1,10
 127 293 127 293 114 293 c 1,11,12
 120 308 120 308 148 319 c 128,-1,13
 176 330 176 330 222 338 c 1,14,15
 261 403 261 403 305.5 462 c 128,-1,16
 350 521 350 521 395 570.5 c 128,-1,17
 440 620 440 620 485 657.5 c 128,-1,18
 530 695 530 695 571 717 c 1,19,20
 572 724 572 724 572.5 729 c 128,-1,21
 573 734 573 734 573 736 c 1,22,23
 587 736 587 736 610.5 729 c 128,-1,24
 634 722 634 722 656.5 712 c 128,-1,25
 679 702 679 702 696.5 691.5 c 128,-1,26
 714 681 714 681 716 674 c 1,27,28
 683 616 683 616 651 500.5 c 128,-1,29
 619 385 619 385 598 224 c 0,30,31
 593 184 593 184 589.5 133 c 128,-1,32
 586 82 586 82 586 19 c 0,33,34
 586 -3 586 -3 586 -26 c 128,-1,35
 586 -49 586 -49 588 -74 c 1,36,37
 586 -75 586 -75 584 -75 c 128,-1,38
 582 -75 582 -75 576 -75 c 0,39,40
 562 -75 562 -75 543.5 -70.5 c 128,-1,41
 525 -66 525 -66 507.5 -59.5 c 128,-1,42
 490 -53 490 -53 477.5 -45 c 128,-1,43
 465 -37 465 -37 462 -31 c 1,44,45
 461 -18 461 -18 461 -5.5 c 128,-1,46
 461 7 461 7 461 21 c 0,47,48
 461 83 461 83 465.5 147 c 128,-1,49
 470 211 470 211 481 279 c 1,50,51
 467 280 467 280 444 281.5 c 128,-1,52
 421 283 421 283 392.5 284 c 128,-1,53
 364 285 364 285 331.5 286.5 c 128,-1,54
 299 288 299 288 268 289 c 1,55,56
 244 244 244 244 223 199.5 c 128,-1,57
 202 155 202 155 187 110 c 0,58,59
 170 62 170 62 159.5 14 c 128,-1,60
 149 -34 149 -34 146 -76 c 1,0,1
532 525 m 0,61,62
 536 539 536 539 541.5 563.5 c 128,-1,63
 547 588 547 588 552 615 c 1,64,65
 527 606 527 606 496.5 582 c 128,-1,66
 466 558 466 558 433.5 522.5 c 128,-1,67
 401 487 401 487 367.5 442.5 c 128,-1,68
 334 398 334 398 303 348 c 1,69,70
 387 355 387 355 494 357 c 1,71,72
 502 399 502 399 511.5 440.5 c 128,-1,73
 521 482 521 482 532 525 c 0,61,62
575 883 m 1,74,75
 617 846 617 846 667 819.5 c 128,-1,76
 717 793 717 793 762 783 c 1,77,78
 739 764 739 764 707 764 c 0,79,80
 691 764 691 764 674 766.5 c 128,-1,81
 657 769 657 769 634.5 775.5 c 128,-1,82
 612 782 612 782 583.5 792.5 c 128,-1,83
 555 803 555 803 517 819 c 1,84,85
 517 828 517 828 522 838 c 128,-1,86
 527 848 527 848 535.5 857 c 128,-1,87
 544 866 544 866 554 873 c 128,-1,88
 564 880 564 880 575 883 c 1,74,75
EndSplineSet
EndChar

StartChar: Atilde
Encoding: 195 195 13
Width: 642
Flags: W
LayerCount: 2
Fore
SplineSet
146 -76 m 1,0,1
 98 -62 98 -62 79.5 -48 c 128,-1,2
 61 -34 61 -34 61 -13 c 0,3,4
 61 3 61 3 70 32 c 128,-1,5
 79 61 79 61 96.5 100.5 c 128,-1,6
 114 140 114 140 138.5 188 c 128,-1,7
 163 236 163 236 194 291 c 1,8,9
 168 292 168 292 147.5 292.5 c 128,-1,10
 127 293 127 293 114 293 c 1,11,12
 120 308 120 308 148 319 c 128,-1,13
 176 330 176 330 222 338 c 1,14,15
 261 403 261 403 305.5 462 c 128,-1,16
 350 521 350 521 395 570.5 c 128,-1,17
 440 620 440 620 485 657.5 c 128,-1,18
 530 695 530 695 571 717 c 1,19,20
 572 724 572 724 572.5 729 c 128,-1,21
 573 734 573 734 573 736 c 1,22,23
 587 736 587 736 610.5 729 c 128,-1,24
 634 722 634 722 656.5 712 c 128,-1,25
 679 702 679 702 696.5 691.5 c 128,-1,26
 714 681 714 681 716 674 c 1,27,28
 683 616 683 616 651 500.5 c 128,-1,29
 619 385 619 385 598 224 c 0,30,31
 593 184 593 184 589.5 133 c 128,-1,32
 586 82 586 82 586 19 c 0,33,34
 586 -3 586 -3 586 -26 c 128,-1,35
 586 -49 586 -49 588 -74 c 1,36,37
 586 -75 586 -75 584 -75 c 128,-1,38
 582 -75 582 -75 576 -75 c 0,39,40
 562 -75 562 -75 543.5 -70.5 c 128,-1,41
 525 -66 525 -66 507.5 -59.5 c 128,-1,42
 490 -53 490 -53 477.5 -45 c 128,-1,43
 465 -37 465 -37 462 -31 c 1,44,45
 461 -18 461 -18 461 -5.5 c 128,-1,46
 461 7 461 7 461 21 c 0,47,48
 461 83 461 83 465.5 147 c 128,-1,49
 470 211 470 211 481 279 c 1,50,51
 467 280 467 280 444 281.5 c 128,-1,52
 421 283 421 283 392.5 284 c 128,-1,53
 364 285 364 285 331.5 286.5 c 128,-1,54
 299 288 299 288 268 289 c 1,55,56
 244 244 244 244 223 199.5 c 128,-1,57
 202 155 202 155 187 110 c 0,58,59
 170 62 170 62 159.5 14 c 128,-1,60
 149 -34 149 -34 146 -76 c 1,0,1
532 525 m 0,61,62
 536 539 536 539 541.5 563.5 c 128,-1,63
 547 588 547 588 552 615 c 1,64,65
 527 606 527 606 496.5 582 c 128,-1,66
 466 558 466 558 433.5 522.5 c 128,-1,67
 401 487 401 487 367.5 442.5 c 128,-1,68
 334 398 334 398 303 348 c 1,69,70
 387 355 387 355 494 357 c 1,71,72
 502 399 502 399 511.5 440.5 c 128,-1,73
 521 482 521 482 532 525 c 0,61,62
484 853 m 1,74,75
 531 837 531 837 576 837 c 0,76,77
 614 837 614 837 655 848 c 128,-1,78
 696 859 696 859 747 883 c 1,79,80
 759 871 759 871 768 846 c 128,-1,81
 777 821 777 821 781 803 c 1,82,83
 736 782 736 782 698 776.5 c 128,-1,84
 660 771 660 771 627 771 c 0,85,86
 565 771 565 771 528 794.5 c 128,-1,87
 491 818 491 818 484 853 c 1,74,75
EndSplineSet
EndChar

StartChar: Adieresis
Encoding: 196 196 7
Width: 642
Flags: W
LayerCount: 2
Fore
SplineSet
146 -76 m 1,0,1
 98 -62 98 -62 79.5 -48 c 128,-1,2
 61 -34 61 -34 61 -13 c 0,3,4
 61 3 61 3 70 32 c 128,-1,5
 79 61 79 61 96.5 100.5 c 128,-1,6
 114 140 114 140 138.5 188 c 128,-1,7
 163 236 163 236 194 291 c 1,8,9
 168 292 168 292 147.5 292.5 c 128,-1,10
 127 293 127 293 114 293 c 1,11,12
 120 308 120 308 148 319 c 128,-1,13
 176 330 176 330 222 338 c 1,14,15
 261 403 261 403 305.5 462 c 128,-1,16
 350 521 350 521 395 570.5 c 128,-1,17
 440 620 440 620 485 657.5 c 128,-1,18
 530 695 530 695 571 717 c 1,19,20
 572 724 572 724 572.5 729 c 128,-1,21
 573 734 573 734 573 736 c 1,22,23
 587 736 587 736 610.5 729 c 128,-1,24
 634 722 634 722 656.5 712 c 128,-1,25
 679 702 679 702 696.5 691.5 c 128,-1,26
 714 681 714 681 716 674 c 1,27,28
 683 616 683 616 651 500.5 c 128,-1,29
 619 385 619 385 598 224 c 0,30,31
 593 184 593 184 589.5 133 c 128,-1,32
 586 82 586 82 586 19 c 0,33,34
 586 -3 586 -3 586 -26 c 128,-1,35
 586 -49 586 -49 588 -74 c 1,36,37
 586 -75 586 -75 584 -75 c 128,-1,38
 582 -75 582 -75 576 -75 c 0,39,40
 562 -75 562 -75 543.5 -70.5 c 128,-1,41
 525 -66 525 -66 507.5 -59.5 c 128,-1,42
 490 -53 490 -53 477.5 -45 c 128,-1,43
 465 -37 465 -37 462 -31 c 1,44,45
 461 -18 461 -18 461 -5.5 c 128,-1,46
 461 7 461 7 461 21 c 0,47,48
 461 83 461 83 465.5 147 c 128,-1,49
 470 211 470 211 481 279 c 1,50,51
 467 280 467 280 444 281.5 c 128,-1,52
 421 283 421 283 392.5 284 c 128,-1,53
 364 285 364 285 331.5 286.5 c 128,-1,54
 299 288 299 288 268 289 c 1,55,56
 244 244 244 244 223 199.5 c 128,-1,57
 202 155 202 155 187 110 c 0,58,59
 170 62 170 62 159.5 14 c 128,-1,60
 149 -34 149 -34 146 -76 c 1,0,1
532 525 m 0,61,62
 536 539 536 539 541.5 563.5 c 128,-1,63
 547 588 547 588 552 615 c 1,64,65
 527 606 527 606 496.5 582 c 128,-1,66
 466 558 466 558 433.5 522.5 c 128,-1,67
 401 487 401 487 367.5 442.5 c 128,-1,68
 334 398 334 398 303 348 c 1,69,70
 387 355 387 355 494 357 c 1,71,72
 502 399 502 399 511.5 440.5 c 128,-1,73
 521 482 521 482 532 525 c 0,61,62
567 788 m 1,74,75
 567 803 567 803 569 819.5 c 128,-1,76
 571 836 571 836 577 849.5 c 128,-1,77
 583 863 583 863 594.5 872.5 c 128,-1,78
 606 882 606 882 625 883 c 1,79,80
 638 881 638 881 660.5 868.5 c 128,-1,81
 683 856 683 856 693 839 c 1,82,83
 693 839 693 839 684.5 828 c 128,-1,84
 676 817 676 817 664.5 804 c 128,-1,85
 653 791 653 791 642.5 779 c 128,-1,86
 632 767 632 767 628 764 c 1,87,88
 603 769 603 769 587.5 774 c 128,-1,89
 572 779 572 779 567 788 c 1,74,75
698 788 m 1,90,91
 698 804 698 804 700 820.5 c 128,-1,92
 702 837 702 837 708 850.5 c 128,-1,93
 714 864 714 864 725 873 c 128,-1,94
 736 882 736 882 754 883 c 0,95,96
 760 883 760 883 769.5 879 c 128,-1,97
 779 875 779 875 789 869 c 128,-1,98
 799 863 799 863 808 855 c 128,-1,99
 817 847 817 847 823 839 c 0,100,101
 823 838 823 838 814.5 827 c 128,-1,102
 806 816 806 816 795 802.5 c 128,-1,103
 784 789 784 789 773 777 c 128,-1,104
 762 765 762 765 756 763 c 1,105,106
 733 766 733 766 718.5 773 c 128,-1,107
 704 780 704 780 698 788 c 1,90,91
EndSplineSet
EndChar

StartChar: Aring
Encoding: 197 197 11
Width: 644
Flags: W
LayerCount: 2
Fore
SplineSet
740 766 m 0,0,1
 726 744 726 744 705 729.5 c 128,-1,2
 684 715 684 715 658 711 c 1,3,4
 681 701 681 701 698 691 c 128,-1,5
 715 681 715 681 717 674 c 1,6,7
 684 616 684 616 652 500.5 c 128,-1,8
 620 385 620 385 599 224 c 0,9,10
 594 184 594 184 590.5 133 c 128,-1,11
 587 82 587 82 587 19 c 0,12,13
 587 -3 587 -3 587 -26 c 128,-1,14
 587 -49 587 -49 589 -74 c 1,15,16
 587 -75 587 -75 585 -75 c 128,-1,17
 583 -75 583 -75 577 -75 c 0,18,19
 563 -75 563 -75 544.5 -70.5 c 128,-1,20
 526 -66 526 -66 508.5 -59.5 c 128,-1,21
 491 -53 491 -53 478.5 -45 c 128,-1,22
 466 -37 466 -37 463 -31 c 1,23,24
 462 -18 462 -18 462 -5.5 c 128,-1,25
 462 7 462 7 462 21 c 0,26,27
 462 83 462 83 466.5 147 c 128,-1,28
 471 211 471 211 482 279 c 1,29,30
 468 280 468 280 445 281.5 c 128,-1,31
 422 283 422 283 393.5 284 c 128,-1,32
 365 285 365 285 332.5 286.5 c 128,-1,33
 300 288 300 288 269 289 c 1,34,35
 245 244 245 244 224 199.5 c 128,-1,36
 203 155 203 155 188 110 c 0,37,38
 171 62 171 62 160.5 14 c 128,-1,39
 150 -34 150 -34 147 -76 c 1,40,41
 99 -62 99 -62 80.5 -48 c 128,-1,42
 62 -34 62 -34 62 -13 c 0,43,44
 62 3 62 3 71 32 c 128,-1,45
 80 61 80 61 97.5 100.5 c 128,-1,46
 115 140 115 140 139.5 188 c 128,-1,47
 164 236 164 236 195 291 c 1,48,49
 169 292 169 292 148.5 292.5 c 128,-1,50
 128 293 128 293 115 293 c 1,51,52
 121 308 121 308 149 319 c 128,-1,53
 177 330 177 330 223 338 c 1,54,55
 263 408 263 408 310 468.5 c 128,-1,56
 357 529 357 529 404.5 579.5 c 128,-1,57
 452 630 452 630 495.5 669 c 128,-1,58
 539 708 539 708 574 734 c 1,59,60
 559 745 559 745 550 760.5 c 128,-1,61
 541 776 541 776 541 793 c 0,62,63
 541 813 541 813 551 829.5 c 128,-1,64
 561 846 561 846 577 858 c 128,-1,65
 593 870 593 870 612.5 876.5 c 128,-1,66
 632 883 632 883 651 883 c 0,67,68
 672 883 672 883 690 876.5 c 128,-1,69
 708 870 708 870 721.5 859.5 c 128,-1,70
 735 849 735 849 743 834.5 c 128,-1,71
 751 820 751 820 751 804 c 0,72,73
 751 785 751 785 740 766 c 0,0,1
533 525 m 0,74,75
 537 539 537 539 542.5 563.5 c 128,-1,76
 548 588 548 588 553 615 c 1,77,78
 528 606 528 606 497.5 582 c 128,-1,79
 467 558 467 558 434.5 522.5 c 128,-1,80
 402 487 402 487 368.5 442.5 c 128,-1,81
 335 398 335 398 304 348 c 1,82,83
 388 355 388 355 495 357 c 1,84,85
 503 399 503 399 512.5 440.5 c 128,-1,86
 522 482 522 482 533 525 c 0,74,75
709 813 m 0,87,88
 709 829 709 829 699 841 c 128,-1,89
 689 853 689 853 670 853 c 0,90,91
 659 853 659 853 646.5 847 c 128,-1,92
 634 841 634 841 623.5 831.5 c 128,-1,93
 613 822 613 822 606 808.5 c 128,-1,94
 599 795 599 795 599 780 c 0,95,96
 599 761 599 761 607 747.5 c 128,-1,97
 615 734 615 734 633 734 c 256,98,99
 651 734 651 734 665 741.5 c 128,-1,100
 679 749 679 749 689 761 c 128,-1,101
 699 773 699 773 704 787 c 128,-1,102
 709 801 709 801 709 813 c 0,87,88
EndSplineSet
EndChar
